SplineFontDB: 3.0
FontName: SBOL_2019.04
FullName: SBOL_2019.04
FamilyName: SBOL_2019.04
Weight: Regular
Copyright: By Benjamin Aleritsch. Please cite the soon to be published technical note if you use this font.
Version: 2019.04
ItalicAngle: 0
UnderlinePosition: -816
UnderlineWidth: 408
Ascent: 4096
Descent: 4096
InvalidEm: 0
sfntRevision: 0x07e30a3d
LayerCount: 2
Layer: 0 0 "Back" 1
Layer: 1 0 "Fore" 0
XUID: [1021 880 -1658355765 6385352]
StyleMap: 0x0000
FSType: 0
OS2Version: 4
OS2_WeightWidthSlopeOnly: 0
OS2_UseTypoMetrics: 1
CreationTime: 1524582028
ModificationTime: 1556649959
PfmFamily: 17
TTFWeight: 400
TTFWidth: 5
LineGap: 737
VLineGap: 0
Panose: 2 0 5 3 0 0 0 0 0 0
OS2TypoAscent: 4096
OS2TypoAOffset: 0
OS2TypoDescent: -4096
OS2TypoDOffset: 0
OS2TypoLinegap: 737
OS2WinAscent: 8320
OS2WinAOffset: 0
OS2WinDescent: 8320
OS2WinDOffset: 0
HheadAscent: 8320
HheadAOffset: 0
HheadDescent: -8320
HheadDOffset: 0
OS2SubXSize: 5324
OS2SubYSize: 5734
OS2SubXOff: 0
OS2SubYOff: 1146
OS2SupXSize: 5324
OS2SupYSize: 5734
OS2SupXOff: 0
OS2SupYOff: 3932
OS2StrikeYSize: 408
OS2StrikeYPos: 2120
OS2Vendor: 'PfEd'
OS2CodePages: 00000001.00000000
OS2UnicodeRanges: 00000003.02000000.04000000.00000000
MarkAttachClasses: 1
DEI: 91125
LangName: 1033
Encoding: UnicodeFull
Compacted: 1
UnicodeInterp: none
NameList: AGL For New Fonts
DisplaySize: -48
AntiAlias: 1
FitToEm: 0
WinInfo: 0 25 10
BeginPrivate: 0
EndPrivate
BeginChars: 1114113 150

StartChar: uF0000
Encoding: 983040 983040 3
Width: 4096
Flags: W
LayerCount: 2
Fore
SplineSet
0 128 m 1
 4096 128 l 1
 4096 -128 l 1
 0 -128 l 1
 0 128 l 1
EndSplineSet
Validated: 1
EndChar

StartChar: uF0001
Encoding: 983041 983041 4
Width: 4096
Flags: W
LayerCount: 2
Fore
SplineSet
1920 -4106 m 1
 1920 4106 l 1
 2176 4106 l 1
 2176 -4106 l 1
 1920 -4106 l 1
EndSplineSet
Validated: 1
EndChar

StartChar: uF0002
Encoding: 983042 983042 5
Width: 4096
Flags: W
LayerCount: 2
Fore
SplineSet
3072 128 m 2
 4086 128 l 1
 4096 128 l 1
 4096 -128 l 1
 4086 -128 l 1
 3072 -128 l 2
 2577 -128 2176 -529 2176 -1024 c 2
 2176 -4096 l 1
 2176 -4106 l 1
 1920 -4106 l 1
 1920 -4096 l 1
 1920 -1024 l 2
 1920 -388 2436 128 3072 128 c 2
EndSplineSet
Validated: 1
EndChar

StartChar: uF0003
Encoding: 983043 983043 6
Width: 4096
Flags: W
LayerCount: 2
Fore
SplineSet
1024 128 m 2
 1660 128 2176 -388 2176 -1024 c 2
 2176 -4096 l 1
 2176 -4106 l 1
 1920 -4106 l 1
 1920 -4096 l 1
 1920 -1024 l 2
 1920 -529 1519 -128 1024 -128 c 2
 0 -128 l 1
 -10 -128 l 1
 -10 128 l 1
 0 128 l 1
 1024 128 l 2
EndSplineSet
Validated: 1
EndChar

StartChar: uF0004
Encoding: 983044 983044 7
Width: 4096
Flags: W
LayerCount: 2
Fore
SplineSet
3072 -128 m 2
 2436 -128 1920 388 1920 1024 c 2
 1920 4096 l 1
 1920 4106 l 1
 2176 4106 l 1
 2176 4096 l 1
 2176 1024 l 2
 2176 529 2577 128 3072 128 c 2
 4086 128 l 1
 4096 128 l 1
 4096 -128 l 1
 4086 -128 l 1
 3072 -128 l 2
EndSplineSet
Validated: 1
EndChar

StartChar: uF0005
Encoding: 983045 983045 8
Width: 4096
Flags: W
LayerCount: 2
Fore
SplineSet
1024 -128 m 2
 10 -128 l 1
 0 -128 l 1
 0 128 l 1
 10 128 l 1
 1024 128 l 2
 1519 128 1920 529 1920 1024 c 2
 1920 4096 l 1
 1920 4106 l 1
 2176 4106 l 1
 2176 4096 l 1
 2176 1024 l 2
 2176 388 1660 -128 1024 -128 c 2
EndSplineSet
Validated: 1
EndChar

StartChar: uF0006
Encoding: 983046 983046 9
Width: 4096
Flags: W
LayerCount: 2
Fore
SplineSet
2885 2804 m 0
 3097 2804 3271 2630 3271 2418 c 0
 3271 2205 3097 2032 2885 2032 c 0
 2833 2032 2789 2050 2745 2068 c 1
 2219 1764 l 1
 2230 1714 2242 1663 2242 1610 c 0
 2242 1299 2038 1041 1759 946 c 1
 1759 128 l 1
 4096 128 l 1
 4096 -128 l 1
 0 -128 l 1
 0 128 l 1
 1308 128 l 1
 1308 947 l 1
 1029 1041 825 1300 825 1610 c 0
 825 2001 1143 2319 1533 2319 c 0
 1705 2319 1859 2250 1982 2148 c 1
 2505 2450 l 1
 2522 2647 2683 2804 2885 2804 c 0
2629 2373 m 1
 1971 1993 l 1
 1936 2027 l 2
 1831 2128 1690 2190 1533 2190 c 0
 1212 2190 954 1931 954 1610 c 0
 954 1340 1138 1114 1388 1050 c 2
 1437 1037 l 1
 1437 128 l 1
 1630 128 l 1
 1630 1037 l 1
 1678 1049 l 2
 1928 1114 2113 1339 2113 1610 c 0
 2113 1669 2104 1726 2087 1779 c 2
 2073 1828 l 1
 2732 2209 l 1
 2764 2192 l 2
 2801 2172 2841 2160 2885 2160 c 0
 3028 2160 3142 2275 3142 2418 c 0
 3142 2585 3023 2667 2900 2667 c 0
 2767 2667 2629 2571 2629 2383 c 2
 2629 2373 l 1
EndSplineSet
Validated: 1
EndChar

StartChar: uF0007
Encoding: 983047 983047 10
Width: 4096
Flags: W
LayerCount: 2
Fore
SplineSet
1024 469 m 1
 3072 469 l 1
 3074 469 l 2
 3144 469 3202 412 3202 341 c 0
 3202 270 3144 213 3074 213 c 2
 3072 213 l 1
 1024 213 l 1
 1022 213 l 2
 952 213 894 270 894 341 c 0
 894 412 952 469 1022 469 c 2
 1024 469 l 1
1024 -214 m 1
 3072 -214 l 1
 3074 -214 l 2
 3144 -214 3202 -271 3202 -342 c 0
 3202 -412 3144 -470 3074 -470 c 2
 3072 -470 l 1
 1024 -470 l 1
 1022 -470 l 2
 952 -470 894 -412 894 -342 c 0
 894 -271 952 -214 1022 -214 c 2
 1024 -214 l 1
EndSplineSet
Validated: 1
EndChar

StartChar: uF0008
Encoding: 983048 983048 11
Width: 4096
Flags: W
LayerCount: 2
Fore
SplineSet
1536 1237 m 1
 1792 1237 l 2
 1863 1237 1920 1180 1920 1109 c 2
 1920 128 l 1
 2176 128 l 1
 2176 1109 l 2
 2176 1180 2233 1237 2304 1237 c 2
 2560 1237 l 1
 2562 1237 l 2
 2632 1237 2690 1180 2690 1109 c 0
 2690 1039 2632 981 2562 981 c 2
 2560 981 l 1
 2432 981 l 1
 2432 128 l 1
 4096 128 l 1
 4096 -128 l 1
 2432 -128 l 1
 2432 -981 l 1
 2560 -981 l 1
 2562 -981 l 2
 2633 -981 2690 -1039 2690 -1109 c 0
 2690 -1180 2633 -1237 2562 -1237 c 2
 2560 -1237 l 1
 2304 -1237 l 2
 2233 -1237 2176 -1180 2176 -1109 c 2
 2176 -128 l 1
 1920 -128 l 1
 1920 -1109 l 2
 1920 -1180 1863 -1237 1792 -1237 c 2
 1536 -1237 l 1
 1534 -1237 l 2
 1463 -1237 1406 -1180 1406 -1109 c 0
 1406 -1039 1463 -981 1534 -981 c 2
 1536 -981 l 1
 1664 -981 l 1
 1664 -128 l 1
 0 -128 l 1
 0 128 l 1
 1664 128 l 1
 1664 981 l 1
 1536 981 l 1
 1534 981 l 2
 1464 981 1406 1039 1406 1109 c 0
 1406 1180 1464 1237 1534 1237 c 2
 1536 1237 l 1
EndSplineSet
Validated: 1
EndChar

StartChar: uF0009
Encoding: 983049 983049 12
Width: 4096
Flags: W
LayerCount: 2
Fore
SplineSet
2592 1096 m 2
 2623 1096 2663 1083 2684 1061 c 2
 3574 128 l 1
 4096 128 l 1
 4096 -128 l 1
 3574 -128 l 1
 2684 -1061 l 2
 2663 -1083 2622 -1101 2591 -1101 c 2
 577 -1101 l 2
 506 -1101 449 -1043 449 -973 c 2
 449 -128 l 1
 0 -128 l 1
 0 128 l 1
 448 128 l 1
 448 973 l 2
 448 1043 506 1096 577 1096 c 2
 2592 1096 l 2
705 845 m 1
 705 -845 l 1
 2538 -845 l 1
 3344 0 l 1
 2538 845 l 1
 705 845 l 1
EndSplineSet
Validated: 1
EndChar

StartChar: uF000A
Encoding: 983050 983050 13
Width: 4096
Flags: W
LayerCount: 2
Fore
SplineSet
2684 1061 m 2
 3574 128 l 1
 4096 128 l 1
 4096 -128 l 1
 3574 -128 l 1
 2684 -1061 l 2
 2663 -1083 2622 -1101 2591 -1101 c 0
 2523 -1101 2466 -1045 2464 -977 c 2
 2454 -667 l 1
 577 -671 l 1
 576 -671 l 2
 506 -671 449 -614 449 -543 c 2
 449 -128 l 1
 0 -128 l 1
 0 128 l 1
 449 128 l 1
 449 476 l 2
 449 546 506 604 576 604 c 2
 577 604 l 1
 2460 595 l 1
 2463 974 l 2
 2465 1087 2606 1142 2684 1061 c 2
2716 657 m 1
 2714 465 l 2
 2713 396 2657 339 2587 339 c 2
 2586 339 l 1
 704 347 l 1
 704 -415 l 1
 2577 -411 l 1
 2578 -411 l 2
 2646 -411 2703 -467 2705 -535 c 2
 2709 -664 l 1
 3343 0 l 1
 2716 657 l 1
EndSplineSet
Validated: 1
EndChar

StartChar: uF000B
Encoding: 983051 983051 14
Width: 4096
Flags: W
LayerCount: 2
Fore
SplineSet
4096 8320 m 1
 4352 8320 l 1
 4173 7962 l 1
 3968 8064 l 1
 4096 8320 l 1
3866 7859 m 1
 4070 7757 l 1
 3763 7142 l 1
 3558 7245 l 1
 3866 7859 l 1
3456 7040 m 1
 3661 6938 l 1
 3354 6323 l 1
 3149 6426 l 1
 3456 7040 l 1
3046 6221 m 1
 3251 6118 l 1
 2944 5504 l 1
 2739 5606 l 1
 3046 6221 l 1
2637 5402 m 1
 2842 5299 l 1
 2534 4685 l 1
 2330 4787 l 1
 2637 5402 l 1
2227 4582 m 1
 2432 4480 l 1
 2125 3866 l 1
 1920 3968 l 1
 2227 4582 l 1
1818 3763 m 1
 2022 3661 l 1
 1715 3046 l 1
 1510 3149 l 1
 1818 3763 l 1
1408 2944 m 1
 1613 2842 l 1
 1306 2227 l 1
 1101 2330 l 1
 1408 2944 l 1
998 2125 m 1
 1203 2022 l 1
 896 1408 l 1
 691 1510 l 1
 998 2125 l 1
589 1306 m 1
 794 1203 l 1
 486 589 l 1
 282 691 l 1
 589 1306 l 1
179 486 m 1
 384 384 l 1
 256 128 l 1
 0 128 l 1
 179 486 l 1
EndSplineSet
Validated: 1
EndChar

StartChar: uF000C
Encoding: 983052 983052 15
Width: 4096
Flags: W
LayerCount: 2
Fore
SplineSet
179 486 m 1
 384 384 l 1
 256 128 l 1
 4096 128 l 1
 4096 -128 l 1
 0 -128 l 1
 0 128 l 1
 179 486 l 1
4096 8320 m 1
 4352 8320 l 1
 4173 7962 l 1
 3968 8064 l 1
 4096 8320 l 1
3866 7859 m 1
 4070 7757 l 1
 3763 7142 l 1
 3558 7245 l 1
 3866 7859 l 1
3456 7040 m 1
 3661 6938 l 1
 3354 6323 l 1
 3149 6426 l 1
 3456 7040 l 1
3046 6221 m 1
 3251 6118 l 1
 2944 5504 l 1
 2739 5606 l 1
 3046 6221 l 1
2637 5402 m 1
 2842 5299 l 1
 2534 4685 l 1
 2330 4787 l 1
 2637 5402 l 1
2227 4582 m 1
 2432 4480 l 1
 2125 3866 l 1
 1920 3968 l 1
 2227 4582 l 1
1818 3763 m 1
 2022 3661 l 1
 1715 3046 l 1
 1510 3149 l 1
 1818 3763 l 1
1408 2944 m 1
 1613 2842 l 1
 1306 2227 l 1
 1101 2330 l 1
 1408 2944 l 1
998 2125 m 1
 1203 2022 l 1
 896 1408 l 1
 691 1510 l 1
 998 2125 l 1
589 1306 m 1
 794 1203 l 1
 486 589 l 1
 282 691 l 1
 589 1306 l 1
EndSplineSet
Validated: 1
EndChar

StartChar: uF000D
Encoding: 983053 983053 16
Width: 4096
Flags: W
LayerCount: 2
Fore
SplineSet
3917 486 m 1
 4096 128 l 1
 4096 -128 l 1
 0 -128 l 1
 0 128 l 1
 3840 128 l 1
 3712 384 l 1
 3917 486 l 1
0 8320 m 1
 128 8064 l 1
 -77 7962 l 1
 -256 8320 l 1
 0 8320 l 1
230 7859 m 1
 538 7245 l 1
 333 7142 l 1
 26 7757 l 1
 230 7859 l 1
640 7040 m 1
 947 6426 l 1
 742 6323 l 1
 435 6938 l 1
 640 7040 l 1
1050 6221 m 1
 1357 5606 l 1
 1152 5504 l 1
 845 6118 l 1
 1050 6221 l 1
1459 5402 m 1
 1766 4787 l 1
 1562 4685 l 1
 1254 5299 l 1
 1459 5402 l 1
1869 4582 m 1
 2176 3968 l 1
 1971 3866 l 1
 1664 4480 l 1
 1869 4582 l 1
2278 3763 m 1
 2586 3149 l 1
 2381 3046 l 1
 2074 3661 l 1
 2278 3763 l 1
2688 2944 m 1
 2995 2330 l 1
 2790 2227 l 1
 2483 2842 l 1
 2688 2944 l 1
3098 2125 m 1
 3405 1510 l 1
 3200 1408 l 1
 2893 2022 l 1
 3098 2125 l 1
3507 1306 m 1
 3814 691 l 1
 3610 589 l 1
 3302 1203 l 1
 3507 1306 l 1
EndSplineSet
Validated: 1
EndChar

StartChar: uF000E
Encoding: 983054 983054 17
Width: 4096
Flags: W
LayerCount: 2
Fore
SplineSet
0 8320 m 1
 128 8064 l 1
 -77 7962 l 1
 -256 8320 l 1
 0 8320 l 1
230 7859 m 1
 538 7245 l 1
 333 7142 l 1
 26 7757 l 1
 230 7859 l 1
640 7040 m 1
 947 6426 l 1
 742 6323 l 1
 435 6938 l 1
 640 7040 l 1
1050 6221 m 1
 1357 5606 l 1
 1152 5504 l 1
 845 6118 l 1
 1050 6221 l 1
1459 5402 m 1
 1766 4787 l 1
 1562 4685 l 1
 1254 5299 l 1
 1459 5402 l 1
1869 4582 m 1
 2176 3968 l 1
 1971 3866 l 1
 1664 4480 l 1
 1869 4582 l 1
2278 3763 m 1
 2586 3149 l 1
 2381 3046 l 1
 2074 3661 l 1
 2278 3763 l 1
2688 2944 m 1
 2995 2330 l 1
 2790 2227 l 1
 2483 2842 l 1
 2688 2944 l 1
3098 2125 m 1
 3405 1510 l 1
 3200 1408 l 1
 2893 2022 l 1
 3098 2125 l 1
3507 1306 m 1
 3814 691 l 1
 3610 589 l 1
 3302 1203 l 1
 3507 1306 l 1
3917 486 m 1
 4096 128 l 1
 3840 128 l 1
 3712 384 l 1
 3917 486 l 1
EndSplineSet
Validated: 1
EndChar

StartChar: uF000F
Encoding: 983055 983055 18
Width: 4096
Flags: W
LayerCount: 2
Fore
SplineSet
341 2091 m 2
 3755 2091 l 2
 3825 2091 3883 2033 3883 1963 c 2
 3883 256 l 2
 3883 185 3825 128 3755 128 c 2
 4096 128 l 1
 4096 -128 l 1
 0 -128 l 1
 0 128 l 1
 341 128 l 2
 271 128 213 185 213 256 c 2
 213 1963 l 2
 213 2033 271 2091 341 2091 c 2
469 1835 m 1
 469 384 l 1
 3627 384 l 1
 3627 1835 l 1
 469 1835 l 1
EndSplineSet
Validated: 1
EndChar

StartChar: uF0010
Encoding: 983056 983056 19
Width: 4096
Flags: W
LayerCount: 2
Fore
SplineSet
130 469 m 1
 2690 469 l 1
 2692 469 l 2
 2762 469 2820 412 2820 341 c 0
 2820 270 2762 213 2692 213 c 2
 2690 213 l 1
 130 213 l 1
 128 213 l 2
 57 213 0 270 0 341 c 0
 0 412 57 469 128 469 c 2
 130 469 l 1
130 -214 m 1
 1410 -214 l 1
 1412 -214 l 2
 1482 -214 1540 -271 1540 -342 c 0
 1540 -412 1482 -470 1412 -470 c 2
 1410 -470 l 1
 130 -470 l 1
 128 -470 l 2
 57 -470 0 -412 0 -342 c 0
 0 -271 57 -214 128 -214 c 2
 130 -214 l 1
EndSplineSet
Validated: 1
EndChar

StartChar: uF0011
Encoding: 983057 983057 20
Width: 4096
Flags: W
LayerCount: 2
Fore
SplineSet
3966 469 m 1
 3968 469 l 2
 4039 469 4096 412 4096 341 c 0
 4096 270 4039 213 3968 213 c 2
 3966 213 l 1
 1406 213 l 1
 1404 213 l 2
 1334 213 1276 270 1276 341 c 0
 1276 412 1334 469 1404 469 c 2
 1406 469 l 1
 3966 469 l 1
3966 -214 m 1
 3968 -214 l 2
 4039 -214 4096 -271 4096 -342 c 0
 4096 -412 4039 -470 3968 -470 c 2
 3966 -470 l 1
 2686 -470 l 1
 2684 -470 l 2
 2614 -470 2556 -412 2556 -342 c 0
 2556 -271 2614 -214 2684 -214 c 2
 2686 -214 l 1
 3966 -214 l 1
EndSplineSet
Validated: 1
EndChar

StartChar: uF0012
Encoding: 983058 983058 21
Width: 4096
Flags: W
LayerCount: 2
Fore
SplineSet
3326 1239 m 2
 3328 1239 l 2
 3399 1239 3456 1182 3456 1111 c 2
 3456 1109 l 1
 3456 0 l 2
 3456 -71 3399 -128 3328 -128 c 2
 896 -128 l 1
 896 -1109 l 1
 896 -1111 l 2
 896 -1182 839 -1239 768 -1239 c 0
 697 -1239 640 -1182 640 -1111 c 2
 640 -1109 l 1
 640 0 l 2
 640 71 697 128 768 128 c 2
 3200 128 l 1
 3200 1109 l 1
 3200 1111 l 2
 3200 1181 3257 1238 3326 1239 c 2
EndSplineSet
Validated: 1
EndChar

StartChar: uF0013
Encoding: 983059 983059 22
Width: 4096
Flags: W
LayerCount: 2
Fore
SplineSet
3326 -1239 m 2
 3257 -1238 3200 -1181 3200 -1111 c 2
 3200 -1109 l 1
 3200 -128 l 1
 768 -128 l 2
 697 -128 640 -71 640 0 c 2
 640 1109 l 1
 640 1111 l 2
 640 1182 697 1239 768 1239 c 0
 839 1239 896 1182 896 1111 c 2
 896 1109 l 1
 896 128 l 1
 3328 128 l 2
 3399 128 3456 71 3456 0 c 2
 3456 -1109 l 1
 3456 -1111 l 2
 3456 -1182 3399 -1239 3328 -1239 c 2
 3326 -1239 l 2
EndSplineSet
Validated: 1
EndChar

StartChar: uF0014
Encoding: 983060 983060 23
Width: 4096
Flags: W
LayerCount: 2
Fore
SplineSet
768 2944 m 2
 3328 2944 l 2
 3399 2944 3456 2887 3456 2816 c 2
 3456 256 l 2
 3456 185 3399 128 3328 128 c 2
 4096 128 l 1
 4096 -128 l 1
 0 -128 l 1
 0 128 l 1
 768 128 l 2
 697 128 640 185 640 256 c 2
 640 2816 l 2
 640 2887 697 2944 768 2944 c 2
896 2688 m 1
 896 384 l 1
 3200 384 l 1
 3200 2688 l 1
 896 2688 l 1
1365 2347 m 2
 2731 2347 l 2
 2801 2347 2859 2289 2859 2219 c 2
 2859 853 l 2
 2859 783 2801 725 2731 725 c 2
 1365 725 l 2
 1295 725 1237 783 1237 853 c 2
 1237 2219 l 2
 1237 2289 1295 2347 1365 2347 c 2
1493 2091 m 1
 1493 981 l 1
 2603 981 l 1
 2603 2091 l 1
 1493 2091 l 1
EndSplineSet
Validated: 1
EndChar

StartChar: uF0015
Encoding: 983061 983061 24
Width: 4096
Flags: W
LayerCount: 2
Fore
SplineSet
1364 1950 m 1
 1779 1950 l 1
 1779 1766 l 1
 1586 1766 l 1
 1586 568 l 1
 1779 568 l 1
 1779 384 l 1
 1364 384 l 1
 1364 1950 l 1
2317 1950 m 1
 2732 1950 l 1
 2732 384 l 1
 2317 384 l 1
 2317 568 l 1
 2510 568 l 1
 2510 1767 l 1
 2317 1767 l 1
 2317 1950 l 1
0 128 m 1
 4096 128 l 1
 4096 -128 l 1
 0 -128 l 1
 0 128 l 1
EndSplineSet
Validated: 1
EndChar

StartChar: uF0016
Encoding: 983062 983062 25
Width: 4096
Flags: W
LayerCount: 2
Fore
SplineSet
2924 888 m 2
 2930 888 2937 888 2943 887 c 0
 3011 878 3064 830 3126 753 c 0
 3181 683 3248 573 3326 437 c 1
 3339 429 3351 409 3353 394 c 0
 3356 387 3358 376 3358 369 c 0
 3358 362 3356 351 3353 345 c 2
 3353 128 l 1
 4096 128 l 1
 4096 -128 l 1
 0 -128 l 1
 0 128 l 1
 738 128 l 1
 743 581 l 2
 743 589 746 601 749 608 c 0
 791 691 830 755 875 801 c 0
 920 847 977 876 1036 874 c 0
 1096 871 1149 840 1201 794 c 0
 1253 749 1305 686 1365 607 c 0
 1421 530 1466 478 1500 450 c 0
 1533 422 1547 420 1557 422 c 0
 1567 423 1587 434 1617 469 c 0
 1647 503 1683 557 1729 624 c 0
 1775 694 1817 749 1861 790 c 0
 1905 832 1954 860 2009 862 c 0
 2065 864 2117 838 2163 797 c 0
 2209 756 2253 699 2302 624 c 0
 2349 552 2387 500 2416 470 c 0
 2445 440 2460 436 2468 436 c 0
 2475 436 2493 443 2524 474 c 0
 2555 505 2595 556 2645 626 c 0
 2694 695 2734 757 2777 805 c 0
 2814 848 2861 885 2918 888 c 2
 2924 888 l 2
2924 768 m 0
 2912 767 2897 759 2868 726 c 0
 2835 689 2794 627 2743 556 c 0
 2692 485 2651 429 2610 388 c 0
 2569 347 2524 317 2470 315 c 0
 2416 314 2370 345 2330 386 c 0
 2290 427 2250 484 2201 558 c 0
 2155 628 2115 678 2082 707 c 0
 2050 736 2030 743 2014 742 c 0
 1997 741 1975 732 1943 702 c 0
 1912 672 1873 623 1829 557 c 0
 1784 489 1746 433 1708 390 c 0
 1670 346 1630 311 1576 302 c 0
 1521 294 1468 318 1422 358 c 0
 1375 398 1327 455 1268 535 c 0
 1211 611 1162 668 1121 704 c 0
 1080 740 1050 752 1030 753 c 0
 1011 754 992 748 962 717 c 0
 934 688 899 634 863 563 c 1
 859 128 l 1
 3233 128 l 1
 3233 359 l 1
 3150 505 3082 614 3032 678 c 0
 2978 746 2941 766 2928 767 c 0
 2927 767 2926 768 2924 768 c 0
EndSplineSet
Validated: 1
EndChar

StartChar: uF0017
Encoding: 983063 983063 26
Width: 4096
Flags: W
LayerCount: 2
Fore
SplineSet
0 128 m 1
 1152 128 l 1
 1152 -128 l 1
 0 -128 l 1
 0 128 l 1
2944 128 m 1
 4096 128 l 1
 4096 -128 l 1
 2944 -128 l 1
 2944 128 l 1
1920 128 m 1
 2176 128 l 1
 2176 -128 l 1
 1920 -128 l 1
 1920 128 l 1
2432 128 m 1
 2688 128 l 1
 2688 -128 l 1
 2432 -128 l 1
 2432 128 l 1
1408 128 m 1
 1664 128 l 1
 1664 -128 l 1
 1408 -128 l 1
 1408 128 l 1
EndSplineSet
Validated: 1
EndChar

StartChar: uF0018
Encoding: 983064 983064 27
Width: 4096
Flags: W
LayerCount: 2
Fore
SplineSet
1193 982 m 2
 1195 982 l 2
 1265 982 1323 925 1323 854 c 2
 1323 852 l 1
 1323 -726 l 1
 2773 -726 l 1
 2773 852 l 1
 2773 854 l 2
 2773 925 2831 982 2901 982 c 0
 2972 982 3029 925 3029 854 c 2
 3029 852 l 1
 3029 128 l 1
 4096 128 l 1
 4096 -128 l 1
 3029 -128 l 1
 3029 -854 l 2
 3029 -925 2972 -982 2901 -982 c 2
 1195 -982 l 2
 1124 -982 1067 -925 1067 -854 c 2
 1067 -128 l 1
 0 -128 l 1
 0 128 l 1
 1067 128 l 1
 1067 852 l 1
 1067 854 l 2
 1067 924 1123 981 1193 982 c 2
EndSplineSet
Validated: 1
EndChar

StartChar: uF0019
Encoding: 983065 983065 28
Width: 4096
Flags: W
LayerCount: 2
Fore
SplineSet
2048 1152 m 0
 2639 1152 3129 703 3193 128 c 1
 4096 128 l 1
 4096 -128 l 1
 3193 -128 l 1
 3129 -703 2639 -1152 2048 -1152 c 0
 1457 -1152 967 -703 903 -128 c 1
 0 -128 l 1
 0 128 l 1
 903 128 l 1
 967 703 1457 1152 2048 1152 c 0
2048 896 m 0
 1552 896 1152 496 1152 0 c 0
 1152 -496 1552 -896 2048 -896 c 0
 2544 -896 2944 -496 2944 0 c 0
 2944 496 2544 896 2048 896 c 0
EndSplineSet
Validated: 1
EndChar

StartChar: uF001A
Encoding: 983066 983066 29
Width: 4096
Flags: W
LayerCount: 2
Fore
SplineSet
3437 1352 m 1
 3323 928 l 1
 3245 1005 l 1
 2956 716 l 1
 3087 550 3173 348 3198 128 c 1
 4096 128 l 1
 4096 -128 l 1
 3198 -128 l 1
 3134 -705 2642 -1157 2048 -1157 c 0
 1454 -1157 962 -705 898 -128 c 1
 0 -128 l 1
 0 128 l 1
 898 128 l 1
 962 705 1454 1157 2048 1157 c 0
 2336 1157 2601 1050 2804 875 c 1
 3090 1161 l 1
 3012 1239 l 1
 3437 1352 l 1
2048 900 m 0
 1550 900 1148 498 1148 0 c 0
 1148 -498 1550 -900 2048 -900 c 0
 2546 -900 2948 -498 2948 0 c 0
 2948 200 2883 384 2774 533 c 1
 2140 -100 l 2
 2122 -118 2088 -132 2063 -132 c 0
 2002 -132 1952 -83 1952 -22 c 0
 1952 3 1967 38 1984 56 c 2
 2622 694 l 1
 2467 822 2267 900 2048 900 c 0
EndSplineSet
Validated: 1
EndChar

StartChar: uF001B
Encoding: 983067 983067 30
Width: 4096
Flags: W
LayerCount: 2
Fore
SplineSet
1218 868 m 1
 1376 868 l 1
 1672 128 l 1
 1677 128 l 1
 1965 868 l 1
 2123 868 l 1
 2419 128 l 1
 2424 128 l 1
 2712 868 l 1
 2870 868 l 1
 3166 128 l 1
 4096 128 l 1
 4096 -128 l 1
 0 -128 l 1
 0 128 l 1
 930 128 l 1
 1218 868 l 1
1295 695 m 1
 1195 421 l 1
 1397 421 l 1
 1295 695 l 1
2042 695 m 1
 1942 421 l 1
 2144 421 l 1
 2042 695 l 1
2789 695 m 1
 2689 421 l 1
 2891 421 l 1
 2789 695 l 1
1149 296 m 1
 1088 128 l 1
 1510 128 l 1
 1445 296 l 1
 1149 296 l 1
1896 296 m 1
 1835 128 l 1
 2257 128 l 1
 2192 296 l 1
 1896 296 l 1
2643 296 m 1
 2582 128 l 1
 3004 128 l 1
 2939 296 l 1
 2643 296 l 1
EndSplineSet
Validated: 1
EndChar

StartChar: uF001C
Encoding: 983068 983068 31
Width: 4096
Flags: W
LayerCount: 2
Fore
SplineSet
0 -128 m 1
 0 128 l 1
 4096 128 l 1
 4096 -128 l 1
 0 -128 l 1
2307 1494 m 2
 2329 1494 2361 1483 2378 1470 c 2
 3232 873 l 2
 3262 852 3286 805 3286 768 c 0
 3286 697 3229 640 3158 640 c 2
 940 640 l 1
 938 640 l 2
 867 640 810 697 810 768 c 0
 810 839 867 896 938 896 c 2
 940 896 l 1
 2752 896 l 1
 2232 1260 l 2
 2200 1281 2175 1329 2175 1366 c 0
 2175 1437 2232 1494 2303 1494 c 2
 2307 1494 l 2
EndSplineSet
Validated: 1
EndChar

StartChar: uF001D
Encoding: 983069 983069 32
Width: 4096
Flags: W
LayerCount: 2
Fore
SplineSet
2606 3203 m 2
 2632 3202 2668 3187 2687 3170 c 2
 3413 2530 l 2
 3437 2509 3456 2466 3456 2434 c 0
 3456 2402 3436 2358 3412 2337 c 2
 2686 1711 l 2
 2666 1693 2628 1678 2600 1678 c 0
 2530 1678 2472 1735 2472 1806 c 0
 2472 1840 2493 1884 2519 1905 c 2
 2984 2306 l 1
 896 2306 l 1
 896 130 l 1
 896 128 l 1
 4096 128 l 1
 4096 -128 l 1
 0 -128 l 1
 0 128 l 1
 640 128 l 1
 640 130 l 1
 640 2434 l 2
 640 2504 697 2562 768 2562 c 2
 2989 2562 l 1
 2518 2978 l 2
 2493 2999 2473 3043 2473 3075 c 0
 2473 3146 2530 3203 2601 3203 c 2
 2606 3203 l 2
EndSplineSet
Validated: 1
EndChar

StartChar: uF001E
Encoding: 983070 983070 33
Width: 4096
Flags: W
LayerCount: 2
Fore
SplineSet
2048 1835 m 0
 2377 1835 2691 1715 2919 1475 c 0
 3147 1235 3285 879 3285 427 c 2
 3285 128 l 1
 4096 128 l 1
 4096 -128 l 1
 3157 -128 l 1
 939 -128 l 1
 0 -128 l 1
 0 128 l 1
 811 128 l 1
 811 427 l 2
 811 879 948 1235 1176 1475 c 0
 1405 1715 1719 1835 2048 1835 c 0
2048 1579 m 0
 1780 1579 1539 1485 1362 1298 c 0
 1185 1112 1067 828 1067 427 c 2
 1067 128 l 1
 3029 128 l 1
 3029 427 l 2
 3029 828 2911 1112 2734 1298 c 0
 2557 1485 2316 1579 2048 1579 c 0
EndSplineSet
Validated: 1
EndChar

StartChar: uF001F
Encoding: 983071 983071 34
Width: 4096
Flags: W
LayerCount: 2
Fore
SplineSet
341 2517 m 2
 3755 2517 l 2
 3825 2517 3883 2460 3883 2389 c 2
 3883 256 l 2
 3883 185 3825 128 3755 128 c 2
 4096 128 l 1
 4096 -128 l 1
 0 -128 l 1
 0 128 l 1
 341 128 l 2
 271 128 213 185 213 256 c 2
 213 2389 l 2
 213 2460 271 2517 341 2517 c 2
469 2261 m 1
 469 384 l 1
 3627 384 l 1
 3627 2261 l 1
 469 2261 l 1
1751 1793 m 0
 1751 1763 1733 1722 1712 1701 c 2
 1376 1365 l 1
 1712 1029 l 2
 1733 1008 1750 968 1750 938 c 0
 1750 868 1692 810 1622 810 c 0
 1592 810 1552 827 1531 848 c 2
 1195 1184 l 1
 859 848 l 2
 838 827 797 811 768 811 c 0
 698 811 640 868 640 939 c 0
 640 968 657 1008 678 1029 c 2
 1014 1365 l 1
 678 1701 l 2
 656 1722 639 1763 639 1793 c 0
 639 1864 696 1921 767 1921 c 0
 797 1921 838 1904 859 1882 c 2
 1195 1546 l 1
 1531 1882 l 2
 1608 1963 1751 1907 1751 1793 c 0
1963 896 m 1
 3328 896 l 1
 3330 896 l 2
 3400 896 3458 839 3458 768 c 0
 3458 697 3400 640 3330 640 c 2
 3328 640 l 1
 1963 640 l 1
 1961 640 l 2
 1890 640 1833 697 1833 768 c 0
 1833 839 1890 896 1961 896 c 2
 1963 896 l 1
EndSplineSet
Validated: 1
EndChar

StartChar: uF0020
Encoding: 983072 983072 35
Width: 4096
Flags: W
LayerCount: 2
Fore
SplineSet
1252 968 m 2
 2932 128 l 1
 4096 128 l 1
 4096 -128 l 1
 2932 -128 l 1
 1252 -968 l 2
 1237 -975 1211 -981 1195 -981 c 0
 1123 -981 1067 -924 1067 -852 c 2
 1067 -128 l 1
 0 -128 l 1
 0 128 l 1
 1067 128 l 1
 1067 853 l 2
 1067 943 1161 1010 1252 968 c 2
1323 646 m 1
 1323 -646 l 1
 2615 0 l 1
 1323 646 l 1
EndSplineSet
Validated: 1
EndChar

StartChar: uF0021
Encoding: 983073 983073 36
Width: 4096
Flags: W
LayerCount: 2
Fore
SplineSet
768 2391 m 1
 3328 2391 l 1
 3330 2391 l 2
 3401 2391 3458 2334 3458 2263 c 0
 3458 2193 3401 2135 3330 2135 c 2
 3328 2135 l 1
 2176 2135 l 1
 2176 130 l 1
 2176 128 l 1
 4096 128 l 1
 4096 -128 l 1
 0 -128 l 1
 0 128 l 1
 1920 128 l 1
 1920 130 l 1
 1920 2135 l 1
 768 2135 l 1
 766 2135 l 2
 695 2135 638 2193 638 2263 c 0
 638 2334 695 2391 766 2391 c 2
 768 2391 l 1
EndSplineSet
Validated: 1
EndChar

StartChar: uF0022
Encoding: 983074 983074 37
Width: 4096
Flags: W
LayerCount: 2
Fore
SplineSet
0 128 m 1
 4096 128 l 1
 4096 -128 l 1
 0 -128 l 1
 0 128 l 1
2048 2549 m 1
 2451 2146 2854 1742 3257 1339 c 1
 2048 130 l 1
 839 1339 l 1
 1242 1742 1645 2146 2048 2549 c 1
2048 2341 m 1
 1714 2007 1380 1673 1047 1339 c 1
 2048 338 l 1
 3049 1339 l 1
 2716 1673 2382 2007 2048 2341 c 1
2029 2021 m 2
 2065 2021 2101 2018 2136 2012 c 0
 2278 1992 2415 1895 2457 1754 c 0
 2465 1728 2469 1701 2469 1674 c 0
 2469 1603 2442 1532 2393 1480 c 1
 2328 1402 2242 1346 2172 1273 c 0
 2126 1229 2130 1160 2130 1101 c 1
 1917 1101 l 1
 1915 1172 1915 1244 1943 1310 c 0
 1992 1419 2100 1480 2183 1559 c 1
 2241 1604 2259 1692 2219 1754 c 0
 2181 1816 2111 1843 2040 1843 c 0
 2012 1843 1983 1838 1957 1830 c 0
 1872 1803 1823 1719 1807 1636 c 1
 1736 1645 1664 1654 1592 1663 c 1
 1596 1741 1627 1817 1679 1876 c 0
 1761 1976 1893 2021 2021 2021 c 2
 2029 2021 l 2
1917 1021 m 1
 2151 1021 l 1
 2151 786 l 1
 1917 786 l 1
 1917 1021 l 1
EndSplineSet
Validated: 1
EndChar

StartChar: uF0023
Encoding: 983075 983075 38
Width: 4096
Flags: W
LayerCount: 2
Fore
SplineSet
321 2021 m 2
 3767 2021 l 2
 3814 2021 3853 1983 3853 1936 c 2
 3853 652 l 2
 3853 617 3861 570 3861 517 c 0
 3861 455 3850 386 3804 320 c 0
 3720 198 3544 132 3198 128 c 1
 4096 128 l 1
 4096 -128 l 1
 0 -128 l 1
 0 128 l 1
 1068 128 l 2
 711 130 514 153 384 239 c 0
 314 285 272 354 254 426 c 0
 236 497 236 571 236 652 c 2
 236 1936 l 2
 236 1983 274 2021 321 2021 c 2
406 1850 m 1
 406 653 l 2
 406 572 409 509 419 468 c 0
 430 426 442 405 478 382 c 0
 548 335 738 299 1120 299 c 2
 1151 299 l 2
 1219 299 1316 300 1433 300 c 0
 1682 300 2019 299 2344 299 c 0
 2677 299 2998 300 3196 302 c 0
 3522 307 3631 370 3664 417 c 0
 3697 465 3682 544 3682 652 c 2
 3682 1850 l 1
 406 1850 l 1
EndSplineSet
Validated: 1
EndChar

StartChar: uF0024
Encoding: 983076 983076 39
Width: 4096
Flags: W
LayerCount: 2
Fore
SplineSet
2048 2987 m 4
 2447 2987 2773 2661 2773 2262 c 4
 2773 1903 2509 1604 2165 1548 c 5
 2171 1534 2176 1511 2176 1496 c 6
 2176 1495 l 5
 2176 130 l 5
 2176 128 l 5
 4096 128 l 5
 4096 -128 l 5
 0 -128 l 5
 0 128 l 5
 1920 128 l 5
 1920 130 l 5
 1920 1495 l 5
 1920 1496 l 6
 1920 1511 1925 1534 1931 1548 c 5
 1587 1604 1323 1903 1323 2262 c 4
 1323 2661 1649 2987 2048 2987 c 4
2048 2731 m 4
 1787 2731 1579 2523 1579 2262 c 4
 1579 2002 1787 1793 2048 1793 c 4
 2309 1793 2517 2002 2517 2262 c 4
 2517 2523 2309 2731 2048 2731 c 4
EndSplineSet
Validated: 1
EndChar

StartChar: uF0025
Encoding: 983077 983077 40
Width: 4096
Flags: W
LayerCount: 2
Fore
SplineSet
2048 3044 m 4
 2447 3044 2773 2718 2773 2318 c 4
 2773 1960 2509 1661 2166 1604 c 5
 2161 1586 2146 1561 2133 1548 c 4
 2059 1474 2068 1460 2069 1455 c 4
 2070 1451 2093 1418 2139 1370 c 4
 2186 1322 2256 1255 2274 1144 c 4
 2277 1129 2278 1113 2278 1098 c 4
 2278 1007 2234 912 2155 817 c 4
 2150 811 2143 802 2137 796 c 4
 2064 723 2073 708 2074 703 c 4
 2075 699 2097 666 2144 618 c 4
 2190 570 2260 503 2279 392 c 4
 2281 377 2283 362 2283 347 c 4
 2283 276 2256 202 2207 128 c 5
 4096 128 l 5
 4096 -128 l 5
 0 -128 l 5
 0 128 l 5
 1917 128 l 5
 1917 156 1933 195 1952 216 c 4
 2030 303 2029 336 2026 350 c 4
 2024 364 2004 394 1960 440 c 4
 1916 485 1847 542 1824 649 c 4
 1820 666 1818 683 1818 700 c 4
 1818 786 1862 876 1939 958 c 4
 1941 961 1945 965 1947 968 c 4
 2026 1055 2024 1088 2022 1102 c 4
 2019 1116 1999 1146 1955 1192 c 4
 1912 1237 1843 1294 1819 1401 c 4
 1804 1471 1821 1545 1864 1618 c 5
 1554 1700 1323 1983 1323 2318 c 4
 1323 2718 1649 3044 2048 3044 c 4
2048 2788 m 4
 1787 2788 1579 2579 1579 2318 c 4
 1579 2058 1787 1849 2048 1849 c 4
 2309 1849 2517 2058 2517 2318 c 4
 2517 2579 2309 2788 2048 2788 c 4
EndSplineSet
Validated: 1
EndChar

StartChar: uF0026
Encoding: 983078 983078 41
Width: 4096
Flags: W
LayerCount: 2
Fore
SplineSet
2048 3075 m 0
 2447 3075 2773 2749 2773 2350 c 0
 2773 2133 2676 1937 2523 1804 c 1
 2621 1729 2679 1618 2680 1504 c 0
 2680 1401 2624 1308 2545 1232 c 1
 2616 1159 2666 1071 2666 975 c 2
 2666 967 l 2
 2664 866 2610 775 2534 697 c 1
 2609 625 2662 537 2662 439 c 2
 2662 436 l 2
 2661 321 2605 208 2508 128 c 1
 4096 128 l 1
 4096 -128 l 1
 0 -128 l 1
 0 128 l 1
 1821 128 l 1
 1820 132 1820 138 1820 143 c 0
 1820 213 1877 271 1948 271 c 0
 1955 271 1966 269 1973 268 c 0
 2022 260 2066 256 2105 256 c 0
 2203 256 2274 278 2320 307 c 0
 2385 347 2406 397 2406 438 c 0
 2407 479 2391 517 2332 548 c 0
 2322 554 2300 555 2287 559 c 1
 2225 544 2160 534 2089 534 c 0
 2040 534 1988 538 1933 549 c 0
 1876 560 1830 616 1830 674 c 0
 1830 728 1872 784 1924 798 c 0
 2006 820 2081 829 2151 829 c 0
 2194 829 2235 826 2274 820 c 1
 2288 826 2309 829 2321 836 c 0
 2385 876 2409 929 2410 974 c 0
 2411 1019 2395 1057 2338 1089 c 0
 2328 1094 2306 1096 2292 1100 c 1
 2230 1086 2164 1077 2092 1077 c 0
 2046 1077 1997 1081 1945 1089 c 0
 1885 1098 1837 1155 1837 1215 c 0
 1837 1269 1879 1324 1931 1339 c 0
 2013 1362 2087 1371 2157 1371 c 0
 2200 1371 2242 1367 2282 1361 c 1
 2301 1368 2327 1372 2341 1381 c 0
 2406 1419 2424 1464 2424 1503 c 0
 2423 1541 2406 1582 2344 1617 c 0
 2317 1631 2280 1643 2234 1650 c 1
 2174 1634 2112 1625 2048 1625 c 0
 1649 1625 1323 1951 1323 2350 c 0
 1323 2749 1649 3075 2048 3075 c 0
2048 2819 m 0
 1787 2819 1579 2611 1579 2350 c 0
 1579 2120 1742 1930 1960 1889 c 1
 2050 1908 2134 1914 2211 1910 c 1
 2390 1976 2517 2147 2517 2350 c 0
 2517 2611 2309 2819 2048 2819 c 0
EndSplineSet
Validated: 1
EndChar

StartChar: uF0027
Encoding: 983079 983079 42
Width: 4096
Flags: W
LayerCount: 2
Fore
SplineSet
2176 2175 m 2
 2176 130 l 1
 2176 128 l 1
 4096 128 l 1
 4096 -128 l 1
 0 -128 l 1
 0 128 l 1
 1920 128 l 1
 1920 130 l 1
 1920 2175 l 2
 1920 2340 2176 2341 2176 2175 c 2
EndSplineSet
Validated: 1
EndChar

StartChar: uF0028
Encoding: 983080 983080 43
Width: 4096
Flags: W
LayerCount: 2
Fore
SplineSet
2049 2525 m 2
 2053 2525 l 2
 2123 2525 2181 2468 2181 2397 c 0
 2181 2368 2163 2327 2142 2306 c 0
 2068 2232 2077 2217 2078 2213 c 0
 2079 2209 2102 2175 2148 2127 c 0
 2195 2079 2265 2013 2283 1902 c 0
 2286 1887 2287 1871 2287 1855 c 0
 2287 1758 2237 1656 2146 1554 c 0
 2137 1543 2118 1528 2104 1522 c 1
 2060 1473 2064 1459 2065 1455 c 0
 2066 1451 2088 1418 2135 1370 c 0
 2181 1321 2251 1255 2270 1144 c 0
 2272 1129 2274 1114 2274 1099 c 0
 2274 995 2207 883 2124 787 c 1
 2062 723 2068 707 2069 703 c 0
 2070 699 2093 666 2139 618 c 0
 2186 570 2256 503 2274 392 c 0
 2277 377 2278 361 2278 346 c 0
 2278 275 2252 202 2203 128 c 1
 4096 128 l 1
 4096 -128 l 1
 0 -128 l 1
 0 128 l 1
 1913 128 l 1
 1913 156 1928 195 1947 216 c 0
 2026 303 2024 336 2022 350 c 0
 2019 364 1999 394 1955 439 c 0
 1911 485 1842 542 1819 649 c 0
 1815 666 1814 683 1814 700 c 0
 1814 787 1860 879 1940 964 c 0
 1940 965 1941 965 1941 966 c 1
 1942 966 1942 967 1943 968 c 0
 2021 1055 2020 1088 2017 1102 c 0
 2015 1116 1995 1146 1951 1191 c 0
 1907 1237 1838 1294 1815 1401 c 0
 1811 1418 1809 1436 1809 1454 c 0
 1809 1546 1860 1642 1947 1729 c 0
 1955 1737 1969 1747 1978 1753 c 0
 2031 1818 2033 1847 2031 1859 c 0
 2028 1874 2008 1904 1965 1949 c 0
 1921 1994 1851 2051 1828 2158 c 0
 1824 2175 1823 2192 1823 2209 c 0
 1823 2302 1873 2399 1961 2487 c 0
 1981 2507 2020 2525 2049 2525 c 2
EndSplineSet
Validated: 1
EndChar

StartChar: uF0029
Encoding: 983081 983081 44
Width: 4096
Flags: W
LayerCount: 2
Fore
SplineSet
1991 2453 m 0
 2005 2453 2019 2452 2033 2451 c 1
 2033 2452 l 1
 2122 2447 2200 2425 2267 2389 c 0
 2397 2317 2472 2184 2472 2051 c 2
 2472 2043 l 2
 2469 1946 2418 1857 2347 1781 c 1
 2428 1707 2476 1607 2476 1504 c 0
 2477 1425 2443 1352 2391 1287 c 0
 2377 1267 2361 1248 2343 1230 c 1
 2414 1157 2463 1069 2463 973 c 2
 2463 967 l 2
 2460 866 2406 775 2331 698 c 1
 2405 625 2459 537 2459 439 c 2
 2459 436 l 2
 2458 321 2402 208 2305 128 c 1
 4096 128 l 1
 4096 -128 l 1
 0 -128 l 1
 0 128 l 1
 1621 128 l 1
 1620 132 1620 138 1620 142 c 0
 1620 213 1677 270 1748 270 c 0
 1754 270 1764 269 1770 268 c 0
 1819 260 1863 256 1902 256 c 0
 2000 256 2070 278 2116 307 c 0
 2181 347 2203 397 2203 438 c 0
 2203 480 2187 517 2129 548 c 0
 2118 553 2097 555 2083 559 c 1
 2021 544 1956 534 1885 534 c 0
 1836 534 1785 538 1730 549 c 0
 1673 560 1626 616 1626 675 c 0
 1626 729 1668 784 1720 798 c 0
 1803 820 1878 829 1948 829 c 0
 1991 829 2032 826 2071 820 c 1
 2085 826 2106 829 2117 836 c 0
 2182 876 2206 929 2207 974 c 0
 2208 1019 2192 1057 2135 1089 c 0
 2126 1093 2110 1095 2097 1098 c 1
 2025 1080 1943 1073 1854 1078 c 0
 1843 1079 1831 1080 1819 1081 c 0
 1815 1081 1812 1081 1808 1082 c 0
 1787 1084 1765 1085 1742 1089 c 0
 1734 1090 1721 1094 1713 1097 c 0
 1665 1113 1626 1168 1626 1218 c 0
 1626 1289 1684 1346 1754 1346 c 2
 1761 1346 l 1
 1832 1363 1898 1370 1959 1370 c 0
 2001 1370 2040 1367 2078 1361 c 0
 2079 1362 2080 1362 2081 1362 c 0
 2097 1369 2113 1375 2126 1383 c 0
 2190 1423 2212 1473 2212 1514 c 0
 2212 1532 2208 1549 2200 1565 c 0
 2188 1583 2169 1601 2141 1617 c 0
 2130 1623 2115 1628 2101 1633 c 0
 2098 1634 2095 1634 2092 1635 c 0
 2030 1620 1965 1610 1894 1610 c 0
 1845 1610 1794 1614 1739 1625 c 0
 1682 1636 1636 1692 1636 1750 c 0
 1636 1782 1655 1825 1678 1846 c 0
 1694 1864 1725 1882 1748 1887 c 0
 1823 1904 1895 1912 1961 1912 c 0
 1987 1912 2013 1911 2037 1908 c 0
 2056 1906 2074 1904 2093 1900 c 1
 2105 1904 2118 1907 2126 1912 c 0
 2191 1952 2215 2005 2216 2050 c 0
 2217 2094 2201 2133 2144 2164 c 0
 2112 2182 2062 2196 1994 2196 c 0
 1942 2196 1879 2188 1805 2168 c 0
 1795 2165 1779 2163 1769 2163 c 0
 1698 2163 1641 2220 1641 2291 c 0
 1641 2345 1684 2401 1737 2415 c 0
 1818 2437 1894 2449 1965 2452 c 0
 1973 2452 1982 2453 1991 2453 c 0
EndSplineSet
Validated: 1
EndChar

StartChar: uF002A
Encoding: 983082 983082 45
Width: 4096
Flags: W
LayerCount: 2
Fore
SplineSet
2728 3160 m 0
 2729 3161 2731 3161 2732 3161 c 0
 2803 3161 2860 3103 2860 3033 c 0
 2860 3003 2843 2961 2821 2941 c 2
 2229 2348 l 1
 2821 1756 l 2
 2843 1735 2861 1694 2861 1664 c 0
 2861 1593 2803 1536 2732 1536 c 0
 2702 1536 2661 1554 2640 1575 c 2
 2176 2039 l 1
 2176 130 l 1
 2176 128 l 1
 4096 128 l 1
 4096 -128 l 1
 0 -128 l 1
 0 128 l 1
 1920 128 l 1
 1920 130 l 1
 1920 2039 l 1
 1456 1575 l 2
 1435 1554 1394 1536 1364 1536 c 0
 1293 1536 1235 1593 1235 1664 c 0
 1235 1694 1253 1735 1275 1756 c 2
 1867 2348 l 1
 1275 2941 l 2
 1253 2961 1236 3003 1236 3032 c 0
 1236 3103 1293 3160 1364 3160 c 0
 1394 3160 1435 3143 1456 3122 c 2
 2048 2529 l 1
 2640 3122 l 2
 2660 3142 2700 3160 2728 3160 c 0
EndSplineSet
Validated: 1
EndChar

StartChar: uF002B
Encoding: 983083 983083 46
Width: 4096
Flags: W
LayerCount: 2
Fore
SplineSet
2860 3053 m 0
 2860 3024 2843 2982 2821 2962 c 2
 2229 2369 l 1
 2821 1777 l 2
 2843 1756 2861 1715 2861 1685 c 0
 2861 1614 2803 1557 2732 1557 c 0
 2702 1557 2661 1575 2640 1596 c 2
 2298 1938 l 1
 2302 1927 2305 1915 2307 1902 c 0
 2309 1887 2311 1872 2311 1856 c 0
 2311 1759 2262 1656 2170 1554 c 0
 2160 1542 2141 1528 2127 1521 c 1
 2084 1473 2087 1459 2088 1455 c 0
 2089 1451 2112 1418 2158 1370 c 0
 2205 1322 2275 1255 2293 1144 c 0
 2296 1129 2297 1113 2297 1098 c 0
 2297 1007 2253 912 2173 816 c 0
 2169 810 2161 801 2156 796 c 0
 2082 722 2092 708 2092 703 c 0
 2093 699 2116 666 2163 618 c 0
 2209 570 2279 503 2298 392 c 0
 2300 377 2302 362 2302 347 c 0
 2302 276 2275 202 2226 128 c 1
 4096 128 l 1
 4096 -128 l 1
 0 -128 l 1
 0 128 l 1
 1936 128 l 1
 1936 156 1952 195 1971 216 c 0
 2049 303 2048 336 2045 350 c 0
 2043 364 2023 394 1979 440 c 0
 1935 485 1866 542 1842 649 c 0
 1838 666 1837 683 1837 700 c 0
 1837 787 1883 879 1963 964 c 0
 1964 965 1965 967 1966 968 c 0
 2045 1055 2043 1088 2041 1102 c 0
 2038 1116 2018 1146 1974 1192 c 0
 1930 1237 1861 1294 1838 1401 c 0
 1834 1418 1833 1435 1833 1452 c 0
 1833 1544 1883 1641 1971 1729 c 0
 1978 1737 1992 1747 2002 1753 c 1
 2054 1818 2056 1847 2054 1859 c 0
 2052 1873 2032 1904 1988 1949 c 0
 1963 1974 1931 2005 1904 2044 c 1
 1456 1596 l 2
 1435 1575 1394 1557 1364 1557 c 0
 1293 1557 1235 1614 1235 1685 c 0
 1235 1715 1253 1756 1275 1777 c 2
 1867 2369 l 1
 1275 2962 l 2
 1253 2982 1236 3024 1236 3053 c 0
 1236 3166 1377 3222 1456 3143 c 2
 2048 2550 l 1
 2640 3143 l 2
 2719 3222 2860 3166 2860 3053 c 0
EndSplineSet
Validated: 1
EndChar

StartChar: uF002C
Encoding: 983084 983084 47
Width: 4096
Flags: W
LayerCount: 2
Fore
SplineSet
1364 3190 m 0
 1394 3190 1435 3172 1456 3151 c 2
 2048 2559 l 1
 2640 3151 l 2
 2660 3171 2700 3189 2728 3189 c 2
 2732 3189 l 2
 2803 3189 2860 3132 2860 3061 c 0
 2860 3032 2843 2991 2821 2970 c 2
 2229 2378 l 1
 2246 2360 l 1
 2344 2310 2421 2232 2466 2140 c 1
 2821 1785 l 2
 2843 1765 2861 1723 2861 1693 c 0
 2861 1622 2803 1565 2732 1565 c 0
 2702 1565 2661 1583 2640 1604 c 2
 2461 1784 l 1
 2457 1778 2453 1772 2449 1767 c 1
 2521 1694 2563 1600 2564 1504 c 0
 2564 1437 2539 1375 2500 1318 c 0
 2493 1308 2488 1298 2480 1289 c 0
 2466 1268 2449 1248 2430 1230 c 1
 2501 1157 2550 1070 2550 975 c 2
 2550 967 l 2
 2548 866 2494 775 2419 697 c 1
 2493 625 2547 537 2547 439 c 2
 2547 436 l 2
 2546 321 2490 208 2393 128 c 1
 4096 128 l 1
 4096 -128 l 1
 0 -128 l 1
 0 128 l 1
 1705 128 l 1
 1705 132 1704 139 1704 143 c 0
 1704 213 1762 271 1832 271 c 0
 1839 271 1850 269 1857 268 c 0
 1906 260 1950 256 1990 256 c 0
 2088 256 2158 278 2204 307 c 0
 2269 347 2291 397 2291 438 c 0
 2291 479 2275 517 2216 548 c 0
 2206 554 2185 555 2171 559 c 1
 2109 544 2044 534 1973 534 c 0
 1924 534 1873 538 1818 549 c 0
 1760 560 1713 616 1713 674 c 0
 1713 728 1756 784 1808 798 c 0
 1891 820 1966 829 2035 829 c 0
 2078 829 2119 826 2159 820 c 1
 2173 826 2194 829 2205 836 c 0
 2270 876 2293 929 2294 973 c 0
 2296 1018 2279 1057 2222 1088 c 0
 2214 1093 2198 1095 2185 1097 c 1
 2111 1079 2026 1072 1935 1078 c 0
 1928 1079 1921 1079 1914 1080 c 0
 1904 1080 1894 1082 1884 1083 c 0
 1866 1085 1848 1086 1829 1089 c 0
 1823 1090 1812 1093 1806 1095 c 0
 1755 1110 1714 1165 1714 1218 c 0
 1714 1289 1771 1346 1842 1346 c 2
 1848 1346 l 1
 1919 1363 1985 1370 2046 1370 c 0
 2088 1370 2127 1367 2165 1361 c 0
 2167 1362 2170 1362 2172 1363 c 0
 2187 1369 2202 1375 2213 1382 c 0
 2278 1422 2300 1472 2300 1513 c 0
 2300 1532 2296 1549 2288 1565 c 0
 2275 1583 2257 1601 2228 1616 c 0
 2223 1619 2215 1622 2209 1625 c 1
 2153 1612 2092 1604 2024 1604 c 0
 1965 1604 1900 1610 1827 1624 c 0
 1769 1635 1723 1692 1723 1750 c 0
 1723 1774 1735 1810 1750 1829 c 0
 1766 1855 1805 1882 1836 1887 c 0
 1911 1904 1983 1912 2049 1912 c 0
 2075 1912 2100 1911 2124 1908 c 0
 2158 1905 2190 1899 2220 1891 c 1
 2249 1907 2256 1921 2257 1946 c 0
 2258 1961 2253 1981 2243 2002 c 1
 2103 2142 l 1
 2082 2152 2060 2161 2036 2165 c 0
 2032 2165 2024 2167 2020 2168 c 2
 1456 1604 l 2
 1435 1583 1394 1565 1364 1565 c 0
 1293 1565 1235 1622 1235 1693 c 0
 1235 1723 1253 1765 1275 1785 c 2
 1867 2378 l 1
 1275 2970 l 2
 1253 2991 1236 3032 1236 3062 c 0
 1236 3132 1293 3190 1364 3190 c 0
EndSplineSet
Validated: 1
EndChar

StartChar: uF002D
Encoding: 983085 983085 48
Width: 4096
Flags: W
LayerCount: 2
Fore
SplineSet
1469 2994 m 2
 2627 2994 l 2
 2697 2994 2755 2936 2755 2866 c 2
 2755 1849 l 2
 2754 1814 2731 1768 2702 1746 c 2
 2169 1354 l 1
 2169 130 l 1
 2169 128 l 1
 4096 128 l 1
 4096 -128 l 1
 0 -128 l 1
 0 128 l 1
 1913 128 l 1
 1913 130 l 1
 1913 1362 l 1
 1391 1768 l 2
 1364 1789 1341 1834 1341 1869 c 2
 1341 2866 l 2
 1341 2937 1399 2994 1469 2994 c 2
1597 2738 m 1
 1597 1932 l 1
 2041 1587 l 1
 2042 1587 l 1
 2053 1587 l 1
 2499 1914 l 1
 2499 2738 l 1
 1597 2738 l 1
EndSplineSet
Validated: 1
EndChar

StartChar: uF002E
Encoding: 983086 983086 49
Width: 4096
Flags: W
LayerCount: 2
Fore
SplineSet
1470 3026 m 1
 1470 3025 l 1
 2626 3025 l 2
 2697 3025 2754 2968 2754 2897 c 2
 2754 1881 l 2
 2754 1845 2731 1799 2702 1778 c 2
 2121 1350 l 2
 2113 1344 2101 1337 2092 1334 c 1
 2103 1321 2120 1302 2149 1275 c 0
 2198 1231 2271 1171 2291 1061 c 0
 2302 1007 2293 950 2268 894 c 0
 2262 880 2255 866 2247 852 c 0
 2225 815 2195 777 2160 741 c 2
 2160 741 2160 740 2159 740 c 0
 2158 738 2155 735 2153 733 c 2
 2152 733 l 2
 2151 731 2149 729 2148 728 c 2
 2144 724 l 1
 2143 724 l 1
 2085 656 l 2
 2086 657 2108 626 2154 583 c 0
 2202 539 2275 479 2296 370 c 0
 2311 291 2286 208 2231 128 c 1
 4096 128 l 1
 4096 -128 l 1
 0 -128 l 1
 0 128 l 1
 1940 128 l 1
 1941 156 1957 194 1977 213 c 0
 2058 293 2052 318 2051 323 c 0
 2050 329 2031 358 1985 400 c 0
 1940 441 1868 491 1842 597 c 0
 1829 650 1837 714 1863 767 c 0
 1885 813 1920 853 1963 894 c 1
 1963 895 l 2
 1965 898 1969 902 1972 905 c 0
 2053 985 2047 1010 2046 1015 c 0
 2045 1020 2026 1050 1981 1091 c 0
 1935 1133 1864 1183 1838 1289 c 0
 1826 1336 1832 1392 1851 1441 c 1
 1391 1799 l 2
 1364 1820 1342 1866 1342 1900 c 2
 1342 2898 l 2
 1342 2968 1399 3026 1470 3026 c 1
1598 2770 m 1
 1598 1963 l 1
 2023 1632 l 1
 2042 1638 2057 1637 2078 1637 c 1
 2498 1946 l 1
 2498 2770 l 1
 1598 2770 l 1
EndSplineSet
Validated: 1
EndChar

StartChar: uF002F
Encoding: 983087 983087 50
Width: 4096
Flags: W
LayerCount: 2
Fore
SplineSet
2626 3069 m 2
 2697 3069 2754 3012 2754 2941 c 2
 2754 1925 l 2
 2754 1889 2731 1843 2702 1822 c 2
 2440 1628 l 1
 2469 1620 2497 1611 2523 1599 c 0
 2653 1539 2742 1421 2742 1291 c 0
 2743 1206 2697 1132 2634 1068 c 1
 2691 1004 2731 931 2729 850 c 0
 2726 765 2681 691 2620 626 c 1
 2681 562 2726 487 2725 402 c 0
 2724 298 2673 200 2587 128 c 1
 4096 128 l 1
 4096 -128 l 1
 0 -128 l 1
 0 128 l 1
 1883 128 l 1
 1883 132 1882 139 1882 144 c 0
 1882 215 1940 272 2010 272 c 0
 2017 272 2029 271 2036 269 c 0
 2089 260 2136 256 2178 256 c 0
 2274 256 2343 276 2388 301 c 0
 2453 336 2469 377 2469 404 c 0
 2470 432 2460 460 2401 487 c 0
 2396 489 2384 489 2378 491 c 0
 2312 474 2242 463 2163 463 c 0
 2111 463 2056 468 1996 479 c 0
 1939 491 1893 547 1893 605 c 0
 1893 659 1935 714 1987 728 c 0
 2074 752 2152 762 2224 762 c 0
 2275 762 2322 757 2368 749 c 0
 2374 752 2385 754 2391 756 c 0
 2456 791 2472 831 2473 857 c 0
 2474 883 2467 908 2410 934 c 0
 2405 937 2395 937 2390 938 c 0
 2323 922 2251 911 2170 911 c 0
 2120 911 2066 915 2008 925 c 0
 1948 934 1900 991 1900 1051 c 0
 1900 1105 1942 1160 1994 1174 c 0
 2082 1199 2161 1209 2234 1209 c 0
 2285 1209 2332 1204 2378 1196 c 1
 2387 1200 2404 1201 2412 1206 c 0
 2477 1239 2486 1271 2486 1290 c 0
 2486 1309 2478 1338 2415 1367 c 0
 2379 1384 2323 1396 2248 1396 c 0
 2205 1396 2156 1392 2101 1382 c 1
 2086 1374 2061 1369 2044 1369 c 0
 2020 1369 1985 1380 1966 1395 c 2
 1391 1843 l 2
 1364 1864 1342 1909 1342 1944 c 2
 1342 2941 l 2
 1342 3012 1399 3069 1470 3069 c 2
 2626 3069 l 2
1598 2813 m 1
 1598 2006 l 1
 2047 1657 l 1
 2498 1989 l 1
 2498 2813 l 1
 1598 2813 l 1
EndSplineSet
Validated: 1
EndChar

StartChar: uF0030
Encoding: 983088 983088 51
Width: 4096
Flags: W
LayerCount: 2
Fore
SplineSet
1213 -2804 m 2
 1211 -2804 l 2
 999 -2804 825 -2630 825 -2418 c 0
 825 -2205 999 -2032 1211 -2032 c 0
 1263 -2032 1307 -2050 1351 -2068 c 1
 1877 -1764 l 1
 1866 -1714 1854 -1663 1854 -1610 c 0
 1854 -1299 2058 -1041 2337 -946 c 1
 2337 -128 l 1
 0 -128 l 1
 0 128 l 1
 4096 128 l 1
 4096 -128 l 1
 2788 -128 l 1
 2788 -947 l 1
 3067 -1041 3271 -1300 3271 -1610 c 0
 3271 -2001 2953 -2319 2563 -2319 c 0
 2391 -2319 2237 -2250 2114 -2148 c 1
 1591 -2450 l 1
 1574 -2647 1415 -2804 1213 -2804 c 2
1468 -2412 m 1
 1467 -2373 l 1
 2125 -1993 l 1
 2160 -2027 l 2
 2265 -2128 2406 -2190 2563 -2190 c 0
 2884 -2190 3142 -1931 3142 -1610 c 0
 3142 -1340 2958 -1114 2708 -1050 c 2
 2659 -1037 l 1
 2659 -128 l 1
 2466 -128 l 1
 2466 -1037 l 1
 2418 -1049 l 2
 2168 -1114 1983 -1339 1983 -1610 c 0
 1983 -1669 1992 -1726 2009 -1779 c 2
 2023 -1828 l 1
 1364 -2209 l 1
 1332 -2192 l 2
 1295 -2172 1255 -2160 1211 -2160 c 0
 1068 -2160 954 -2275 954 -2418 c 0
 954 -2584 1083 -2668 1212 -2668 c 0
 1346 -2668 1468 -2581 1468 -2412 c 1
EndSplineSet
Validated: 1
EndChar

StartChar: uF0031
Encoding: 983089 983089 52
Width: 4096
Flags: W
LayerCount: 2
Fore
SplineSet
3519 1101 m 2
 3590 1101 3647 1043 3647 973 c 2
 3647 128 l 1
 4096 128 l 1
 4096 -128 l 1
 3647 -128 l 1
 3647 -973 l 2
 3647 -1043 3590 -1101 3519 -1101 c 2
 1505 -1101 l 2
 1474 -1101 1433 -1083 1412 -1061 c 2
 522 -128 l 1
 0 -128 l 1
 0 128 l 1
 522 128 l 1
 1412 1061 l 2
 1433 1083 1474 1101 1505 1101 c 2
 3519 1101 l 2
3392 845 m 1
 1559 845 l 1
 753 0 l 1
 1559 -845 l 1
 3392 -845 l 1
 3392 845 l 1
EndSplineSet
Validated: 1
EndChar

StartChar: uF0032
Encoding: 983090 983090 53
Width: 4096
Flags: W
LayerCount: 2
Fore
SplineSet
1505 1101 m 0
 1575 1101 1632 1044 1633 974 c 2
 1636 595 l 1
 3520 604 l 2
 3590 604 3647 546 3647 476 c 2
 3647 128 l 1
 4096 128 l 1
 4096 -128 l 1
 3647 -128 l 1
 3647 -543 l 2
 3647 -614 3590 -671 3520 -671 c 2
 3519 -671 l 1
 1642 -667 l 1
 1632 -977 l 2
 1630 -1045 1573 -1101 1505 -1101 c 0
 1474 -1101 1433 -1083 1412 -1061 c 2
 522 -128 l 1
 0 -128 l 1
 0 128 l 1
 522 128 l 1
 1412 1061 l 2
 1433 1083 1475 1101 1505 1101 c 0
753 0 m 1
 1387 -664 l 1
 1391 -535 l 2
 1393 -467 1450 -411 1518 -411 c 2
 1519 -411 l 1
 3392 -415 l 1
 3392 347 l 1
 1510 339 l 1
 1509 339 l 2
 1439 339 1382 396 1382 465 c 2
 1380 657 l 1
 753 0 l 1
EndSplineSet
Validated: 1
EndChar

StartChar: uF0033
Encoding: 983091 983091 54
Width: 4096
Flags: W
LayerCount: 2
Fore
SplineSet
256 -128 m 1
 384 -384 l 1
 179 -486 l 1
 0 -128 l 1
 256 -128 l 1
486 -589 m 1
 794 -1203 l 1
 589 -1306 l 1
 282 -691 l 1
 486 -589 l 1
896 -1408 m 1
 1203 -2022 l 1
 998 -2125 l 1
 691 -1510 l 1
 896 -1408 l 1
1306 -2227 m 1
 1613 -2842 l 1
 1408 -2944 l 1
 1101 -2330 l 1
 1306 -2227 l 1
1715 -3046 m 1
 2022 -3661 l 1
 1818 -3763 l 1
 1510 -3149 l 1
 1715 -3046 l 1
2125 -3866 m 1
 2432 -4480 l 1
 2227 -4582 l 1
 1920 -3968 l 1
 2125 -3866 l 1
2534 -4685 m 1
 2842 -5299 l 1
 2637 -5402 l 1
 2330 -4787 l 1
 2534 -4685 l 1
2944 -5504 m 1
 3251 -6118 l 1
 3046 -6221 l 1
 2739 -5606 l 1
 2944 -5504 l 1
3354 -6323 m 1
 3661 -6938 l 1
 3456 -7040 l 1
 3149 -6426 l 1
 3354 -6323 l 1
3763 -7142 m 1
 4070 -7757 l 1
 3866 -7859 l 1
 3558 -7245 l 1
 3763 -7142 l 1
4173 -7962 m 1
 4352 -8320 l 1
 4096 -8320 l 1
 3968 -8064 l 1
 4173 -7962 l 1
EndSplineSet
Validated: 1
EndChar

StartChar: uF0034
Encoding: 983092 983092 55
Width: 4096
Flags: W
LayerCount: 2
Fore
SplineSet
169 -486 m 1
 0 -128 l 1
 0 128 l 1
 4096 128 l 1
 4096 -128 l 1
 246 -128 l 1
 374 -384 l 1
 169 -486 l 1
4096 -8320 m 1
 3958 -8064 l 1
 4163 -7962 l 1
 4352 -8320 l 1
 4096 -8320 l 1
3856 -7859 m 1
 3548 -7245 l 1
 3753 -7142 l 1
 4060 -7757 l 1
 3856 -7859 l 1
3446 -7040 m 1
 3139 -6426 l 1
 3344 -6323 l 1
 3651 -6938 l 1
 3446 -7040 l 1
3036 -6221 m 1
 2729 -5606 l 1
 2934 -5504 l 1
 3241 -6118 l 1
 3036 -6221 l 1
2627 -5402 m 1
 2320 -4787 l 1
 2524 -4685 l 1
 2832 -5299 l 1
 2627 -5402 l 1
2217 -4582 m 1
 1910 -3968 l 1
 2115 -3866 l 1
 2422 -4480 l 1
 2217 -4582 l 1
1808 -3763 m 1
 1500 -3149 l 1
 1705 -3046 l 1
 2012 -3661 l 1
 1808 -3763 l 1
1398 -2944 m 1
 1091 -2330 l 1
 1296 -2227 l 1
 1603 -2842 l 1
 1398 -2944 l 1
988 -2125 m 1
 681 -1510 l 1
 886 -1408 l 1
 1193 -2022 l 1
 988 -2125 l 1
579 -1306 m 1
 272 -691 l 1
 476 -589 l 1
 784 -1203 l 1
 579 -1306 l 1
EndSplineSet
Validated: 1
EndChar

StartChar: uF0035
Encoding: 983093 983093 56
Width: 4096
Flags: W
LayerCount: 2
Fore
SplineSet
3927 -486 m 1
 3722 -384 l 1
 3850 -128 l 1
 0 -128 l 1
 0 128 l 1
 4096 128 l 1
 4096 -128 l 1
 3927 -486 l 1
0 -8320 m 1
 -256 -8320 l 1
 -67 -7962 l 1
 138 -8064 l 1
 0 -8320 l 1
240 -7859 m 1
 36 -7757 l 1
 343 -7142 l 1
 548 -7245 l 1
 240 -7859 l 1
650 -7040 m 1
 445 -6938 l 1
 752 -6323 l 1
 957 -6426 l 1
 650 -7040 l 1
1060 -6221 m 1
 855 -6118 l 1
 1162 -5504 l 1
 1367 -5606 l 1
 1060 -6221 l 1
1469 -5402 m 1
 1264 -5299 l 1
 1572 -4685 l 1
 1776 -4787 l 1
 1469 -5402 l 1
1879 -4582 m 1
 1674 -4480 l 1
 1981 -3866 l 1
 2186 -3968 l 1
 1879 -4582 l 1
2288 -3763 m 1
 2084 -3661 l 1
 2391 -3046 l 1
 2596 -3149 l 1
 2288 -3763 l 1
2698 -2944 m 1
 2493 -2842 l 1
 2800 -2227 l 1
 3005 -2330 l 1
 2698 -2944 l 1
3108 -2125 m 1
 2903 -2022 l 1
 3210 -1408 l 1
 3415 -1510 l 1
 3108 -2125 l 1
3517 -1306 m 1
 3312 -1203 l 1
 3620 -589 l 1
 3824 -691 l 1
 3517 -1306 l 1
EndSplineSet
Validated: 1
EndChar

StartChar: uF0036
Encoding: 983094 983094 57
Width: 4096
Flags: W
LayerCount: 2
Fore
SplineSet
3840 -128 m 1
 4096 -128 l 1
 3917 -486 l 1
 3712 -384 l 1
 3840 -128 l 1
3610 -589 m 1
 3814 -691 l 1
 3507 -1306 l 1
 3302 -1203 l 1
 3610 -589 l 1
3200 -1408 m 1
 3405 -1510 l 1
 3098 -2125 l 1
 2893 -2022 l 1
 3200 -1408 l 1
2790 -2227 m 1
 2995 -2330 l 1
 2688 -2944 l 1
 2483 -2842 l 1
 2790 -2227 l 1
2381 -3046 m 1
 2586 -3149 l 1
 2278 -3763 l 1
 2074 -3661 l 1
 2381 -3046 l 1
1971 -3866 m 1
 2176 -3968 l 1
 1869 -4582 l 1
 1664 -4480 l 1
 1971 -3866 l 1
1562 -4685 m 1
 1766 -4787 l 1
 1459 -5402 l 1
 1254 -5299 l 1
 1562 -4685 l 1
1152 -5504 m 1
 1357 -5606 l 1
 1050 -6221 l 1
 845 -6118 l 1
 1152 -5504 l 1
742 -6323 m 1
 947 -6426 l 1
 640 -7040 l 1
 435 -6938 l 1
 742 -6323 l 1
333 -7142 m 1
 538 -7245 l 1
 230 -7859 l 1
 26 -7757 l 1
 333 -7142 l 1
-77 -7962 m 1
 128 -8064 l 1
 0 -8320 l 1
 -256 -8320 l 1
 -77 -7962 l 1
EndSplineSet
Validated: 1
EndChar

StartChar: uF0037
Encoding: 983095 983095 58
Width: 4096
Flags: W
LayerCount: 2
Fore
SplineSet
341 -2091 m 2
 271 -2091 213 -2033 213 -1963 c 2
 213 -256 l 2
 213 -185 271 -128 341 -128 c 2
 0 -128 l 1
 0 128 l 1
 4096 128 l 1
 4096 -128 l 1
 3755 -128 l 2
 3825 -128 3883 -185 3883 -256 c 2
 3883 -1963 l 2
 3883 -2033 3825 -2091 3755 -2091 c 2
 341 -2091 l 2
469 -1835 m 1
 3627 -1835 l 1
 3627 -384 l 1
 469 -384 l 1
 469 -1835 l 1
EndSplineSet
Validated: 1
EndChar

StartChar: uF0038
Encoding: 983096 983096 59
Width: 4096
Flags: W
LayerCount: 2
Fore
SplineSet
130 -470 m 1
 128 -470 l 2
 57 -470 0 -412 0 -342 c 0
 0 -271 57 -214 128 -214 c 2
 130 -214 l 1
 2690 -214 l 1
 2692 -214 l 2
 2762 -214 2820 -271 2820 -342 c 0
 2820 -412 2762 -470 2692 -470 c 2
 2690 -470 l 1
 130 -470 l 1
130 213 m 1
 128 213 l 2
 57 213 0 270 0 341 c 0
 0 412 57 469 128 469 c 2
 130 469 l 1
 1410 469 l 1
 1412 469 l 2
 1482 469 1540 412 1540 341 c 0
 1540 270 1482 213 1412 213 c 2
 1410 213 l 1
 130 213 l 1
EndSplineSet
Validated: 1
EndChar

StartChar: uF0039
Encoding: 983097 983097 60
Width: 4096
Flags: W
LayerCount: 2
Fore
SplineSet
3966 -470 m 1
 1406 -470 l 1
 1404 -470 l 2
 1334 -470 1276 -412 1276 -342 c 0
 1276 -271 1334 -214 1404 -214 c 2
 1406 -214 l 1
 3966 -214 l 1
 3968 -214 l 2
 4039 -214 4096 -271 4096 -342 c 0
 4096 -412 4039 -470 3968 -470 c 2
 3966 -470 l 1
3966 213 m 1
 2686 213 l 1
 2684 213 l 2
 2614 213 2556 270 2556 341 c 0
 2556 412 2614 469 2684 469 c 2
 2686 469 l 1
 3966 469 l 1
 3968 469 l 2
 4039 469 4096 412 4096 341 c 0
 4096 270 4039 213 3968 213 c 2
 3966 213 l 1
EndSplineSet
Validated: 1
EndChar

StartChar: uF003A
Encoding: 983098 983098 61
Width: 4096
Flags: W
LayerCount: 2
Fore
SplineSet
768 -2944 m 2
 697 -2944 640 -2887 640 -2816 c 2
 640 -256 l 2
 640 -185 697 -128 768 -128 c 2
 0 -128 l 1
 0 128 l 1
 4096 128 l 1
 4096 -128 l 1
 3328 -128 l 2
 3399 -128 3456 -185 3456 -256 c 2
 3456 -2816 l 2
 3456 -2887 3399 -2944 3328 -2944 c 2
 768 -2944 l 2
896 -2688 m 1
 3200 -2688 l 1
 3200 -384 l 1
 896 -384 l 1
 896 -2688 l 1
1365 -2347 m 2
 1295 -2347 1237 -2289 1237 -2219 c 2
 1237 -853 l 2
 1237 -783 1295 -725 1365 -725 c 2
 2731 -725 l 2
 2801 -725 2859 -783 2859 -853 c 2
 2859 -2219 l 2
 2859 -2289 2801 -2347 2731 -2347 c 2
 1365 -2347 l 2
1493 -2091 m 1
 2603 -2091 l 1
 2603 -981 l 1
 1493 -981 l 1
 1493 -2091 l 1
EndSplineSet
Validated: 1
EndChar

StartChar: uF003B
Encoding: 983099 983099 62
Width: 4096
Flags: W
LayerCount: 2
Fore
SplineSet
1364 -1950 m 1
 1364 -384 l 1
 1779 -384 l 1
 1779 -568 l 1
 1586 -568 l 1
 1586 -1766 l 1
 1779 -1766 l 1
 1779 -1950 l 1
 1364 -1950 l 1
2317 -1950 m 1
 2317 -1767 l 1
 2510 -1767 l 1
 2510 -568 l 1
 2317 -568 l 1
 2317 -384 l 1
 2732 -384 l 1
 2732 -1950 l 1
 2317 -1950 l 1
0 -128 m 1
 0 128 l 1
 4096 128 l 1
 4096 -128 l 1
 0 -128 l 1
EndSplineSet
Validated: 1
EndChar

StartChar: uF003C
Encoding: 983100 983100 63
Width: 4096
Flags: W
LayerCount: 2
Fore
SplineSet
1172 -888 m 2
 1166 -888 1159 -888 1153 -887 c 0
 1085 -878 1032 -830 970 -753 c 0
 915 -683 848 -573 770 -437 c 1
 757 -429 745 -409 743 -394 c 0
 740 -387 738 -376 738 -369 c 0
 738 -362 740 -351 743 -345 c 2
 743 -128 l 1
 0 -128 l 1
 0 128 l 1
 4096 128 l 1
 4096 -128 l 1
 3358 -128 l 1
 3353 -581 l 2
 3353 -589 3350 -601 3347 -608 c 0
 3305 -691 3266 -755 3221 -801 c 0
 3176 -847 3119 -876 3060 -874 c 0
 3000 -871 2947 -840 2895 -794 c 0
 2843 -749 2791 -686 2731 -607 c 0
 2675 -530 2630 -478 2596 -450 c 0
 2563 -422 2549 -420 2539 -422 c 0
 2529 -423 2509 -434 2479 -469 c 0
 2449 -503 2413 -557 2367 -624 c 0
 2321 -694 2279 -749 2235 -790 c 0
 2191 -832 2142 -860 2087 -862 c 0
 2031 -864 1979 -838 1933 -797 c 0
 1887 -756 1843 -699 1794 -624 c 0
 1747 -552 1709 -500 1680 -470 c 0
 1651 -440 1636 -436 1628 -436 c 0
 1621 -436 1603 -443 1572 -474 c 0
 1541 -505 1501 -556 1451 -626 c 0
 1402 -695 1362 -757 1319 -805 c 0
 1282 -848 1235 -885 1178 -888 c 2
 1172 -888 l 2
1172 -768 m 0
 1184 -767 1199 -759 1228 -726 c 0
 1261 -689 1302 -627 1353 -556 c 0
 1404 -485 1445 -429 1486 -388 c 0
 1527 -347 1572 -317 1626 -315 c 0
 1680 -314 1726 -345 1766 -386 c 0
 1806 -427 1846 -484 1895 -558 c 0
 1941 -628 1981 -678 2014 -707 c 0
 2046 -736 2066 -743 2082 -742 c 0
 2099 -741 2121 -732 2153 -702 c 0
 2184 -672 2223 -623 2267 -557 c 0
 2312 -489 2350 -433 2388 -390 c 0
 2426 -346 2466 -311 2520 -302 c 0
 2575 -294 2628 -318 2674 -358 c 0
 2721 -398 2769 -455 2828 -535 c 0
 2885 -611 2934 -668 2975 -704 c 0
 3016 -740 3046 -752 3066 -753 c 0
 3085 -754 3104 -748 3134 -717 c 0
 3162 -688 3197 -634 3233 -563 c 1
 3237 -128 l 1
 863 -128 l 1
 863 -359 l 1
 946 -505 1014 -614 1064 -678 c 0
 1118 -746 1155 -766 1168 -767 c 0
 1169 -767 1170 -768 1172 -768 c 0
EndSplineSet
Validated: 1
EndChar

StartChar: uF003D
Encoding: 983101 983101 64
Width: 4096
Flags: W
LayerCount: 2
Fore
SplineSet
1193 -982 m 2
 1123 -981 1067 -924 1067 -854 c 2
 1067 -852 l 1
 1067 -128 l 1
 0 -128 l 1
 0 128 l 1
 1067 128 l 1
 1067 854 l 2
 1067 925 1124 982 1195 982 c 2
 2901 982 l 2
 2972 982 3029 925 3029 854 c 2
 3029 128 l 1
 4096 128 l 1
 4096 -128 l 1
 3029 -128 l 1
 3029 -852 l 1
 3029 -854 l 2
 3029 -925 2972 -982 2901 -982 c 0
 2831 -982 2773 -925 2773 -854 c 2
 2773 -852 l 1
 2773 726 l 1
 1323 726 l 1
 1323 -852 l 1
 1323 -854 l 2
 1323 -925 1265 -982 1195 -982 c 2
 1193 -982 l 2
EndSplineSet
Validated: 1
EndChar

StartChar: uF003E
Encoding: 983102 983102 65
Width: 4096
Flags: W
LayerCount: 2
Fore
SplineSet
659 -1352 m 1
 773 -928 l 1
 851 -1005 l 1
 1140 -716 l 1
 1009 -550 923 -348 898 -128 c 1
 0 -128 l 1
 0 128 l 1
 898 128 l 1
 962 705 1454 1157 2048 1157 c 0
 2642 1157 3134 705 3198 128 c 1
 4096 128 l 1
 4096 -128 l 1
 3198 -128 l 1
 3134 -705 2642 -1157 2048 -1157 c 0
 1760 -1157 1495 -1050 1292 -875 c 1
 1006 -1161 l 1
 1084 -1239 l 1
 659 -1352 l 1
2048 -900 m 0
 2546 -900 2948 -498 2948 0 c 0
 2948 498 2546 900 2048 900 c 0
 1550 900 1148 498 1148 0 c 0
 1148 -200 1213 -384 1322 -533 c 1
 1956 100 l 2
 1974 118 2008 132 2033 132 c 0
 2094 132 2144 83 2144 22 c 0
 2144 -3 2129 -38 2112 -56 c 2
 1474 -694 l 1
 1629 -822 1829 -900 2048 -900 c 0
EndSplineSet
Validated: 1
EndChar

StartChar: uF003F
Encoding: 983103 983103 66
Width: 4096
Flags: W
LayerCount: 2
Fore
SplineSet
2878 -868 m 1
 2720 -868 l 1
 2424 -128 l 1
 2419 -128 l 1
 2131 -868 l 1
 1973 -868 l 1
 1677 -128 l 1
 1672 -128 l 1
 1384 -868 l 1
 1226 -868 l 1
 930 -128 l 1
 0 -128 l 1
 0 128 l 1
 4096 128 l 1
 4096 -128 l 1
 3166 -128 l 1
 2878 -868 l 1
2801 -695 m 1
 2901 -421 l 1
 2699 -421 l 1
 2801 -695 l 1
2054 -695 m 1
 2154 -421 l 1
 1952 -421 l 1
 2054 -695 l 1
1307 -695 m 1
 1407 -421 l 1
 1205 -421 l 1
 1307 -695 l 1
2947 -296 m 1
 3008 -128 l 1
 2586 -128 l 1
 2651 -296 l 1
 2947 -296 l 1
2200 -296 m 1
 2261 -128 l 1
 1839 -128 l 1
 1904 -296 l 1
 2200 -296 l 1
1453 -296 m 1
 1514 -128 l 1
 1092 -128 l 1
 1157 -296 l 1
 1453 -296 l 1
EndSplineSet
Validated: 1
EndChar

StartChar: uF0040
Encoding: 983104 983104 67
Width: 4096
Flags: W
LayerCount: 2
Fore
SplineSet
4096 128 m 1
 4096 -128 l 1
 0 -128 l 1
 0 128 l 1
 4096 128 l 1
1789 -1494 m 2
 1767 -1494 1735 -1483 1718 -1470 c 2
 864 -873 l 2
 834 -852 810 -805 810 -768 c 0
 810 -697 867 -640 938 -640 c 2
 3156 -640 l 1
 3158 -640 l 2
 3229 -640 3286 -697 3286 -768 c 0
 3286 -839 3229 -896 3158 -896 c 2
 3156 -896 l 1
 1344 -896 l 1
 1864 -1260 l 2
 1896 -1281 1921 -1329 1921 -1366 c 0
 1921 -1437 1864 -1494 1793 -1494 c 2
 1789 -1494 l 2
EndSplineSet
Validated: 1
EndChar

StartChar: uF0041
Encoding: 983105 983105 68
Width: 4096
Flags: W
LayerCount: 2
Fore
SplineSet
1490 -3203 m 2
 1464 -3202 1428 -3187 1409 -3170 c 2
 683 -2530 l 2
 659 -2509 640 -2466 640 -2434 c 0
 640 -2402 660 -2358 684 -2337 c 2
 1410 -1711 l 2
 1430 -1693 1468 -1678 1496 -1678 c 0
 1566 -1678 1624 -1735 1624 -1806 c 0
 1624 -1840 1603 -1884 1577 -1905 c 2
 1112 -2306 l 1
 3200 -2306 l 1
 3200 -130 l 1
 3200 -128 l 1
 0 -128 l 1
 0 128 l 1
 4096 128 l 1
 4096 -128 l 1
 3456 -128 l 1
 3456 -130 l 1
 3456 -2434 l 2
 3456 -2504 3399 -2562 3328 -2562 c 2
 1107 -2562 l 1
 1578 -2978 l 2
 1603 -2999 1623 -3043 1623 -3075 c 0
 1623 -3146 1566 -3203 1495 -3203 c 2
 1490 -3203 l 2
EndSplineSet
Validated: 1
EndChar

StartChar: uF0042
Encoding: 983106 983106 69
Width: 4096
Flags: W
LayerCount: 2
Fore
SplineSet
2048 -1835 m 0
 1719 -1835 1405 -1715 1177 -1475 c 0
 949 -1235 811 -879 811 -427 c 2
 811 -128 l 1
 0 -128 l 1
 0 128 l 1
 939 128 l 1
 3157 128 l 1
 4096 128 l 1
 4096 -128 l 1
 3285 -128 l 1
 3285 -427 l 2
 3285 -879 3148 -1235 2920 -1475 c 0
 2691 -1715 2377 -1835 2048 -1835 c 0
2048 -1579 m 0
 2316 -1579 2557 -1485 2734 -1298 c 0
 2911 -1112 3029 -828 3029 -427 c 2
 3029 -128 l 1
 1067 -128 l 1
 1067 -427 l 2
 1067 -828 1185 -1112 1362 -1298 c 0
 1539 -1485 1780 -1579 2048 -1579 c 0
EndSplineSet
Validated: 1
EndChar

StartChar: uF0043
Encoding: 983107 983107 70
Width: 4096
Flags: W
LayerCount: 2
Fore
SplineSet
3755 -2517 m 2
 341 -2517 l 2
 271 -2517 213 -2460 213 -2389 c 2
 213 -256 l 2
 213 -185 271 -128 341 -128 c 2
 0 -128 l 1
 0 128 l 1
 4096 128 l 1
 4096 -128 l 1
 3755 -128 l 2
 3825 -128 3883 -185 3883 -256 c 2
 3883 -2389 l 2
 3883 -2460 3825 -2517 3755 -2517 c 2
3627 -2261 m 1
 3627 -384 l 1
 469 -384 l 1
 469 -2261 l 1
 3627 -2261 l 1
2473 -1921 m 2
 2403 -1921 2345 -1864 2345 -1793 c 0
 2345 -1763 2363 -1722 2384 -1701 c 2
 2720 -1365 l 1
 2384 -1029 l 2
 2363 -1008 2346 -968 2346 -938 c 0
 2346 -868 2404 -810 2474 -810 c 0
 2504 -810 2544 -827 2565 -848 c 2
 2901 -1184 l 1
 3237 -848 l 2
 3258 -827 3299 -811 3328 -811 c 0
 3398 -811 3456 -868 3456 -939 c 0
 3456 -968 3439 -1008 3418 -1029 c 2
 3082 -1365 l 1
 3418 -1701 l 2
 3440 -1722 3457 -1763 3457 -1793 c 0
 3457 -1906 3315 -1964 3237 -1882 c 2
 2901 -1546 l 1
 2565 -1882 l 2
 2545 -1903 2506 -1920 2477 -1921 c 2
 2473 -1921 l 2
2133 -896 m 1
 768 -896 l 1
 766 -896 l 2
 696 -896 638 -839 638 -768 c 0
 638 -697 696 -640 766 -640 c 2
 768 -640 l 1
 2133 -640 l 1
 2135 -640 l 2
 2206 -640 2263 -697 2263 -768 c 0
 2263 -839 2206 -896 2135 -896 c 2
 2133 -896 l 1
EndSplineSet
Validated: 1
EndChar

StartChar: uF0044
Encoding: 983108 983108 71
Width: 4096
Flags: W
LayerCount: 2
Fore
SplineSet
2902 -981 m 0
 2885 -981 2859 -975 2844 -968 c 2
 1164 -128 l 1
 0 -128 l 1
 0 128 l 1
 1164 128 l 1
 2844 968 l 2
 2859 975 2885 981 2901 981 c 0
 2972 981 3029 924 3029 853 c 2
 3029 128 l 1
 4096 128 l 1
 4096 -128 l 1
 3029 -128 l 1
 3029 -853 l 2
 3029 -923 2973 -981 2902 -981 c 0
2773 -646 m 1
 2773 646 l 1
 1481 0 l 1
 2773 -646 l 1
EndSplineSet
Validated: 1
EndChar

StartChar: uF0045
Encoding: 983109 983109 72
Width: 4096
Flags: W
LayerCount: 2
Fore
SplineSet
3328 -2391 m 1
 768 -2391 l 1
 766 -2391 l 2
 695 -2391 638 -2334 638 -2263 c 0
 638 -2193 695 -2135 766 -2135 c 2
 768 -2135 l 1
 1920 -2135 l 1
 1920 -130 l 1
 1920 -128 l 1
 0 -128 l 1
 0 128 l 1
 4096 128 l 1
 4096 -128 l 1
 2176 -128 l 1
 2176 -130 l 1
 2176 -2135 l 1
 3328 -2135 l 1
 3330 -2135 l 2
 3401 -2135 3458 -2193 3458 -2263 c 0
 3458 -2334 3401 -2391 3330 -2391 c 2
 3328 -2391 l 1
EndSplineSet
Validated: 1
EndChar

StartChar: uF0046
Encoding: 983110 983110 73
Width: 4096
Flags: W
LayerCount: 2
Fore
SplineSet
4096 -128 m 1
 0 -128 l 1
 0 128 l 1
 4096 128 l 1
 4096 -128 l 1
2048 -2549 m 1
 1645 -2146 1242 -1742 839 -1339 c 1
 2048 -130 l 1
 3257 -1339 l 1
 2854 -1742 2451 -2146 2048 -2549 c 1
2048 -2341 m 1
 2382 -2007 2716 -1673 3049 -1339 c 1
 2048 -338 l 1
 1047 -1339 l 1
 1380 -1673 1714 -2007 2048 -2341 c 1
2067 -2021 m 2
 2031 -2021 1995 -2018 1960 -2012 c 0
 1818 -1992 1681 -1895 1639 -1754 c 0
 1631 -1728 1627 -1701 1627 -1674 c 0
 1627 -1603 1654 -1532 1703 -1480 c 1
 1768 -1402 1854 -1346 1924 -1273 c 0
 1970 -1229 1966 -1160 1966 -1101 c 1
 2179 -1101 l 1
 2181 -1172 2181 -1244 2153 -1310 c 0
 2104 -1419 1996 -1480 1913 -1559 c 1
 1855 -1604 1837 -1692 1877 -1754 c 0
 1915 -1816 1985 -1843 2056 -1843 c 0
 2084 -1843 2113 -1838 2139 -1830 c 0
 2224 -1803 2273 -1719 2289 -1636 c 1
 2360 -1645 2432 -1654 2504 -1663 c 1
 2500 -1741 2469 -1817 2417 -1876 c 0
 2335 -1976 2203 -2021 2075 -2021 c 2
 2067 -2021 l 2
2179 -1021 m 1
 1945 -1021 l 1
 1945 -786 l 1
 2179 -786 l 1
 2179 -1021 l 1
EndSplineSet
Validated: 1
EndChar

StartChar: uF0047
Encoding: 983111 983111 74
Width: 4096
Flags: W
LayerCount: 2
Fore
SplineSet
3775 -2021 m 2
 329 -2021 l 2
 282 -2021 243 -1983 243 -1936 c 2
 243 -652 l 2
 243 -617 235 -570 235 -517 c 0
 235 -455 246 -386 292 -320 c 0
 376 -198 552 -132 898 -128 c 1
 0 -128 l 1
 0 128 l 1
 4096 128 l 1
 4096 -128 l 1
 3028 -128 l 2
 3385 -130 3582 -153 3712 -239 c 0
 3782 -285 3824 -354 3842 -426 c 0
 3860 -497 3860 -571 3860 -652 c 2
 3860 -1936 l 2
 3860 -1983 3822 -2021 3775 -2021 c 2
3690 -1850 m 1
 3690 -653 l 2
 3690 -572 3687 -509 3677 -468 c 0
 3666 -426 3654 -405 3618 -382 c 0
 3548 -335 3358 -299 2976 -299 c 2
 2945 -299 l 2
 2877 -299 2780 -300 2663 -300 c 0
 2414 -300 2077 -299 1752 -299 c 0
 1419 -299 1098 -300 900 -302 c 0
 574 -307 465 -370 432 -417 c 0
 399 -465 414 -544 414 -652 c 2
 414 -1850 l 1
 3690 -1850 l 1
EndSplineSet
Validated: 1
EndChar

StartChar: uF0048
Encoding: 983112 983112 75
Width: 4096
Flags: W
LayerCount: 2
Fore
SplineSet
2048 -2987 m 4
 1649 -2987 1323 -2661 1323 -2262 c 4
 1323 -1903 1587 -1604 1931 -1548 c 5
 1925 -1534 1920 -1511 1920 -1496 c 6
 1920 -1495 l 5
 1920 -130 l 5
 1920 -128 l 5
 0 -128 l 5
 0 128 l 5
 4096 128 l 5
 4096 -128 l 5
 2176 -128 l 5
 2176 -130 l 5
 2176 -1495 l 5
 2176 -1496 l 6
 2176 -1511 2171 -1534 2165 -1548 c 5
 2509 -1604 2773 -1903 2773 -2262 c 4
 2773 -2661 2447 -2987 2048 -2987 c 4
2048 -2731 m 4
 2309 -2731 2517 -2523 2517 -2262 c 4
 2517 -2002 2309 -1793 2048 -1793 c 4
 1787 -1793 1579 -2002 1579 -2262 c 4
 1579 -2523 1787 -2731 2048 -2731 c 4
EndSplineSet
Validated: 1
EndChar

StartChar: uF0049
Encoding: 983113 983113 76
Width: 4096
Flags: W
LayerCount: 2
Fore
SplineSet
2048 -3044 m 4
 1649 -3044 1323 -2718 1323 -2318 c 4
 1323 -1960 1587 -1661 1930 -1604 c 5
 1935 -1586 1950 -1561 1963 -1548 c 4
 2037 -1474 2028 -1460 2027 -1455 c 4
 2026 -1451 2003 -1418 1957 -1370 c 4
 1910 -1322 1840 -1255 1822 -1144 c 4
 1819 -1129 1818 -1113 1818 -1098 c 4
 1818 -1007 1862 -912 1941 -817 c 4
 1946 -811 1953 -802 1959 -796 c 4
 2032 -723 2023 -708 2022 -703 c 4
 2021 -699 1999 -666 1952 -618 c 4
 1906 -570 1836 -503 1817 -392 c 4
 1815 -377 1813 -362 1813 -347 c 4
 1813 -276 1840 -202 1889 -128 c 5
 0 -128 l 5
 0 128 l 5
 4096 128 l 5
 4096 -128 l 5
 2179 -128 l 5
 2179 -156 2163 -195 2144 -216 c 4
 2066 -303 2067 -336 2070 -350 c 4
 2072 -364 2092 -394 2136 -440 c 4
 2180 -485 2249 -542 2272 -649 c 4
 2276 -666 2278 -683 2278 -700 c 4
 2278 -786 2234 -876 2157 -958 c 4
 2155 -961 2151 -965 2149 -968 c 4
 2070 -1055 2072 -1088 2074 -1102 c 4
 2077 -1116 2097 -1146 2141 -1192 c 4
 2184 -1237 2253 -1294 2277 -1401 c 4
 2292 -1471 2275 -1545 2232 -1618 c 5
 2542 -1700 2773 -1983 2773 -2318 c 4
 2773 -2718 2447 -3044 2048 -3044 c 4
2048 -2788 m 4
 2309 -2788 2517 -2579 2517 -2318 c 4
 2517 -2058 2309 -1849 2048 -1849 c 4
 1787 -1849 1579 -2058 1579 -2318 c 4
 1579 -2579 1787 -2788 2048 -2788 c 4
EndSplineSet
Validated: 1
EndChar

StartChar: uF004A
Encoding: 983114 983114 77
Width: 4096
Flags: W
LayerCount: 2
Fore
SplineSet
2048 -3075 m 0
 1649 -3075 1323 -2749 1323 -2350 c 0
 1323 -2133 1420 -1937 1573 -1804 c 1
 1475 -1729 1417 -1618 1416 -1504 c 0
 1416 -1401 1472 -1308 1551 -1232 c 1
 1480 -1159 1430 -1071 1430 -975 c 2
 1430 -967 l 2
 1432 -866 1486 -775 1562 -697 c 1
 1487 -625 1434 -537 1434 -439 c 2
 1434 -436 l 2
 1435 -321 1491 -208 1588 -128 c 1
 0 -128 l 1
 0 128 l 1
 4096 128 l 1
 4096 -128 l 1
 2275 -128 l 1
 2276 -132 2276 -138 2276 -143 c 0
 2276 -213 2219 -271 2148 -271 c 0
 2141 -271 2130 -269 2123 -268 c 0
 2074 -260 2030 -256 1991 -256 c 0
 1893 -256 1822 -278 1776 -307 c 0
 1711 -347 1690 -397 1690 -438 c 0
 1689 -479 1705 -517 1764 -548 c 0
 1774 -554 1796 -555 1809 -559 c 1
 1871 -544 1936 -534 2007 -534 c 0
 2056 -534 2108 -538 2163 -549 c 0
 2220 -560 2266 -616 2266 -674 c 0
 2266 -728 2224 -784 2172 -798 c 0
 2090 -820 2015 -829 1945 -829 c 0
 1902 -829 1861 -826 1822 -820 c 1
 1808 -826 1787 -829 1775 -836 c 0
 1711 -876 1687 -929 1686 -974 c 0
 1685 -1019 1701 -1057 1758 -1089 c 0
 1768 -1094 1790 -1096 1804 -1100 c 1
 1866 -1086 1932 -1077 2004 -1077 c 0
 2050 -1077 2099 -1081 2151 -1089 c 0
 2211 -1098 2259 -1155 2259 -1215 c 0
 2259 -1269 2217 -1324 2165 -1339 c 0
 2083 -1362 2009 -1371 1939 -1371 c 0
 1896 -1371 1854 -1367 1814 -1361 c 1
 1795 -1368 1769 -1372 1755 -1381 c 0
 1690 -1419 1672 -1464 1672 -1503 c 0
 1673 -1541 1690 -1582 1752 -1617 c 0
 1779 -1631 1816 -1643 1862 -1650 c 1
 1922 -1634 1984 -1625 2048 -1625 c 0
 2447 -1625 2773 -1951 2773 -2350 c 0
 2773 -2749 2447 -3075 2048 -3075 c 0
2048 -2819 m 0
 2309 -2819 2517 -2611 2517 -2350 c 0
 2517 -2120 2354 -1930 2136 -1889 c 1
 2046 -1908 1962 -1914 1885 -1910 c 1
 1706 -1976 1579 -2147 1579 -2350 c 0
 1579 -2611 1787 -2819 2048 -2819 c 0
EndSplineSet
Validated: 1
EndChar

StartChar: uF004B
Encoding: 983115 983115 78
Width: 4096
Flags: W
LayerCount: 2
Fore
SplineSet
2048 -2303 m 0
 1977 -2303 1920 -2245 1920 -2175 c 2
 1920 -2173 l 1
 1920 -130 l 1
 1920 -128 l 1
 0 -128 l 1
 0 128 l 1
 4096 128 l 1
 4096 -128 l 1
 2176 -128 l 1
 2176 -130 l 1
 2176 -2173 l 1
 2176 -2175 l 2
 2176 -2244 2119 -2303 2048 -2303 c 0
EndSplineSet
Validated: 1
EndChar

StartChar: uF004C
Encoding: 983116 983116 79
Width: 4096
Flags: W
LayerCount: 2
Fore
SplineSet
2047 -2525 m 2
 2043 -2525 l 2
 1973 -2525 1915 -2468 1915 -2397 c 0
 1915 -2368 1933 -2327 1954 -2306 c 0
 2028 -2232 2019 -2217 2018 -2213 c 0
 2017 -2209 1994 -2175 1948 -2127 c 0
 1901 -2079 1831 -2013 1813 -1902 c 0
 1810 -1887 1809 -1871 1809 -1855 c 0
 1809 -1758 1859 -1656 1950 -1554 c 0
 1959 -1543 1978 -1528 1992 -1522 c 1
 2036 -1473 2032 -1459 2031 -1455 c 0
 2030 -1451 2008 -1418 1961 -1370 c 0
 1915 -1321 1845 -1255 1826 -1144 c 0
 1824 -1129 1822 -1114 1822 -1099 c 0
 1822 -1008 1866 -911 1947 -816 c 0
 1951 -810 1958 -802 1963 -797 c 2
 1964 -796 l 2
 1966 -793 1970 -789 1972 -787 c 0
 2034 -723 2028 -707 2027 -703 c 0
 2026 -699 2003 -666 1957 -618 c 0
 1910 -570 1840 -503 1822 -392 c 0
 1819 -377 1818 -361 1818 -346 c 0
 1818 -275 1844 -202 1893 -128 c 1
 0 -128 l 1
 0 128 l 1
 4096 128 l 1
 4096 -128 l 1
 2183 -128 l 1
 2183 -156 2168 -195 2149 -216 c 0
 2070 -303 2072 -336 2074 -350 c 0
 2077 -364 2097 -394 2141 -439 c 0
 2185 -485 2254 -542 2277 -649 c 0
 2281 -666 2282 -683 2282 -700 c 0
 2282 -787 2236 -879 2156 -964 c 0
 2156 -965 2155 -965 2155 -966 c 1
 2154 -966 2154 -967 2153 -968 c 0
 2075 -1055 2076 -1088 2079 -1102 c 0
 2081 -1116 2101 -1146 2145 -1191 c 0
 2189 -1237 2258 -1294 2281 -1401 c 0
 2285 -1418 2287 -1436 2287 -1454 c 0
 2287 -1546 2236 -1642 2149 -1729 c 0
 2141 -1737 2127 -1747 2118 -1753 c 0
 2065 -1818 2063 -1847 2065 -1859 c 0
 2068 -1874 2088 -1904 2131 -1949 c 0
 2175 -1994 2245 -2051 2268 -2158 c 0
 2272 -2175 2273 -2192 2273 -2209 c 0
 2273 -2302 2223 -2399 2135 -2487 c 0
 2115 -2507 2076 -2525 2047 -2525 c 2
EndSplineSet
Validated: 1
EndChar

StartChar: uF004D
Encoding: 983117 983117 80
Width: 4096
Flags: W
LayerCount: 2
Fore
SplineSet
2105 -2453 m 0
 2091 -2453 2077 -2452 2063 -2451 c 1
 2063 -2452 l 1
 1974 -2447 1896 -2425 1829 -2389 c 0
 1699 -2317 1624 -2184 1624 -2051 c 2
 1624 -2043 l 2
 1627 -1946 1678 -1857 1749 -1781 c 1
 1668 -1707 1620 -1607 1620 -1504 c 0
 1619 -1425 1653 -1352 1705 -1287 c 0
 1719 -1267 1735 -1248 1753 -1230 c 1
 1682 -1157 1633 -1069 1633 -973 c 2
 1633 -967 l 2
 1636 -866 1690 -775 1765 -698 c 1
 1691 -625 1637 -537 1637 -439 c 2
 1637 -436 l 2
 1638 -321 1694 -208 1791 -128 c 1
 0 -128 l 1
 0 128 l 1
 4096 128 l 1
 4096 -128 l 1
 2475 -128 l 1
 2476 -132 2476 -138 2476 -142 c 0
 2476 -213 2419 -270 2348 -270 c 0
 2342 -270 2332 -269 2326 -268 c 0
 2277 -260 2233 -256 2194 -256 c 0
 2096 -256 2026 -278 1980 -307 c 0
 1915 -347 1893 -397 1893 -438 c 0
 1893 -480 1909 -517 1967 -548 c 0
 1978 -553 1999 -555 2013 -559 c 1
 2075 -544 2140 -534 2211 -534 c 0
 2260 -534 2311 -538 2366 -549 c 0
 2423 -560 2470 -616 2470 -675 c 0
 2470 -729 2428 -784 2376 -798 c 0
 2293 -820 2218 -829 2148 -829 c 0
 2105 -829 2064 -826 2025 -820 c 1
 2011 -826 1990 -829 1979 -836 c 0
 1914 -876 1890 -929 1889 -974 c 0
 1888 -1019 1904 -1057 1961 -1089 c 0
 1970 -1093 1986 -1095 1999 -1098 c 1
 2071 -1080 2153 -1073 2242 -1078 c 0
 2253 -1079 2265 -1080 2277 -1081 c 0
 2281 -1081 2284 -1081 2288 -1082 c 0
 2309 -1084 2331 -1085 2354 -1089 c 0
 2362 -1090 2375 -1094 2383 -1097 c 0
 2431 -1113 2470 -1168 2470 -1218 c 0
 2470 -1289 2412 -1346 2342 -1346 c 2
 2335 -1346 l 1
 2264 -1363 2198 -1370 2137 -1370 c 0
 2095 -1370 2056 -1367 2018 -1361 c 0
 2017 -1362 2016 -1362 2015 -1362 c 0
 1999 -1369 1983 -1375 1970 -1383 c 0
 1906 -1423 1884 -1473 1884 -1514 c 0
 1884 -1532 1888 -1549 1896 -1565 c 0
 1908 -1583 1927 -1601 1955 -1617 c 0
 1966 -1623 1981 -1628 1995 -1633 c 0
 1998 -1634 2001 -1634 2004 -1635 c 0
 2066 -1620 2131 -1610 2202 -1610 c 0
 2251 -1610 2302 -1614 2357 -1625 c 0
 2414 -1636 2460 -1692 2460 -1750 c 0
 2460 -1782 2441 -1825 2418 -1846 c 0
 2402 -1864 2371 -1882 2348 -1887 c 0
 2273 -1904 2201 -1912 2135 -1912 c 0
 2109 -1912 2083 -1911 2059 -1908 c 0
 2040 -1906 2022 -1904 2003 -1900 c 1
 1991 -1904 1978 -1907 1970 -1912 c 0
 1905 -1952 1881 -2005 1880 -2050 c 0
 1879 -2094 1895 -2133 1952 -2164 c 0
 1984 -2182 2034 -2196 2102 -2196 c 0
 2154 -2196 2217 -2188 2291 -2168 c 0
 2301 -2165 2317 -2163 2327 -2163 c 0
 2398 -2163 2455 -2220 2455 -2291 c 0
 2455 -2345 2412 -2401 2359 -2415 c 0
 2278 -2437 2202 -2449 2131 -2452 c 0
 2123 -2452 2114 -2453 2105 -2453 c 0
EndSplineSet
Validated: 1
EndChar

StartChar: uF004E
Encoding: 983118 983118 81
Width: 4096
Flags: W
LayerCount: 2
Fore
SplineSet
1364 -3161 m 0
 1293 -3161 1236 -3103 1236 -3033 c 0
 1236 -3003 1253 -2961 1275 -2941 c 2
 1867 -2348 l 1
 1275 -1756 l 2
 1253 -1735 1235 -1694 1235 -1664 c 0
 1235 -1593 1293 -1536 1364 -1536 c 0
 1394 -1536 1435 -1554 1456 -1575 c 2
 1920 -2039 l 1
 1920 -130 l 1
 1920 -128 l 1
 0 -128 l 1
 0 128 l 1
 4096 128 l 1
 4096 -128 l 1
 2176 -128 l 1
 2176 -130 l 1
 2176 -2039 l 1
 2640 -1575 l 2
 2661 -1554 2702 -1536 2732 -1536 c 0
 2803 -1536 2861 -1593 2861 -1664 c 0
 2861 -1694 2843 -1735 2821 -1756 c 2
 2229 -2348 l 1
 2821 -2941 l 2
 2843 -2961 2860 -3003 2860 -3032 c 0
 2860 -3103 2803 -3160 2732 -3160 c 0
 2702 -3160 2661 -3143 2640 -3122 c 2
 2048 -2529 l 1
 1456 -3122 l 2
 1435 -3143 1394 -3161 1364 -3161 c 0
EndSplineSet
Validated: 1
EndChar

StartChar: uF004F
Encoding: 983119 983119 82
Width: 4096
Flags: W
LayerCount: 2
Fore
SplineSet
1236 -3053 m 0
 1236 -3024 1253 -2982 1275 -2962 c 2
 1867 -2369 l 1
 1275 -1777 l 2
 1253 -1756 1235 -1715 1235 -1685 c 0
 1235 -1614 1293 -1557 1364 -1557 c 0
 1394 -1557 1435 -1575 1456 -1596 c 2
 1798 -1938 l 1
 1794 -1927 1791 -1915 1789 -1902 c 0
 1787 -1887 1785 -1872 1785 -1856 c 0
 1785 -1759 1834 -1656 1926 -1554 c 0
 1936 -1542 1955 -1528 1969 -1521 c 1
 2012 -1473 2009 -1459 2008 -1455 c 0
 2007 -1451 1984 -1418 1938 -1370 c 0
 1891 -1322 1821 -1255 1803 -1144 c 0
 1800 -1129 1799 -1113 1799 -1098 c 0
 1799 -1007 1843 -912 1923 -816 c 0
 1927 -810 1935 -801 1940 -796 c 0
 2014 -722 2004 -708 2004 -703 c 0
 2003 -699 1980 -666 1933 -618 c 0
 1887 -570 1817 -503 1798 -392 c 0
 1796 -377 1794 -362 1794 -347 c 0
 1794 -276 1821 -202 1870 -128 c 1
 0 -128 l 1
 0 128 l 1
 4096 128 l 1
 4096 -128 l 1
 2160 -128 l 1
 2160 -156 2144 -195 2125 -216 c 0
 2047 -303 2048 -336 2051 -350 c 0
 2053 -364 2073 -394 2117 -440 c 0
 2161 -485 2230 -542 2254 -649 c 0
 2258 -666 2259 -683 2259 -700 c 0
 2259 -787 2213 -879 2133 -964 c 0
 2132 -965 2131 -967 2130 -968 c 0
 2051 -1055 2053 -1088 2055 -1102 c 0
 2058 -1116 2078 -1146 2122 -1192 c 0
 2166 -1237 2235 -1294 2258 -1401 c 0
 2262 -1418 2263 -1435 2263 -1452 c 0
 2263 -1544 2213 -1641 2125 -1729 c 0
 2118 -1737 2104 -1747 2094 -1753 c 1
 2042 -1818 2040 -1847 2042 -1859 c 0
 2044 -1873 2064 -1904 2108 -1949 c 0
 2133 -1974 2165 -2005 2192 -2044 c 1
 2640 -1596 l 2
 2661 -1575 2702 -1557 2732 -1557 c 0
 2803 -1557 2861 -1614 2861 -1685 c 0
 2861 -1715 2843 -1756 2821 -1777 c 2
 2229 -2369 l 1
 2821 -2962 l 2
 2843 -2982 2860 -3024 2860 -3053 c 0
 2860 -3166 2719 -3222 2640 -3143 c 2
 2048 -2550 l 1
 1456 -3143 l 2
 1377 -3222 1236 -3167 1236 -3053 c 0
EndSplineSet
Validated: 1
EndChar

StartChar: uF0050
Encoding: 983120 983120 83
Width: 4096
Flags: W
LayerCount: 2
Fore
SplineSet
2732 -3190 m 0
 2702 -3190 2661 -3172 2640 -3151 c 2
 2048 -2559 l 1
 1456 -3151 l 2
 1436 -3171 1396 -3189 1368 -3189 c 2
 1364 -3189 l 2
 1293 -3189 1236 -3132 1236 -3061 c 0
 1236 -3032 1253 -2991 1275 -2970 c 2
 1867 -2378 l 1
 1850 -2360 l 1
 1752 -2310 1675 -2232 1630 -2140 c 1
 1275 -1785 l 2
 1253 -1765 1235 -1723 1235 -1693 c 0
 1235 -1622 1293 -1565 1364 -1565 c 0
 1394 -1565 1435 -1583 1456 -1604 c 2
 1635 -1784 l 1
 1639 -1778 1643 -1772 1647 -1767 c 1
 1575 -1694 1533 -1600 1532 -1504 c 0
 1532 -1437 1557 -1375 1596 -1318 c 0
 1603 -1308 1608 -1298 1616 -1289 c 0
 1630 -1268 1647 -1248 1666 -1230 c 1
 1595 -1157 1546 -1070 1546 -975 c 2
 1546 -967 l 2
 1548 -866 1602 -775 1677 -697 c 1
 1603 -625 1549 -537 1549 -439 c 2
 1549 -436 l 2
 1550 -321 1606 -208 1703 -128 c 1
 0 -128 l 1
 0 128 l 1
 4096 128 l 1
 4096 -128 l 1
 2391 -128 l 1
 2391 -132 2392 -139 2392 -143 c 0
 2392 -213 2334 -271 2264 -271 c 0
 2257 -271 2246 -269 2239 -268 c 0
 2190 -260 2146 -256 2106 -256 c 0
 2008 -256 1938 -278 1892 -307 c 0
 1827 -347 1805 -397 1805 -438 c 0
 1805 -479 1821 -517 1880 -548 c 0
 1890 -554 1911 -555 1925 -559 c 1
 1987 -544 2052 -534 2123 -534 c 0
 2172 -534 2223 -538 2278 -549 c 0
 2336 -560 2383 -616 2383 -674 c 0
 2383 -728 2340 -784 2288 -798 c 0
 2205 -820 2130 -829 2061 -829 c 0
 2018 -829 1977 -826 1937 -820 c 1
 1923 -826 1902 -829 1891 -836 c 0
 1826 -876 1803 -929 1802 -973 c 0
 1800 -1018 1817 -1057 1874 -1088 c 0
 1882 -1093 1898 -1095 1911 -1097 c 1
 1985 -1079 2070 -1072 2161 -1078 c 0
 2168 -1079 2175 -1079 2182 -1080 c 0
 2192 -1080 2202 -1082 2212 -1083 c 0
 2230 -1085 2248 -1086 2267 -1089 c 0
 2273 -1090 2284 -1093 2290 -1095 c 0
 2341 -1110 2382 -1165 2382 -1218 c 0
 2382 -1289 2325 -1346 2254 -1346 c 2
 2248 -1346 l 1
 2177 -1363 2111 -1370 2050 -1370 c 0
 2008 -1370 1969 -1367 1931 -1361 c 0
 1929 -1362 1926 -1362 1924 -1363 c 0
 1909 -1369 1894 -1375 1883 -1382 c 0
 1818 -1422 1796 -1472 1796 -1513 c 0
 1796 -1532 1800 -1549 1808 -1565 c 0
 1821 -1583 1839 -1601 1868 -1616 c 0
 1873 -1619 1881 -1622 1887 -1625 c 1
 1943 -1612 2004 -1604 2072 -1604 c 0
 2131 -1604 2196 -1610 2269 -1624 c 0
 2327 -1635 2373 -1692 2373 -1750 c 0
 2373 -1774 2361 -1810 2346 -1829 c 0
 2330 -1855 2291 -1882 2260 -1887 c 0
 2185 -1904 2113 -1912 2047 -1912 c 0
 2021 -1912 1996 -1911 1972 -1908 c 0
 1938 -1905 1906 -1899 1876 -1891 c 1
 1847 -1907 1840 -1921 1839 -1946 c 0
 1838 -1961 1843 -1981 1853 -2002 c 1
 1993 -2142 l 1
 2014 -2152 2036 -2161 2060 -2165 c 0
 2064 -2165 2072 -2167 2076 -2168 c 2
 2640 -1604 l 2
 2661 -1583 2702 -1565 2732 -1565 c 0
 2803 -1565 2861 -1622 2861 -1693 c 0
 2861 -1723 2843 -1765 2821 -1785 c 2
 2229 -2378 l 1
 2821 -2970 l 2
 2843 -2991 2860 -3032 2860 -3062 c 0
 2860 -3132 2803 -3190 2732 -3190 c 0
EndSplineSet
Validated: 1
EndChar

StartChar: uF0051
Encoding: 983121 983121 84
Width: 4096
Flags: W
LayerCount: 2
Fore
SplineSet
2627 -2994 m 2
 1469 -2994 l 2
 1399 -2994 1341 -2936 1341 -2866 c 2
 1341 -1849 l 2
 1342 -1814 1365 -1768 1394 -1746 c 2
 1927 -1354 l 1
 1927 -130 l 1
 1927 -128 l 1
 0 -128 l 1
 0 128 l 1
 4096 128 l 1
 4096 -128 l 1
 2183 -128 l 1
 2183 -130 l 1
 2183 -1362 l 1
 2705 -1768 l 2
 2732 -1789 2755 -1834 2755 -1869 c 2
 2755 -2866 l 2
 2755 -2937 2697 -2994 2627 -2994 c 2
2499 -2738 m 1
 2499 -1932 l 1
 2055 -1587 l 1
 2054 -1587 l 1
 2043 -1587 l 1
 1597 -1914 l 1
 1597 -2738 l 1
 2499 -2738 l 1
EndSplineSet
Validated: 1
EndChar

StartChar: uF0052
Encoding: 983122 983122 85
Width: 4096
Flags: W
LayerCount: 2
Fore
SplineSet
2626 -3026 m 1
 2626 -3025 l 1
 1470 -3025 l 2
 1399 -3025 1342 -2968 1342 -2897 c 2
 1342 -1881 l 2
 1342 -1845 1365 -1799 1394 -1778 c 2
 1975 -1350 l 2
 1983 -1344 1995 -1337 2004 -1334 c 1
 1993 -1321 1976 -1302 1947 -1275 c 0
 1898 -1231 1825 -1171 1805 -1061 c 0
 1794 -1007 1803 -950 1828 -894 c 0
 1834 -880 1841 -866 1849 -852 c 0
 1871 -815 1901 -777 1936 -741 c 2
 1936 -741 1936 -740 1937 -740 c 0
 1938 -738 1941 -735 1943 -733 c 2
 1944 -733 l 2
 1945 -731 1947 -729 1948 -728 c 2
 1952 -724 l 1
 1953 -724 l 1
 1987 -692 2004 -668 2009 -658 c 0
 2010 -655 1991 -629 1942 -583 c 0
 1894 -539 1821 -479 1800 -370 c 0
 1785 -291 1810 -208 1865 -128 c 1
 0 -128 l 1
 0 128 l 1
 4096 128 l 1
 4096 -128 l 1
 2156 -128 l 1
 2155 -156 2139 -194 2119 -213 c 0
 2038 -293 2044 -318 2045 -323 c 0
 2046 -329 2065 -358 2111 -400 c 0
 2156 -441 2228 -491 2254 -597 c 0
 2267 -650 2259 -714 2233 -767 c 0
 2211 -813 2176 -853 2133 -894 c 1
 2133 -895 l 2
 2131 -898 2127 -902 2124 -905 c 0
 2043 -985 2049 -1010 2050 -1015 c 0
 2051 -1020 2070 -1050 2115 -1091 c 0
 2161 -1133 2232 -1183 2258 -1289 c 0
 2270 -1336 2264 -1392 2245 -1441 c 1
 2705 -1799 l 2
 2732 -1820 2754 -1866 2754 -1900 c 2
 2754 -2898 l 2
 2754 -2968 2697 -3026 2626 -3026 c 1
2498 -2770 m 1
 2498 -1963 l 1
 2073 -1632 l 1
 2063 -1635 2045 -1638 2035 -1638 c 2
 2031 -1638 l 2
 2028 -1638 2022 -1637 2018 -1637 c 2
 1598 -1946 l 1
 1598 -2770 l 1
 2498 -2770 l 1
EndSplineSet
Validated: 1
EndChar

StartChar: uF0053
Encoding: 983123 983123 86
Width: 4096
Flags: W
LayerCount: 2
Fore
SplineSet
1470 -3069 m 2
 1399 -3069 1342 -3012 1342 -2941 c 2
 1342 -1925 l 2
 1342 -1889 1365 -1843 1394 -1822 c 2
 1656 -1628 l 1
 1627 -1620 1599 -1611 1573 -1599 c 0
 1443 -1539 1354 -1421 1354 -1291 c 0
 1353 -1206 1399 -1132 1462 -1068 c 1
 1405 -1004 1365 -931 1367 -850 c 0
 1370 -765 1415 -691 1476 -626 c 1
 1415 -562 1370 -487 1371 -402 c 0
 1372 -298 1423 -200 1509 -128 c 1
 0 -128 l 1
 0 128 l 1
 4096 128 l 1
 4096 -128 l 1
 2213 -128 l 1
 2213 -132 2214 -139 2214 -144 c 0
 2214 -215 2156 -272 2086 -272 c 0
 2079 -272 2067 -271 2060 -269 c 0
 2007 -260 1960 -256 1918 -256 c 0
 1822 -256 1753 -276 1708 -301 c 0
 1643 -336 1627 -377 1627 -404 c 0
 1626 -432 1636 -460 1695 -487 c 0
 1700 -489 1712 -489 1718 -491 c 0
 1784 -474 1854 -463 1933 -463 c 0
 1985 -463 2040 -468 2100 -479 c 0
 2157 -491 2203 -547 2203 -605 c 0
 2203 -659 2161 -714 2109 -728 c 0
 2022 -752 1944 -762 1872 -762 c 0
 1821 -762 1774 -757 1728 -749 c 0
 1722 -752 1711 -754 1705 -756 c 0
 1640 -791 1624 -831 1623 -857 c 0
 1622 -883 1629 -908 1686 -934 c 0
 1691 -937 1701 -937 1706 -938 c 0
 1773 -922 1845 -911 1926 -911 c 0
 1976 -911 2030 -915 2088 -925 c 0
 2148 -934 2196 -991 2196 -1051 c 0
 2196 -1105 2154 -1160 2102 -1174 c 0
 2014 -1199 1935 -1209 1862 -1209 c 0
 1811 -1209 1764 -1204 1718 -1196 c 1
 1709 -1200 1692 -1201 1684 -1206 c 0
 1619 -1239 1610 -1271 1610 -1290 c 0
 1610 -1309 1618 -1338 1681 -1367 c 0
 1717 -1384 1773 -1396 1848 -1396 c 0
 1891 -1396 1940 -1392 1995 -1382 c 1
 2010 -1375 2035 -1369 2052 -1369 c 0
 2076 -1369 2111 -1380 2130 -1395 c 2
 2705 -1843 l 2
 2732 -1864 2754 -1909 2754 -1944 c 2
 2754 -2941 l 2
 2754 -3012 2697 -3069 2626 -3069 c 2
 1470 -3069 l 2
2498 -2813 m 1
 2498 -2006 l 1
 2049 -1657 l 1
 1598 -1989 l 1
 1598 -2813 l 1
 2498 -2813 l 1
EndSplineSet
Validated: 1
EndChar

StartChar: uF0054
Encoding: 983124 983124 87
Width: 4096
Flags: W
LayerCount: 2
Fore
SplineSet
2040 1012 m 0
 2512 1012 2895 629 2895 157 c 0
 2895 89 2886 23 2871 -40 c 1
 2890 -16 2911 12 2934 44 c 0
 2983 113 3023 175 3066 224 c 0
 3109 272 3164 314 3232 305 c 0
 3300 297 3353 249 3415 171 c 0
 3477 93 3548 -20 3639 -183 c 0
 3644 -191 3648 -204 3648 -214 c 0
 3648 -247 3621 -274 3587 -274 c 0
 3567 -274 3543 -260 3534 -242 c 0
 3444 -82 3374 28 3320 96 c 0
 3267 164 3230 184 3217 186 c 0
 3204 187 3189 181 3156 144 c 0
 3124 107 3083 46 3032 -26 c 0
 2981 -97 2939 -153 2898 -193 c 0
 2864 -228 2827 -254 2784 -262 c 1
 2637 -522 2359 -697 2040 -697 c 0
 1954 -697 1869 -677 1787 -651 c 1
 1750 -801 1619 -914 1461 -914 c 2
 1459 -914 l 2
 1270 -914 1116 -760 1116 -571 c 0
 1116 -442 1197 -334 1310 -276 c 1
 1249 -173 1209 -61 1193 56 c 1
 1178 31 1162 5 1146 -28 c 0
 1112 -96 1072 -163 1023 -216 c 0
 974 -270 912 -312 837 -310 c 0
 762 -308 691 -260 630 -175 c 0
 569 -89 510 37 451 222 c 0
 450 227 448 235 448 240 c 0
 448 274 475 301 509 301 c 0
 533 301 559 282 566 259 c 0
 623 81 679 -36 728 -104 c 0
 777 -173 814 -189 840 -190 c 0
 865 -190 898 -174 934 -134 c 0
 970 -95 1007 -36 1038 26 c 0
 1080 109 1119 173 1164 219 c 0
 1172 227 1181 235 1190 242 c 1
 1232 674 1597 1012 2040 1012 c 0
2040 926 m 0
 1660 926 1345 651 1283 288 c 1
 1297 291 1311 293 1325 292 c 0
 1385 289 1438 258 1490 213 c 0
 1542 167 1594 105 1653 25 c 0
 1710 -52 1755 -103 1788 -132 c 0
 1822 -160 1836 -162 1846 -160 c 0
 1856 -159 1876 -147 1906 -113 c 0
 1936 -79 1972 -25 2017 43 c 0
 2064 112 2106 168 2150 209 c 0
 2194 250 2243 279 2298 281 c 0
 2354 283 2406 256 2452 215 c 0
 2498 174 2542 117 2591 42 c 0
 2638 -30 2676 -81 2705 -111 c 0
 2728 -135 2740 -141 2749 -143 c 1
 2788 -51 2809 51 2809 157 c 2
 2809 159 l 2
 2809 583 2465 926 2040 926 c 0
1319 171 m 0
 1305 172 1290 165 1272 151 c 1
 1273 4 1316 -140 1397 -264 c 2
 1428 -310 l 1
 1376 -328 l 2
 1271 -363 1201 -461 1201 -571 c 0
 1201 -714 1316 -829 1459 -829 c 0
 1591 -829 1701 -730 1715 -598 c 2
 1721 -543 l 1
 1772 -563 l 2
 1858 -595 1949 -612 2040 -612 c 0
 2316 -612 2556 -467 2692 -250 c 1
 2666 -237 2641 -219 2619 -196 c 0
 2578 -154 2539 -98 2490 -24 c 0
 2444 47 2404 96 2371 125 c 0
 2339 154 2319 161 2302 160 c 0
 2286 159 2264 151 2232 121 c 0
 2200 91 2162 42 2118 -24 c 0
 2073 -92 2035 -148 1997 -192 c 0
 1959 -236 1919 -271 1865 -279 c 0
 1810 -288 1757 -263 1710 -224 c 0
 1664 -184 1616 -127 1556 -47 c 0
 1500 29 1451 86 1410 122 c 0
 1369 158 1339 170 1319 171 c 0
EndSplineSet
Validated: 1
EndChar

StartChar: uF0055
Encoding: 983125 983125 88
Width: 4096
Flags: W
LayerCount: 2
Fore
SplineSet
2041 1015 m 1
 2041 1014 l 1
 2043 1014 l 2
 2500 1014 2873 650 2893 198 c 1
 2899 192 l 2
 2923 168 2948 138 2974 104 c 1
 3006 150 3036 192 3066 227 c 0
 3109 275 3164 317 3232 308 c 0
 3300 300 3353 252 3415 174 c 0
 3429 156 3444 136 3459 114 c 1
 3483 155 3506 191 3534 241 c 0
 3543 258 3567 273 3587 273 c 0
 3621 273 3648 246 3648 212 c 0
 3648 203 3644 189 3639 182 c 0
 3600 111 3565 54 3533 1 c 1
 3565 -52 3600 -110 3639 -180 c 0
 3644 -188 3648 -202 3648 -212 c 0
 3648 -245 3621 -272 3588 -272 c 0
 3567 -272 3543 -257 3534 -239 c 0
 3506 -189 3484 -153 3459 -112 c 1
 3444 -134 3429 -154 3415 -172 c 0
 3353 -250 3300 -298 3232 -306 c 0
 3164 -315 3109 -273 3066 -225 c 0
 3036 -190 3006 -148 2974 -102 c 1
 2948 -136 2923 -167 2899 -191 c 0
 2864 -225 2827 -251 2784 -259 c 1
 2637 -519 2359 -694 2041 -694 c 0
 1954 -694 1869 -674 1787 -648 c 1
 1750 -799 1619 -912 1459 -912 c 0
 1270 -912 1116 -757 1116 -569 c 0
 1116 -450 1184 -350 1282 -289 c 1
 1239 -280 1199 -255 1165 -220 c 0
 1139 -194 1115 -160 1092 -122 c 1
 1071 -155 1048 -186 1023 -214 c 0
 974 -267 912 -309 837 -307 c 0
 762 -306 692 -257 630 -172 c 0
 623 -162 616 -149 609 -138 c 1
 595 -175 581 -215 566 -260 c 0
 560 -285 534 -305 508 -305 c 0
 475 -305 448 -278 448 -244 c 0
 448 -238 449 -229 452 -223 c 0
 479 -136 507 -62 535 1 c 1
 507 64 479 138 452 225 c 0
 449 231 448 240 448 246 c 0
 448 279 475 306 508 306 c 0
 534 306 560 286 566 262 c 0
 581 217 595 177 609 140 c 1
 616 151 623 164 630 174 c 0
 692 259 762 307 837 309 c 0
 912 311 974 268 1023 215 c 0
 1048 188 1071 157 1092 124 c 1
 1115 162 1139 196 1165 222 c 0
 1173 230 1182 237 1190 245 c 1
 1233 676 1598 1015 2041 1015 c 1
2041 929 m 0
 1660 929 1346 654 1284 291 c 1
 1297 294 1311 296 1325 295 c 0
 1385 292 1438 261 1490 216 c 0
 1525 185 1561 144 1598 98 c 1
 1638 149 1676 193 1711 223 c 0
 1758 262 1810 287 1865 278 c 0
 1919 270 1960 235 1997 191 c 0
 2018 167 2040 138 2062 107 c 1
 2091 147 2121 184 2150 212 c 0
 2194 253 2243 282 2298 283 c 0
 2354 285 2406 259 2452 218 c 0
 2484 190 2515 151 2548 106 c 1
 2572 140 2596 171 2619 195 c 0
 2659 236 2705 266 2759 265 c 0
 2775 265 2789 262 2803 257 c 1
 2755 636 2433 929 2041 929 c 0
840 188 m 0
 814 188 777 172 728 103 c 0
 710 77 690 42 669 1 c 1
 690 -40 710 -75 728 -101 c 0
 777 -170 814 -186 840 -187 c 0
 866 -187 898 -171 934 -131 c 0
 965 -98 995 -50 1023 1 c 1
 995 52 965 100 934 133 c 0
 898 173 866 189 840 188 c 0
3217 188 m 0
 3204 190 3190 184 3157 147 c 0
 3128 114 3092 61 3049 1 c 1
 3092 -59 3128 -112 3157 -145 c 0
 3190 -182 3204 -188 3217 -187 c 0
 3230 -185 3267 -165 3321 -97 c 0
 3341 -71 3365 -37 3390 1 c 1
 3365 39 3341 73 3321 99 c 0
 3267 167 3230 187 3217 188 c 0
1320 174 m 0
 1305 175 1291 172 1272 157 c 1
 1272 45 1297 -65 1345 -166 c 1
 1362 -159 1384 -146 1410 -123 c 0
 1442 -95 1480 -51 1521 1 c 1
 1480 53 1442 97 1410 125 c 0
 1370 161 1339 173 1320 174 c 0
2303 163 m 0
 2287 162 2264 153 2233 123 c 0
 2205 97 2171 55 2134 1 c 1
 2171 -53 2205 -96 2233 -122 c 0
 2264 -152 2287 -160 2303 -161 c 0
 2319 -162 2339 -155 2371 -126 c 0
 2400 -101 2435 -57 2474 1 c 1
 2435 59 2400 103 2371 128 c 0
 2339 157 2319 164 2303 163 c 0
1846 159 m 0
 1836 161 1822 159 1789 131 c 0
 1760 106 1721 61 1675 1 c 1
 1721 -59 1760 -104 1789 -129 c 0
 1822 -156 1836 -159 1846 -157 c 0
 1856 -156 1876 -144 1906 -110 c 0
 1929 -84 1956 -45 1987 1 c 1
 1957 46 1929 86 1906 112 c 0
 1876 146 1856 158 1846 159 c 0
2757 145 m 0
 2750 145 2735 141 2705 111 c 0
 2683 88 2654 48 2622 1 c 1
 2654 -46 2683 -86 2705 -109 c 0
 2728 -132 2740 -138 2749 -140 c 1
 2782 -62 2802 23 2807 112 c 1
 2781 137 2764 145 2757 145 c 0
1193 58 m 1
 1183 42 1172 22 1161 1 c 1
 1190 -53 1216 -94 1240 -121 c 1
 1218 -63 1201 -3 1193 58 c 1
2883 23 m 1
 2880 3 2876 -18 2871 -38 c 1
 2880 -27 2890 -12 2900 1 c 1
 2894 8 2888 16 2883 23 c 1
1598 -96 m 1
 1561 -142 1525 -183 1490 -214 c 0
 1462 -238 1434 -258 1405 -272 c 1
 1428 -307 l 1
 1376 -325 l 2
 1272 -361 1201 -458 1201 -569 c 0
 1201 -711 1316 -826 1459 -826 c 0
 1591 -826 1702 -727 1715 -595 c 2
 1721 -540 l 1
 1773 -560 l 2
 1858 -592 1949 -609 2041 -609 c 0
 2316 -609 2556 -464 2692 -247 c 1
 2666 -235 2641 -216 2619 -193 c 0
 2596 -169 2572 -139 2548 -104 c 1
 2515 -149 2484 -188 2452 -216 c 0
 2406 -257 2354 -284 2298 -282 c 0
 2243 -280 2194 -251 2150 -210 c 0
 2121 -182 2091 -145 2062 -105 c 1
 2040 -136 2018 -165 1997 -189 c 0
 1960 -233 1919 -268 1865 -276 c 0
 1810 -285 1757 -261 1711 -221 c 1
 1598 -96 l 1
EndSplineSet
Validated: 1
EndChar

StartChar: uF0056
Encoding: 983126 983126 89
Width: 4096
Flags: W
LayerCount: 2
Fore
SplineSet
1486 974 m 0
 1640 974 1930 881 2084 729 c 1
 2244 886 2454 974 2680 974 c 0
 3152 974 3535 591 3535 120 c 0
 3535 -352 3152 -734 2680 -734 c 0
 2594 -734 2509 -714 2427 -688 c 1
 2390 -839 2258 -952 2099 -952 c 0
 1938 -952 1802 -839 1766 -686 c 1
 1678 -717 1584 -734 1486 -734 c 0
 1399 -734 1315 -714 1232 -688 c 1
 1195 -839 1064 -952 904 -952 c 0
 715 -952 561 -798 561 -609 c 0
 561 -479 642 -371 755 -313 c 1
 677 -182 631 -33 631 120 c 0
 631 595 1010 974 1486 974 c 0
716 120 m 2
 717 -30 760 -176 843 -301 c 2
 873 -347 l 1
 821 -365 l 2
 716 -401 646 -498 646 -609 c 0
 646 -752 761 -866 904 -866 c 0
 1036 -866 1147 -767 1160 -635 c 2
 1166 -581 l 1
 1218 -600 l 2
 1304 -632 1394 -649 1486 -649 c 0
 1605 -649 1720 -618 1815 -574 c 0
 1876 -547 1924 -507 1977 -472 c 1
 2064 -387 l 1
 2128 -303 l 1
 2184 -201 l 1
 2221 -105 l 1
 2243 -10 l 1
 2251 47 l 2
 2253 71 2255 95 2255 120 c 0
 2255 145 2253 170 2251 195 c 2
 2240 267 l 1
 2172 608 1867 889 1486 889 c 0
 1059 889 716 551 716 126 c 2
 716 120 l 2
2680 889 m 0
 2478 889 2289 804 2145 663 c 1
 2265 517 2340 343 2340 120 c 0
 2338 53 2331 -10 2319 -68 c 0
 2260 -326 2086 -539 1853 -651 c 1
 1874 -772 1973 -866 2099 -866 c 0
 2231 -866 2341 -767 2355 -635 c 2
 2361 -581 l 1
 2413 -600 l 2
 2498 -632 2589 -649 2681 -649 c 0
 3106 -649 3450 -305 3450 120 c 0
 3450 545 3106 889 2680 889 c 0
EndSplineSet
Validated: 1
EndChar

StartChar: uF0057
Encoding: 983127 983127 90
Width: 4096
Flags: W
LayerCount: 2
Fore
SplineSet
1555 -987 m 0
 1366 -987 1212 -832 1212 -644 c 0
 1212 -514 1293 -406 1406 -348 c 1
 1328 -216 1283 -68 1282 85 c 0
 1282 152 1292 219 1308 284 c 1
 1188 338 1104 457 1104 596 c 0
 1104 785 1259 939 1448 939 c 0
 1551 939 1642 893 1705 821 c 1
 1836 898 1985 939 2137 939 c 0
 2608 939 2992 556 2992 85 c 0
 2991 -386 2608 -769 2137 -769 c 0
 2050 -769 1966 -749 1884 -723 c 1
 1847 -875 1715 -987 1555 -987 c 0
1812 -670 m 2
 1817 -615 l 1
 1869 -635 l 2
 1955 -667 2045 -684 2137 -684 c 0
 2562 -684 2906 -340 2906 85 c 0
 2906 510 2562 854 2137 854 c 0
 2002 854 1871 814 1754 747 c 1
 1777 701 1791 650 1791 596 c 0
 1791 573 1788 549 1784 528 c 0
 1753 372 1615 252 1450 252 c 2
 1448 252 l 2
 1431 252 1416 256 1400 258 c 0
 1398 258 1395 258 1393 259 c 1
 1379 202 1368 144 1368 85 c 0
 1368 -64 1412 -211 1494 -336 c 2
 1525 -382 l 1
 1473 -400 l 2
 1368 -435 1298 -533 1298 -643 c 0
 1298 -809 1427 -894 1556 -894 c 0
 1676 -894 1796 -820 1812 -670 c 2
1448 339 m 1
 1573 339 1676 427 1700 544 c 0
 1706 574 1704 604 1702 636 c 1
 1692 677 1681 707 1660 739 c 2
 1646 759 l 1
 1598 816 1528 853 1448 853 c 0
 1305 853 1190 738 1190 595 c 0
 1190 453 1305 338 1448 338 c 1
 1448 339 l 1
EndSplineSet
Validated: 1
EndChar

StartChar: uF0058
Encoding: 983128 983128 91
Width: 4096
Flags: W
LayerCount: 2
Fore
SplineSet
975 643 m 1
 3056 643 l 1
 3121 643 l 1
 3446 318 l 1
 3446 -300 l 1
 3121 -625 l 1
 975 -625 l 1
 650 -300 l 1
 650 318 l 1
 963 631 l 1
 975 643 l 1
1011 558 m 1
 736 283 l 1
 736 -264 l 1
 1011 -539 l 1
 3085 -539 l 1
 3360 -264 l 1
 3360 283 l 1
 3085 558 l 1
 1011 558 l 1
EndSplineSet
Validated: 1
EndChar

StartChar: uF0059
Encoding: 983129 983129 92
Width: 4096
Flags: W
LayerCount: 2
Fore
SplineSet
2083 1000 m 2
 2085 1000 l 2
 2555 1000 2938 616 2938 146 c 0
 2937 -324 2555 -708 2085 -708 c 2
 2083 -708 l 2
 1996 -708 1912 -688 1830 -662 c 1
 1793 -813 1661 -926 1501 -926 c 0
 1313 -926 1159 -772 1158 -583 c 0
 1159 -453 1239 -345 1352 -287 c 1
 1275 -155 1229 -7 1229 146 c 0
 1229 617 1612 1000 2083 1000 c 2
2083 915 m 0
 1658 915 1314 571 1314 146 c 0
 1314 -4 1358 -150 1440 -275 c 2
 1471 -321 l 1
 1418 -339 l 2
 1314 -375 1244 -472 1244 -583 c 0
 1244 -726 1359 -841 1502 -841 c 0
 1634 -841 1744 -741 1758 -610 c 2
 1764 -555 l 1
 1815 -574 l 2
 1901 -606 1992 -623 2083 -623 c 0
 2508 -623 2852 -279 2852 146 c 0
 2852 574 2512 915 2083 915 c 0
EndSplineSet
Validated: 1
EndChar

StartChar: uF005A
Encoding: 983130 983130 93
Width: 4096
Flags: W
LayerCount: 2
Fore
SplineSet
1035 634 m 2
 3061 634 l 2
 3274 634 3446 462 3446 249 c 2
 3446 -249 l 2
 3446 -462 3274 -634 3061 -634 c 2
 1035 -634 l 2
 823 -634 650 -462 650 -249 c 2
 650 249 l 2
 650 462 823 634 1035 634 c 2
1035 549 m 2
 868 549 736 416 736 249 c 2
 736 -249 l 2
 736 -416 868 -548 1035 -548 c 2
 3061 -548 l 2
 3228 -548 3360 -416 3360 -249 c 2
 3360 249 l 2
 3360 416 3228 549 3061 549 c 2
 1035 549 l 2
EndSplineSet
Validated: 1
EndChar

StartChar: uF005B
Encoding: 983131 983131 94
Width: 4096
Flags: W
LayerCount: 2
Fore
SplineSet
1364 783 m 1
 1779 783 l 1
 1779 599 l 1
 1586 599 l 1
 1586 -599 l 1
 1779 -599 l 1
 1779 -783 l 1
 1364 -783 l 1
 1364 783 l 1
2317 783 m 1
 2732 783 l 1
 2732 -783 l 1
 2317 -783 l 1
 2317 -599 l 1
 2510 -599 l 1
 2510 601 l 1
 2317 601 l 1
 2317 783 l 1
EndSplineSet
Validated: 1
EndChar

StartChar: uF005C
Encoding: 983132 983132 95
Width: 4096
Flags: W
LayerCount: 2
Fore
SplineSet
321 992 m 2
 3767 992 l 2
 3814 992 3853 954 3853 907 c 2
 3853 -377 l 2
 3853 -412 3861 -459 3861 -512 c 0
 3861 -574 3850 -643 3804 -709 c 0
 3720 -831 3544 -893 3198 -898 c 0
 2985 -900 2636 -901 2280 -901 c 0
 2014 -901 1744 -900 1526 -900 c 0
 1367 -900 1235 -901 1151 -901 c 2
 1101 -901 l 2
 723 -901 518 -878 384 -791 c 0
 314 -745 272 -675 254 -604 c 0
 236 -532 236 -459 236 -377 c 2
 236 907 l 2
 236 954 274 992 321 992 c 2
406 821 m 1
 406 -377 l 2
 406 -457 408 -520 419 -562 c 0
 430 -604 442 -624 478 -648 c 0
 548 -694 738 -730 1120 -730 c 2
 1151 -730 l 2
 1219 -730 1316 -729 1433 -729 c 0
 1682 -729 2019 -730 2344 -730 c 0
 2677 -730 2998 -729 3196 -727 c 0
 3522 -723 3631 -659 3664 -612 c 0
 3697 -564 3682 -485 3682 -377 c 2
 3682 821 l 1
 406 821 l 1
EndSplineSet
Validated: 1
EndChar

StartChar: uF005D
Encoding: 983133 983133 96
Width: 4096
Flags: W
LayerCount: 2
Fore
SplineSet
3232 324 m 1
 3233 324 l 1
 3300 315 3354 267 3416 189 c 0
 3477 112 3549 -2 3640 -164 c 0
 3644 -172 3648 -185 3648 -194 c 0
 3648 -227 3621 -254 3587 -254 c 0
 3568 -254 3544 -241 3535 -223 c 0
 3445 -64 3375 46 3321 114 c 0
 3267 182 3230 202 3218 204 c 0
 3205 205 3190 200 3157 162 c 0
 3124 125 3084 64 3033 -8 c 0
 2982 -79 2940 -134 2899 -175 c 0
 2858 -216 2814 -247 2760 -248 c 0
 2706 -249 2660 -219 2619 -177 c 0
 2579 -136 2539 -80 2491 -6 c 0
 2444 65 2404 115 2372 144 c 0
 2340 172 2319 178 2303 178 c 0
 2287 178 2265 169 2233 139 c 0
 2201 109 2163 60 2118 -6 c 0
 2073 -74 2035 -130 1998 -174 c 0
 1960 -217 1919 -252 1865 -261 c 0
 1811 -269 1758 -245 1711 -205 c 0
 1664 -166 1616 -108 1557 -29 c 0
 1500 48 1451 105 1410 140 c 0
 1370 176 1339 189 1320 190 c 0
 1300 191 1281 184 1251 153 c 0
 1221 122 1185 68 1146 -10 c 0
 1112 -78 1072 -145 1023 -198 c 0
 974 -251 912 -294 837 -292 c 0
 762 -290 692 -242 630 -156 c 0
 569 -71 511 56 452 241 c 0
 450 246 448 255 448 260 c 0
 448 293 475 320 509 320 c 0
 534 320 560 301 567 277 c 0
 623 100 679 -17 728 -86 c 0
 778 -154 814 -171 840 -171 c 0
 866 -172 898 -156 934 -116 c 0
 971 -77 1007 -18 1038 44 c 0
 1080 128 1120 192 1165 238 c 0
 1210 284 1266 313 1325 310 c 0
 1385 308 1438 277 1490 231 c 0
 1542 185 1595 123 1654 43 c 0
 1711 -33 1756 -85 1789 -113 c 0
 1822 -142 1837 -144 1846 -142 c 0
 1856 -140 1877 -129 1906 -95 c 0
 1936 -60 1973 -7 2018 61 c 0
 2064 131 2106 186 2150 227 c 0
 2194 268 2243 297 2299 299 c 0
 2354 301 2406 275 2452 234 c 0
 2498 193 2542 136 2592 61 c 0
 2639 -11 2676 -63 2706 -93 c 0
 2735 -123 2750 -127 2757 -127 c 0
 2765 -127 2783 -121 2814 -90 c 0
 2845 -59 2885 -7 2934 63 c 0
 2984 132 3024 194 3067 242 c 0
 3109 291 3165 332 3232 324 c 1
EndSplineSet
Validated: 1
EndChar

StartChar: uF005E
Encoding: 983134 983134 97
Width: 4096
Flags: W
LayerCount: 2
Fore
SplineSet
1491 576 m 0
 1529 574 1568 567 1609 554 c 0
 1786 498 1898 366 1992 222 c 0
 2018 187 2043 152 2067 116 c 1
 2154 237 2248 358 2375 448 c 0
 2385 456 2395 466 2406 474 c 0
 2464 516 2530 548 2602 562 c 0
 2673 577 2750 574 2831 549 c 0
 3033 485 3151 322 3253 155 c 1
 3376 324 3515 492 3738 567 c 0
 3744 569 3754 571 3761 571 c 2
 3763 571 l 2
 3801 570 3832 538 3832 500 c 0
 3832 472 3810 441 3783 433 c 0
 3587 367 3463 204 3333 23 c 1
 3448 -169 3561 -337 3763 -394 c 0
 3792 -402 3815 -433 3815 -463 c 0
 3815 -502 3783 -534 3744 -534 c 0
 3738 -534 3730 -533 3724 -531 c 0
 3488 -464 3354 -282 3243 -101 c 1
 3125 -260 2991 -416 2783 -489 c 0
 2704 -517 2628 -525 2559 -518 c 1
 2549 -524 2533 -528 2522 -528 c 0
 2516 -528 2508 -527 2502 -526 c 0
 2296 -467 2167 -320 2063 -164 c 1
 2023 -218 1982 -271 1938 -319 c 0
 1835 -432 1716 -525 1567 -546 c 0
 1564 -547 1558 -547 1555 -547 c 0
 1542 -547 1524 -542 1514 -535 c 1
 1487 -539 1460 -542 1434 -542 c 0
 1343 -542 1260 -515 1188 -471 c 0
 1073 -400 985 -288 901 -170 c 2
 868 -122 l 1
 820 -189 770 -254 716 -314 c 0
 613 -427 494 -520 345 -541 c 0
 342 -541 338 -542 335 -542 c 0
 296 -542 264 -510 264 -470 c 0
 264 -436 291 -405 325 -400 c 0
 427 -386 519 -319 611 -218 c 0
 669 -154 725 -77 782 2 c 1
 658 180 534 342 380 395 c 0
 352 403 329 434 329 463 c 0
 329 502 361 534 400 534 c 0
 408 534 419 532 426 529 c 0
 621 462 753 298 870 128 c 1
 874 133 877 138 881 143 c 0
 972 270 1067 394 1184 479 c 0
 1242 522 1308 553 1380 568 c 0
 1416 575 1453 578 1491 576 c 0
1443 436 m 0
 1380 431 1325 406 1267 364 c 0
 1175 297 1086 185 997 60 c 0
 983 41 969 21 956 2 c 1
 976 -28 997 -59 1017 -88 c 0
 1097 -201 1178 -297 1263 -351 c 0
 1315 -383 1367 -402 1429 -402 c 0
 1469 -402 1512 -394 1562 -377 c 0
 1736 -315 1854 -175 1971 -15 c 1
 1946 26 1922 65 1898 104 c 0
 1793 248 1684 371 1553 416 c 0
 1547 418 1537 423 1531 428 c 0
 1500 434 1471 437 1443 436 c 0
2665 430 m 0
 2655 430 2645 428 2635 426 c 1
 2629 420 2617 414 2609 411 c 0
 2555 393 2506 366 2461 335 c 1
 2379 267 2299 166 2219 54 c 0
 2200 29 2181 2 2163 -25 c 1
 2172 -38 2181 -53 2191 -67 c 0
 2271 -179 2351 -276 2437 -329 c 0
 2489 -361 2541 -381 2602 -381 c 0
 2642 -381 2685 -373 2735 -355 c 0
 2918 -291 3039 -140 3162 30 c 1
 3055 208 2952 361 2788 413 c 0
 2743 427 2703 433 2665 430 c 0
EndSplineSet
Validated: 1
EndChar

StartChar: uF005F
Encoding: 983135 983135 98
Width: 4096
Flags: W
LayerCount: 2
Fore
SplineSet
1284 634 m 2
 2812 634 l 2
 3162 634 3446 350 3446 0 c 0
 3446 -350 3162 -634 2812 -634 c 2
 1284 -634 l 2
 934 -634 650 -350 650 0 c 0
 650 350 934 634 1284 634 c 2
1284 549 m 2
 979 549 735 305 735 0 c 0
 735 -305 979 -549 1284 -549 c 2
 2812 -549 l 2
 3116 -549 3360 -305 3360 0 c 0
 3360 305 3116 549 2812 549 c 2
 1284 549 l 2
EndSplineSet
Validated: 1
EndChar

StartChar: uF0060
Encoding: 983136 983136 99
Width: 4096
Flags: W
LayerCount: 2
Fore
SplineSet
2048 1209 m 1
 3257 0 l 1
 2048 -1209 l 1
 839 0 l 1
 1996 1157 l 1
 2048 1209 l 1
2048 1001 m 1
 1047 0 l 1
 2048 -1001 l 1
 3049 0 l 1
 2048 1001 l 1
2029 681 m 0
 2163 681 2270 646 2350 575 c 0
 2429 505 2469 424 2469 330 c 0
 2469 279 2454 230 2425 184 c 0
 2396 138 2334 75 2238 -5 c 0
 2189 -46 2158 -79 2146 -104 c 0
 2134 -129 2129 -173 2130 -238 c 1
 1917 -238 l 1
 1917 -207 1916 -189 1916 -182 c 0
 1916 -113 1928 -57 1951 -12 c 0
 1973 32 2019 82 2087 138 c 0
 2156 193 2196 230 2210 247 c 0
 2230 274 2241 304 2241 337 c 0
 2241 383 2222 422 2186 454 c 0
 2150 487 2101 503 2039 503 c 0
 1980 503 1930 486 1890 452 c 0
 1850 418 1822 367 1807 297 c 1
 1592 324 l 1
 1598 423 1641 508 1719 577 c 0
 1798 647 1901 681 2029 681 c 0
1917 -319 m 1
 2151 -319 l 1
 2151 -553 l 1
 1917 -553 l 1
 1917 -319 l 1
EndSplineSet
Validated: 1
EndChar

StartChar: uF0061
Encoding: 983137 983137 100
Width: 4096
Flags: W
LayerCount: 2
Fore
SplineSet
2048 832 m 0
 2439 832 2794 743 3054 595 c 0
 3315 448 3484 238 3484 0 c 0
 3484 -238 3315 -448 3054 -595 c 0
 2794 -743 2439 -832 2048 -832 c 0
 1657 -832 1302 -743 1042 -595 c 0
 781 -448 612 -238 612 0 c 0
 612 238 781 448 1042 595 c 0
 1302 743 1657 832 2048 832 c 0
2048 747 m 0
 1670 747 1328 659 1084 521 c 0
 840 383 697 198 697 0 c 0
 697 -198 840 -383 1084 -521 c 0
 1328 -659 1670 -747 2048 -747 c 0
 2426 -747 2768 -659 3012 -521 c 0
 3256 -383 3399 -198 3399 0 c 0
 3399 198 3256 383 3012 521 c 0
 2768 659 2426 747 2048 747 c 0
EndSplineSet
Validated: 1
EndChar

StartChar: uF0062
Encoding: 983138 983138 101
Width: 8192
Flags: W
LayerCount: 2
Fore
SplineSet
6662 1528 m 2
 6664 1528 l 2
 6693 1528 6734 1511 6754 1490 c 2
 8155 90 l 2
 8175 70 8192 29 8192 0 c 0
 8192 -30 8175 -70 8155 -91 c 2
 6755 -1490 l 2
 6734 -1511 6693 -1528 6664 -1528 c 0
 6635 -1528 6594 -1511 6574 -1490 c 2
 5211 -128 l 1
 4422 -128 l 1
 4086 -128 l 1
 0 -128 l 1
 0 128 l 1
 4086 128 l 1
 4422 128 l 1
 5211 128 l 1
 6573 1490 l 2
 6594 1511 6633 1528 6662 1528 c 2
6664 1219 m 1
 5445 0 l 1
 6664 -1219 l 1
 7883 0 l 1
 6664 1219 l 1
EndSplineSet
Validated: 1
EndChar

StartChar: uF0063
Encoding: 983139 983139 102
Width: 8192
Flags: W
LayerCount: 2
Fore
SplineSet
1619 1490 m 2
 2981 128 l 1
 3770 128 l 1
 4106 128 l 1
 8192 128 l 1
 8192 -128 l 1
 4106 -128 l 1
 3770 -128 l 1
 2981 -128 l 1
 1618 -1490 l 2
 1598 -1511 1557 -1528 1528 -1528 c 0
 1499 -1528 1458 -1511 1437 -1490 c 2
 37 -91 l 2
 17 -70 0 -30 0 0 c 0
 0 29 17 70 37 90 c 2
 1438 1490 l 2
 1458 1511 1499 1528 1528 1528 c 0
 1559 1528 1597 1512 1619 1490 c 2
1528 1219 m 1
 309 0 l 1
 1528 -1219 l 1
 2747 0 l 1
 1528 1219 l 1
EndSplineSet
Validated: 1
EndChar

StartChar: uF0064
Encoding: 983140 983140 103
Width: 4096
Flags: W
LayerCount: 2
Fore
SplineSet
2046 4096 m 2
 2048 4096 l 2
 2077 4096 2118 4079 2138 4059 c 2
 3538 2659 l 2
 3559 2638 3576 2598 3576 2568 c 0
 3576 2539 3559 2499 3538 2478 c 2
 2176 1116 l 1
 2176 -4096 l 1
 1920 -4096 l 1
 1920 1116 l 1
 558 2478 l 2
 537 2499 520 2539 520 2568 c 0
 520 2598 537 2638 558 2659 c 2
 1957 4059 l 2
 1978 4079 2017 4096 2046 4096 c 2
2048 3787 m 1
 829 2568 l 1
 2048 1350 l 1
 3267 2568 l 1
 2048 3787 l 1
EndSplineSet
Validated: 1
EndChar

StartChar: uF0065
Encoding: 983141 983141 104
Width: 4096
Flags: W
LayerCount: 2
Fore
SplineSet
2046 -4096 m 2
 2017 -4096 1978 -4079 1957 -4059 c 2
 558 -2659 l 2
 537 -2638 520 -2598 520 -2568 c 0
 520 -2539 537 -2499 558 -2478 c 2
 1920 -1116 l 1
 1920 4096 l 1
 2176 4096 l 1
 2176 -1116 l 1
 3538 -2478 l 2
 3559 -2499 3576 -2539 3576 -2568 c 0
 3576 -2598 3559 -2638 3538 -2659 c 2
 2138 -4059 l 2
 2118 -4079 2077 -4096 2048 -4096 c 2
 2046 -4096 l 2
2048 -3787 m 1
 3267 -2568 l 1
 2048 -1350 l 1
 829 -2568 l 1
 2048 -3787 l 1
EndSplineSet
Validated: 1
EndChar

StartChar: uF0066
Encoding: 983142 983142 105
Width: 8192
Flags: W
LayerCount: 2
Fore
SplineSet
9725 1333 m 0
 10460 1333 11059 735 11059 0 c 0
 11059 -735 10460 -1333 9725 -1333 c 0
 8991 -1333 8392 -735 8392 0 c 0
 8392 735 8991 1333 9725 1333 c 0
6084 1273 m 2
 6104 1273 6125 1267 6145 1256 c 2
 8128 111 l 2
 8147 101 8162 86 8173 68 c 0
 8211 6 8191 -75 8128 -111 c 2
 6145 -1256 l 2
 6060 -1305 5953 -1243 5953 -1145 c 2
 5953 -128 l 1
 4422 -128 l 1
 0 -128 l 1
 0 128 l 1
 4086 128 l 1
 4422 128 l 1
 5953 128 l 1
 5953 1145 l 2
 5953 1219 6013 1272 6079 1273 c 2
 6084 1273 l 2
9725 1077 m 0
 9129 1077 8648 597 8648 0 c 0
 8648 -276 8754 -524 8923 -714 c 1
 10289 915 l 1
 10125 1016 9933 1077 9725 1077 c 0
10491 759 m 1
 9114 -886 l 1
 9287 -1006 9498 -1077 9725 -1077 c 0
 10322 -1077 10803 -596 10803 0 c 0
 10803 297 10684 564 10491 759 c 1
EndSplineSet
Validated: 1
EndChar

StartChar: uF0067
Encoding: 983143 983143 106
Width: 8192
Flags: W
LayerCount: 2
Fore
SplineSet
-1533 1333 m 0
 -799 1333 -200 735 -200 0 c 0
 -200 -735 -799 -1333 -1533 -1333 c 0
 -2268 -1333 -2867 -735 -2867 0 c 0
 -2867 735 -2268 1333 -1533 1333 c 0
2113 1273 m 0
 2179 1272 2239 1219 2239 1145 c 2
 2239 128 l 1
 3770 128 l 1
 4106 128 l 1
 8192 128 l 1
 8192 -128 l 1
 3770 -128 l 1
 2239 -128 l 1
 2239 -1145 l 2
 2239 -1243 2132 -1305 2047 -1256 c 2
 64 -111 l 2
 1 -75 -19 6 19 68 c 0
 30 86 45 101 64 111 c 2
 2047 1256 l 2
 2069 1268 2089 1273 2113 1273 c 0
-1533 1077 m 0
 -1741 1077 -1933 1016 -2097 915 c 1
 -731 -714 l 1
 -562 -524 -456 -276 -456 0 c 0
 -456 597 -937 1077 -1533 1077 c 0
-2299 759 m 1
 -2492 564 -2611 297 -2611 0 c 0
 -2611 -596 -2130 -1077 -1533 -1077 c 0
 -1306 -1077 -1095 -1006 -922 -886 c 1
 -2299 759 l 1
EndSplineSet
Validated: 1
EndChar

StartChar: uF0068
Encoding: 983144 983144 107
Width: 4096
Flags: W
LayerCount: 2
Fore
SplineSet
2048 6963 m 0
 2783 6963 3381 6364 3381 5629 c 0
 3381 4894 2783 4296 2048 4296 c 0
 1313 4296 715 4894 715 5629 c 0
 715 6364 1313 6963 2048 6963 c 0
2048 6707 m 0
 1751 6707 1484 6588 1289 6395 c 1
 2934 5017 l 1
 3054 5191 3125 5401 3125 5629 c 0
 3125 6226 2644 6707 2048 6707 c 0
1133 6193 m 1
 1032 6029 971 5837 971 5629 c 0
 971 5033 1451 4552 2048 4552 c 0
 2324 4552 2572 4658 2762 4827 c 1
 1133 6193 l 1
2048 4096 m 0
 2092 4096 2135 4073 2159 4032 c 2
 3084 2429 l 1
 3304 2049 l 2
 3353 1964 3291 1857 3193 1857 c 2
 2176 1857 l 1
 2176 -1239 l 1
 2176 -4096 l 1
 1920 -4096 l 1
 1920 -1239 l 1
 1920 1857 l 1
 903 1857 l 2
 829 1857 776 1917 775 1983 c 0
 774 2005 780 2028 792 2049 c 2
 1937 4032 l 2
 1947 4051 1962 4066 1980 4077 c 0
 2001 4090 2025 4096 2048 4096 c 0
EndSplineSet
Validated: 1
EndChar

StartChar: uF0069
Encoding: 983145 983145 108
Width: 4096
Flags: W
LayerCount: 2
Fore
SplineSet
1920 4096 m 1
 2176 4096 l 1
 2176 1239 l 1
 2176 -1857 l 1
 3193 -1857 l 2
 3202 -1857 3210 -1858 3218 -1859 c 2
 3229 -1862 l 2
 3277 -1878 3311 -1916 3319 -1964 c 0
 3319 -1965 3320 -1965 3320 -1966 c 2
 3320 -1967 l 2
 3321 -1972 3321 -1978 3321 -1983 c 0
 3322 -2005 3316 -2028 3304 -2049 c 2
 2159 -4032 l 2
 2149 -4051 2134 -4066 2116 -4077 c 0
 2085 -4096 2050 -4100 2018 -4092 c 0
 1995 -4087 1973 -4075 1956 -4058 c 0
 1956 -4057 1956 -4057 1955 -4057 c 2
 1955 -4056 l 1
 1948 -4049 1942 -4041 1937 -4032 c 2
 792 -2049 l 2
 778 -2024 773 -1997 776 -1971 c 0
 783 -1910 834 -1857 903 -1857 c 2
 1920 -1857 l 1
 1920 1239 l 1
 1920 4096 l 1
2048 -4296 m 0
 2783 -4296 3381 -4894 3381 -5629 c 0
 3381 -6364 2783 -6963 2048 -6963 c 0
 1313 -6963 715 -6364 715 -5629 c 0
 715 -4894 1313 -4296 2048 -4296 c 0
2048 -4552 m 0
 1772 -4552 1524 -4658 1334 -4827 c 1
 2963 -6193 l 1
 3064 -6029 3125 -5837 3125 -5629 c 0
 3125 -5033 2645 -4552 2048 -4552 c 0
1162 -5017 m 1
 1042 -5191 971 -5401 971 -5629 c 0
 971 -6226 1452 -6707 2048 -6707 c 0
 2345 -6707 2612 -6588 2807 -6395 c 1
 1162 -5017 l 1
EndSplineSet
Validated: 1
EndChar

StartChar: uF006A
Encoding: 983146 983146 109
Width: 8192
Flags: W
LayerCount: 2
Fore
SplineSet
7936 1030 m 1
 8192 1030 l 1
 8192 127 l 1
 8192 -128 l 1
 8192 -1030 l 1
 7936 -1030 l 1
 7936 -128 l 1
 4422 -128 l 1
 4086 -128 l 1
 0 -128 l 1
 0 128 l 1
 4422 128 l 1
 4422 127 l 1
 7936 127 l 1
 7936 1030 l 1
EndSplineSet
Validated: 1
EndChar

StartChar: uF006B
Encoding: 983147 983147 110
Width: 8192
Flags: W
LayerCount: 2
Fore
SplineSet
0 1030 m 1
 256 1030 l 1
 256 127 l 1
 3770 127 l 1
 3770 128 l 1
 8192 128 l 1
 8192 -128 l 1
 4106 -128 l 1
 3770 -128 l 1
 256 -128 l 1
 256 -1030 l 1
 0 -1030 l 1
 0 -128 l 1
 0 127 l 1
 0 1030 l 1
EndSplineSet
Validated: 1
EndChar

StartChar: uF006C
Encoding: 983148 983148 111
Width: 4096
Flags: W
LayerCount: 2
Fore
SplineSet
1018 4096 m 1
 1920 4096 l 1
 2176 4096 l 1
 3078 4096 l 1
 3078 3840 l 1
 2176 3840 l 1
 2176 -4096 l 1
 1920 -4096 l 1
 1920 3840 l 1
 1018 3840 l 1
 1018 4096 l 1
EndSplineSet
Validated: 1
EndChar

StartChar: uF006D
Encoding: 983149 983149 112
Width: 4096
Flags: W
LayerCount: 2
Fore
SplineSet
1018 -4096 m 1
 1018 -3840 l 1
 1920 -3840 l 1
 1920 4096 l 1
 2176 4096 l 1
 2176 -3840 l 1
 3078 -3840 l 1
 3078 -4096 l 1
 2176 -4096 l 1
 1920 -4096 l 1
 1018 -4096 l 1
EndSplineSet
Validated: 1
EndChar

StartChar: uF006E
Encoding: 983150 983150 113
Width: 8192
Flags: W
LayerCount: 2
Fore
SplineSet
6080 1273 m 0
 6103 1273 6124 1268 6145 1256 c 2
 8128 111 l 2
 8146 100 8162 85 8173 67 c 0
 8211 6 8191 -75 8128 -111 c 2
 6145 -1256 l 2
 6060 -1305 5953 -1243 5953 -1145 c 2
 5953 -128 l 1
 4422 -128 l 1
 4086 -128 l 1
 0 -128 l 1
 0 128 l 1
 4086 128 l 1
 4422 128 l 1
 5953 128 l 1
 5953 1145 l 2
 5953 1219 6014 1272 6080 1273 c 0
EndSplineSet
Validated: 1
EndChar

StartChar: uF006F
Encoding: 983151 983151 114
Width: 8192
Flags: W
LayerCount: 2
Fore
SplineSet
2112 1273 m 2
 2178 1272 2239 1219 2239 1145 c 2
 2239 128 l 1
 3770 128 l 1
 4106 128 l 1
 8192 128 l 1
 8192 -128 l 1
 4106 -128 l 1
 3770 -128 l 1
 2239 -128 l 1
 2239 -1145 l 2
 2239 -1243 2132 -1305 2047 -1256 c 2
 64 -111 l 2
 1 -75 -19 6 19 67 c 0
 30 85 46 100 64 111 c 2
 2047 1256 l 2
 2067 1267 2088 1273 2109 1273 c 2
 2112 1273 l 2
EndSplineSet
Validated: 1
EndChar

StartChar: uF0070
Encoding: 983152 983152 115
Width: 4096
Flags: W
LayerCount: 2
Fore
SplineSet
2048 4096 m 0
 2092 4096 2135 4073 2159 4032 c 2
 3304 2049 l 2
 3353 1964 3291 1857 3193 1857 c 2
 2176 1857 l 1
 2176 -4096 l 1
 1920 -4096 l 1
 1920 1857 l 1
 903 1857 l 2
 805 1857 743 1964 792 2049 c 2
 1937 4032 l 2
 1948 4050 1963 4066 1981 4077 c 0
 2002 4090 2025 4096 2048 4096 c 0
EndSplineSet
Validated: 1
EndChar

StartChar: uF0071
Encoding: 983153 983153 116
Width: 4096
Flags: W
LayerCount: 2
Fore
SplineSet
2048 -4096 m 0
 2025 -4096 2002 -4090 1981 -4077 c 0
 1963 -4066 1948 -4050 1937 -4032 c 2
 792 -2049 l 2
 743 -1964 805 -1857 903 -1857 c 2
 1920 -1857 l 1
 1920 4096 l 1
 2176 4096 l 1
 2176 -1857 l 1
 3193 -1857 l 2
 3291 -1857 3353 -1964 3304 -2049 c 2
 2159 -4032 l 2
 2135 -4073 2092 -4096 2048 -4096 c 0
EndSplineSet
Validated: 1
EndChar

StartChar: uF0072
Encoding: 983154 983154 117
Width: 8192
Flags: W
LayerCount: 2
Fore
SplineSet
6145 1256 m 2
 8128 111 l 2
 8143 102 8163 83 8173 67 c 0
 8183 50 8192 20 8192 0 c 0
 8192 -41 8163 -90 8128 -111 c 2
 6145 -1256 l 2
 6128 -1265 6100 -1273 6081 -1273 c 0
 6010 -1273 5953 -1216 5953 -1145 c 2
 5953 -128 l 1
 4422 -128 l 1
 4086 -128 l 1
 0 -128 l 1
 0 128 l 1
 4086 128 l 1
 4422 128 l 1
 5953 128 l 1
 5953 1145 l 2
 5953 1216 6010 1273 6081 1273 c 0
 6101 1273 6129 1265 6145 1256 c 2
6209 923 m 1
 6209 -923 l 1
 7808 0 l 1
 6209 923 l 1
EndSplineSet
Validated: 1
EndChar

StartChar: uF0073
Encoding: 983155 983155 118
Width: 8192
Flags: W
LayerCount: 2
Fore
SplineSet
2111 1273 m 0
 2182 1273 2239 1217 2239 1146 c 2
 2239 128 l 1
 3770 128 l 1
 4106 128 l 1
 8192 128 l 1
 8192 -128 l 1
 4106 -128 l 1
 3770 -128 l 1
 2239 -128 l 1
 2239 -1145 l 2
 2239 -1216 2182 -1273 2111 -1273 c 0
 2092 -1273 2064 -1265 2047 -1256 c 2
 64 -111 l 2
 29 -90 0 -41 0 0 c 0
 0 20 9 50 19 67 c 0
 29 83 49 102 64 111 c 2
 2047 1256 l 2
 2063 1265 2091 1273 2111 1273 c 0
1983 923 m 1
 384 0 l 1
 1983 -923 l 1
 1983 923 l 1
EndSplineSet
Validated: 1
EndChar

StartChar: uF0074
Encoding: 983156 983156 119
Width: 4096
Flags: W
LayerCount: 2
Fore
SplineSet
2054 4096 m 2
 2093 4094 2140 4065 2159 4032 c 2
 3304 2049 l 2
 3313 2032 3321 2004 3321 1985 c 0
 3321 1914 3264 1857 3193 1857 c 2
 2176 1857 l 1
 2176 -4096 l 1
 1920 -4096 l 1
 1920 1857 l 1
 903 1857 l 2
 832 1857 775 1914 775 1985 c 0
 775 2004 783 2032 792 2049 c 2
 1937 4032 l 2
 1946 4047 1965 4067 1981 4077 c 0
 1998 4087 2028 4096 2048 4096 c 2
 2054 4096 l 2
2048 3712 m 1
 1125 2113 l 1
 2971 2113 l 1
 2048 3712 l 1
EndSplineSet
Validated: 1
EndChar

StartChar: uF0075
Encoding: 983157 983157 120
Width: 4096
Flags: W
LayerCount: 2
Fore
SplineSet
2054 -4096 m 2
 2048 -4096 l 2
 2028 -4096 1998 -4087 1981 -4077 c 0
 1965 -4067 1946 -4047 1937 -4032 c 2
 792 -2049 l 2
 783 -2032 775 -2004 775 -1985 c 0
 775 -1914 832 -1857 903 -1857 c 2
 1920 -1857 l 1
 1920 4096 l 1
 2176 4096 l 1
 2176 -1857 l 1
 3193 -1857 l 2
 3264 -1857 3321 -1914 3321 -1985 c 0
 3321 -2004 3313 -2032 3304 -2049 c 2
 2159 -4032 l 2
 2140 -4065 2093 -4094 2054 -4096 c 2
2048 -3712 m 1
 2971 -2113 l 1
 1125 -2113 l 1
 2048 -3712 l 1
EndSplineSet
Validated: 1
EndChar

StartChar: uF0076
Encoding: 983158 983158 121
Width: 4096
Flags: W
LayerCount: 2
Fore
SplineSet
0 128 m 1
 4096 128 l 1
 4096 -128 l 1
 0 -128 l 1
 0 128 l 1
1920 -4096 m 1
 1920 -384 l 1
 2176 -384 l 1
 2176 -4096 l 1
 1920 -4096 l 1
1920 384 m 1
 1920 4096 l 1
 2176 4096 l 1
 2176 384 l 1
 1920 384 l 1
EndSplineSet
Validated: 1
EndChar

StartChar: uF0077
Encoding: 983159 983159 122
Width: 4096
Flags: W
LayerCount: 2
Fore
SplineSet
0 128 m 1
 4096 128 l 1
 4096 -128 l 1
 2176 -128 l 1
 2176 -4096 l 1
 1920 -4096 l 1
 1920 -128 l 1
 0 -128 l 1
 0 128 l 1
EndSplineSet
Validated: 1
EndChar

StartChar: uF0078
Encoding: 983160 983160 123
Width: 4096
Flags: W
LayerCount: 2
Fore
SplineSet
1920 4096 m 1
 2176 4096 l 1
 2176 128 l 1
 4096 128 l 1
 4096 -128 l 1
 0 -128 l 1
 0 128 l 1
 1920 128 l 1
 1920 4096 l 1
EndSplineSet
Validated: 1
EndChar

StartChar: uF0079
Encoding: 983161 983161 124
Width: 4096
Flags: W
LayerCount: 2
Fore
SplineSet
1920 4096 m 1
 2176 4096 l 1
 2176 128 l 1
 4096 128 l 1
 4096 -128 l 1
 2176 -128 l 1
 2176 -4096 l 1
 1920 -4096 l 1
 1920 4096 l 1
EndSplineSet
Validated: 1
EndChar

StartChar: uF007A
Encoding: 983162 983162 125
Width: 4096
Flags: W
LayerCount: 2
Fore
SplineSet
2176 4096 m 1
 2176 -4096 l 1
 1920 -4096 l 1
 1920 -128 l 1
 0 -128 l 1
 0 128 l 1
 1920 128 l 1
 1920 4096 l 1
 2176 4096 l 1
EndSplineSet
Validated: 1
EndChar

StartChar: uF007B
Encoding: 983163 983163 126
Width: 4096
Flags: W
LayerCount: 2
Fore
SplineSet
1920 4096 m 1
 2176 4096 l 1
 2176 128 l 1
 2176 -128 l 1
 1920 -128 l 1
 0 -128 l 1
 0 128 l 1
 1920 128 l 1
 1920 4096 l 1
EndSplineSet
Validated: 1
EndChar

StartChar: uF007C
Encoding: 983164 983164 127
Width: 4096
Flags: W
LayerCount: 2
Fore
SplineSet
1920 -4096 m 1
 1920 -128 l 1
 0 -128 l 1
 0 128 l 1
 1920 128 l 1
 2176 128 l 1
 2176 -128 l 1
 2176 -4096 l 1
 1920 -4096 l 1
EndSplineSet
Validated: 1
EndChar

StartChar: uF007D
Encoding: 983165 983165 128
Width: 4096
Flags: W
LayerCount: 2
Fore
SplineSet
2176 4096 m 1
 2176 128 l 1
 4096 128 l 1
 4096 -128 l 1
 2176 -128 l 1
 1920 -128 l 1
 1920 128 l 1
 1920 4096 l 1
 2176 4096 l 1
EndSplineSet
Validated: 1
EndChar

StartChar: uF007E
Encoding: 983166 983166 129
Width: 4096
Flags: W
LayerCount: 2
Fore
SplineSet
2176 -4096 m 1
 1920 -4096 l 1
 1920 -128 l 1
 1920 128 l 1
 2176 128 l 1
 4096 128 l 1
 4096 -128 l 1
 2176 -128 l 1
 2176 -4096 l 1
EndSplineSet
Validated: 1
EndChar

StartChar: uF007F
Encoding: 983167 983167 130
Width: 4096
Flags: W
HStem: -128 256<0 1920 2176 4096> 1548 245<1732.82 1931 2165 2363.18> 2731 256<1733.08 2362.92>
VStem: 1323 256<1947.43 2576.92> 1920 256<128 1547.34> 2517 256<1947.43 2576.92>
CounterMasks: 1 1c
LayerCount: 2
Fore
SplineSet
2048 2987 m 4
 2447 2987 2773 2661 2773 2262 c 4
 2773 1903 2509 1604 2165 1548 c 5
 2171 1534 2176 1511 2176 1496 c 6
 2176 1495 l 5
 2176 130 l 5
 2176 128 l 5
 4096 128 l 5
 4096 -128 l 5
 0 -128 l 5
 0 128 l 5
 1920 128 l 5
 1920 130 l 5
 1920 1495 l 5
 1920 1496 l 6
 1920 1511 1925 1534 1931 1548 c 5
 1587 1604 1323 1903 1323 2262 c 4
 1323 2661 1649 2987 2048 2987 c 4
2048 2731 m 4
 1787 2731 1579 2523 1579 2262 c 4
 1579 2002 1787 1793 2048 1793 c 4
 2309 1793 2517 2002 2517 2262 c 4
 2517 2523 2309 2731 2048 2731 c 4
2134 2265 m 1
 2200 2294 2265 2323 2330 2352 c 1
 2349 2297 2368 2242 2387 2188 c 1
 2317 2171 2248 2154 2178 2137 c 1
 2230 2078 2282 2018 2333 1959 c 1
 2282 1926 2231 1892 2180 1858 c 1
 2140 1928 2099 1998 2058 2068 c 1
 2017 1998 1976 1928 1934 1858 c 1
 1883 1893 1831 1927 1779 1961 c 1
 1832 2020 1885 2078 1938 2137 c 1
 1868 2154 1799 2171 1729 2188 c 1
 1748 2242 1767 2297 1786 2352 c 1
 1852 2323 1919 2294 1985 2265 c 1
 1980 2341 1975 2417 1970 2493 c 1
 2030 2493 2090 2493 2149 2493 c 1
 2144 2417 2139 2341 2134 2265 c 1
EndSplineSet
Validated: 1
EndChar

StartChar: uF0083
Encoding: 983171 983171 131
Width: 4096
Flags: W
HStem: -1722.86 256<-639.24 -383.24 -127.24 128.76 384.76 640.76 896.76 1291.77 1292.25 1292.64 1293.13 3352.81> -127.434 256<3969.89 4096.76>
VStem: -639.24 256<-1722.87 -1466.87> -127.24 256<-1722.87 -1466.87> 384.76 256<-1722.87 -1466.87>
CounterMasks: 1 38
LayerCount: 2
Fore
SplineSet
3968.76074219 128.56640625 m 1
 4096.76074219 128.56640625 l 1
 4096.76074219 -127.43359375 l 1
 3971.44433594 -127.43359375 l 2
 3971.015625 -127.486328125 3970.3203125 -127.567382812 3969.89160156 -127.615234375 c 2
 3969.89160156 -127.615234375 3388.36425781 -175.588867188 2808.24023438 -260.734375 c 0
 2518.17871094 -303.306640625 2228.09277344 -355.57421875 2017.46875 -413.46484375 c 0
 1920.88867188 -440.010742188 1841.00097656 -468.458984375 1789.84179688 -493.33984375 c 1
 1839.91015625 -514.950195312 1916.52832031 -539.3671875 2008.22851562 -562.248046875 c 0
 2219.828125 -615.044921875 2513.45019531 -663.872070312 2808.92773438 -714.361328125 c 0
 3104.40625 -764.850585938 3401.67773438 -816.87109375 3633.68261719 -881.658203125 c 0
 3749.68457031 -914.051757812 3849.08007812 -948.54296875 3930.38964844 -994.837890625 c 0
 3971.04394531 -1017.98535156 4007.96386719 -1044.05273438 4039.42285156 -1080.83203125 c 0
 4070.88085938 -1117.61132812 4096.76074219 -1170.31054688 4096.76074219 -1227.99609375 c 0
 4096.76074219 -1290.33984375 4065.00390625 -1345.65136719 4029.37890625 -1381.45898438 c 0
 3993.75488281 -1417.26660156 3953.20800781 -1441.17773438 3908.16210938 -1462.38867188 c 0
 3818.07226562 -1504.81152344 3706.78515625 -1535.07128906 3575.96191406 -1561.72851562 c 0
 3314.31445312 -1615.04394531 2976.72460938 -1649.58007812 2639.34960938 -1673.265625 c 0
 1964.6015625 -1720.63671875 1292.64453125 -1722.84375 1292.64453125 -1722.84375 c 2
 1291.71875 -1722.83984375 1290.21484375 -1722.81347656 1289.2890625 -1722.78515625 c 2
 1289.2890625 -1722.86328125 l 1
 896.759765625 -1722.86328125 l 1
 896.759765625 -1466.86328125 l 1
 1279.75390625 -1466.86328125 l 2
 1282.79101562 -1466.60058594 1287.72851562 -1466.38867188 1290.77636719 -1466.38867188 c 0
 1291.04882812 -1466.38867188 1291.49316406 -1466.38964844 1291.765625 -1466.39257812 c 2
 1291.765625 -1466.39257812 1957.97460938 -1464.01464844 2621.38867188 -1417.43945312 c 0
 2953.09667969 -1394.15136719 3284.59082031 -1359.375 3524.75390625 -1310.4375 c 0
 3644.83691406 -1285.96875 3742.63769531 -1256.86621094 3798.90820312 -1230.36914062 c 0
 3803.99902344 -1227.97167969 3808.29003906 -1225.64746094 3812.63574219 -1223.32421875 c 1
 3809.63769531 -1221.45410156 3806.90527344 -1219.63867188 3803.49902344 -1217.69921875 c 0
 3755.52441406 -1190.38378906 3670.24804688 -1158.13671875 3564.70410156 -1128.6640625 c 0
 3353.61425781 -1069.71679688 3060.28417969 -1017.48046875 2765.73242188 -967.150390625 c 0
 2471.18164062 -916.819335938 2175.34765625 -868.262695312 1946.14257812 -811.07421875 c 0
 1831.54101562 -782.479492188 1734.15917969 -752.7890625 1654.5859375 -713.303710938 c 0
 1614.79980469 -693.561523438 1578.703125 -671.813476562 1546.15429688 -638.447265625 c 0
 1513.60644531 -605.080078125 1482.99121094 -551.53125 1484.828125 -490.875 c 0
 1486.64746094 -430.845703125 1517.31835938 -382.296875 1549.16992188 -349.716796875 c 0
 1581.02246094 -317.135742188 1616.75683594 -294.2890625 1656.57421875 -273.263671875 c 0
 1736.20996094 -231.211914062 1834.41210938 -197.81640625 1949.50195312 -166.18359375 c 0
 2179.68164062 -102.916992188 2475.61523438 -50.353515625 2771 -7 c 0
 3361.77050781 79.7080078125 3948.84472656 127.97265625 3948.84472656 127.97265625 c 2
 3951.30664062 128.2109375 3955.3125 128.45703125 3957.78613281 128.521484375 c 0
 3958.46972656 128.53515625 3959.58007812 128.545898438 3960.26367188 128.545898438 c 0
 3962.61132812 128.545898438 3966.41796875 128.419921875 3968.76074219 128.263671875 c 2
 3968.76074219 128.56640625 l 1
-127.240234375 -1722.86523438 m 1
 -127.240234375 -1466.86523438 l 1
 128.759765625 -1466.86523438 l 1
 128.759765625 -1722.86523438 l 1
 -127.240234375 -1722.86523438 l 1
384.759765625 -1722.86523438 m 1
 384.759765625 -1466.86523438 l 1
 640.759765625 -1466.86523438 l 1
 640.759765625 -1722.86523438 l 1
 384.759765625 -1722.86523438 l 1
-639.240234375 -1722.86523438 m 1
 -639.240234375 -1466.86523438 l 1
 -383.240234375 -1466.86523438 l 1
 -383.240234375 -1722.86523438 l 1
 -639.240234375 -1722.86523438 l 1
EndSplineSet
Validated: 1
EndChar

StartChar: uF0080
Encoding: 983168 983168 132
Width: 4096
Flags: W
HStem: -2987 256<1733.08 2362.92> -1793 245<1732.82 1931 2165 2363.18> -128 256<0 1920 2176 4096>
VStem: 1323 256<-2576.92 -1947.43> 1920 256<-1547.34 -128> 2517 256<-2576.92 -1947.43>
CounterMasks: 1 1c
LayerCount: 2
Fore
SplineSet
1981.75097656 -2265.2265625 m 5
 1785.921875 -2351.89160156 l 5
 1729.25585938 -2187.72851562 l 5
 1937.58496094 -2136.89550781 l 5
 1782.58789062 -1959.39941406 l 5
 1935.91894531 -1858.56738281 l 5
 2057.58300781 -2068.56347656 l 5
 2181.74707031 -1858.56738281 l 5
 2336.74414062 -1961.06542969 l 5
 2178.4140625 -2136.89550781 l 5
 2386.74414062 -2187.72851562 l 5
 2330.078125 -2351.89160156 l 5
 2130.91503906 -2265.2265625 l 5
 2145.91503906 -2493.55566406 l 5
 1966.75097656 -2493.55566406 l 5
 1981.75097656 -2265.2265625 l 5
2048 -2987 m 0
 1649 -2987 1323 -2661 1323 -2262 c 0
 1323 -1903 1587 -1604 1931 -1548 c 1
 1925 -1534 1920 -1511 1920 -1496 c 2
 1920 -1495 l 1
 1920 -130 l 1
 1920 -128 l 1
 0 -128 l 1
 0 128 l 1
 4096 128 l 1
 4096 -128 l 1
 2176 -128 l 1
 2176 -130 l 1
 2176 -1495 l 1
 2176 -1496 l 2
 2176 -1511 2171 -1534 2165 -1548 c 1
 2509 -1604 2773 -1903 2773 -2262 c 0
 2773 -2661 2447 -2987 2048 -2987 c 0
2048 -2731 m 0
 2309 -2731 2517 -2523 2517 -2262 c 0
 2517 -2002 2309 -1793 2048 -1793 c 0
 1787 -1793 1579 -2002 1579 -2262 c 0
 1579 -2523 1787 -2731 2048 -2731 c 0
EndSplineSet
Validated: 1
EndChar

StartChar: uF0081
Encoding: 983169 983169 133
Width: 4096
Flags: W
HStem: -128 256<0 1917 2207 4096> 2788 256<1733.08 2362.92>
VStem: 1323 256<1999.64 2633.46> 1818 460<753.612 1032.12> 1917 366<131.469 349.33> 2517 256<2003.76 2633.46>
LayerCount: 2
Fore
SplineSet
2134.24804688 2322.10351562 m 1xe4
 2199.52539062 2350.99121094 2264.80175781 2379.87988281 2330.078125 2408.76855469 c 1
 2348.96679688 2354.046875 2367.85546875 2299.32617188 2386.74414062 2244.60449219 c 1
 2317.30078125 2227.66015625 2247.85742188 2210.71679688 2178.4140625 2193.77246094 c 1
 2230.08007812 2134.60644531 2281.74609375 2075.44140625 2333.41113281 2016.27539062 c 1
 2282.30078125 1982.66503906 2231.19140625 1949.0546875 2180.08105469 1915.44433594 c 1
 2139.52636719 1985.44238281 2098.97167969 2055.44140625 2058.41601562 2125.44042969 c 1
 2017.02832031 2055.44140625 1975.640625 1985.44238281 1934.25195312 1915.44433594 c 1
 1882.5859375 1949.61035156 1830.92089844 1983.77636719 1779.25488281 2017.94238281 c 1
 1832.03125 2076.55175781 1884.80859375 2135.16210938 1937.58496094 2193.77246094 c 1
 1868.14257812 2210.71679688 1798.69921875 2227.66015625 1729.25585938 2244.60449219 c 1
 1748.14453125 2299.32617188 1767.03320312 2354.046875 1785.921875 2408.76855469 c 1
 1852.30957031 2379.87988281 1918.69726562 2350.99121094 1985.08496094 2322.10351562 c 1
 1980.08496094 2398.21289062 1975.08496094 2474.32226562 1970.08496094 2550.43261719 c 1
 2029.80566406 2550.43261719 2089.52734375 2550.43261719 2149.24804688 2550.43261719 c 1
 2144.24804688 2474.32226562 2139.24804688 2398.21289062 2134.24804688 2322.10351562 c 1xe4
2048 3044 m 0
 2447 3044 2773 2718 2773 2318 c 0
 2773 1960 2509 1661 2166 1604 c 1
 2161 1586 2146 1561 2133 1548 c 0
 2059 1474 2068 1460 2069 1455 c 0
 2070 1451 2093 1418 2139 1370 c 0
 2186 1322 2256 1255 2274 1144 c 0
 2277 1129 2278 1113 2278 1098 c 0xf4
 2278 1007 2234 912 2155 817 c 0
 2150 811 2143 802 2137 796 c 0
 2064 723 2073 708 2074 703 c 0
 2075 699 2097 666 2144 618 c 0
 2190 570 2260 503 2279 392 c 0
 2281 377 2283 362 2283 347 c 0
 2283 276 2256 202 2207 128 c 1
 4096 128 l 1
 4096 -128 l 1
 0 -128 l 1
 0 128 l 1
 1917 128 l 1xec
 1917 156 1933 195 1952 216 c 0
 2030 303 2029 336 2026 350 c 0
 2024 364 2004 394 1960 440 c 0
 1916 485 1847 542 1824 649 c 0
 1820 666 1818 683 1818 700 c 0xf4
 1818 786 1862 876 1939 958 c 0
 1941 961 1945 965 1947 968 c 0
 2026 1055 2024 1088 2022 1102 c 0
 2019 1116 1999 1146 1955 1192 c 0
 1912 1237 1843 1294 1819 1401 c 0
 1804 1471 1821 1545 1864 1618 c 1
 1554 1700 1323 1983 1323 2318 c 0
 1323 2718 1649 3044 2048 3044 c 0
2048 2788 m 0
 1787 2788 1579 2579 1579 2318 c 0
 1579 2058 1787 1849 2048 1849 c 0
 2309 1849 2517 2058 2517 2318 c 0
 2517 2579 2309 2788 2048 2788 c 0
EndSplineSet
Validated: 1
EndChar

StartChar: uF0082
Encoding: 983170 983170 134
Width: 4096
Flags: W
HStem: -3044 256<1733.08 2362.92> -128 256<0 1889 2179 4096>
VStem: 1323 256<-2633.46 -2003.76> 1813 366<-349.33 -131.469> 1818 460<-1032.12 -753.612> 2517 256<-2633.46 -1999.64>
LayerCount: 2
Fore
SplineSet
1981.75097656 -2322.2265625 m 1xe4
 1785.921875 -2408.89160156 l 1
 1729.25585938 -2244.72851562 l 1
 1937.58496094 -2193.89550781 l 1
 1782.58789062 -2016.39941406 l 1
 1935.91894531 -1915.56738281 l 1
 2057.58300781 -2125.56347656 l 1
 2181.74707031 -1915.56738281 l 1
 2336.74414062 -2018.06542969 l 1
 2178.4140625 -2193.89550781 l 1
 2386.74414062 -2244.72851562 l 1
 2330.078125 -2408.89160156 l 1
 2130.91503906 -2322.2265625 l 1
 2145.91503906 -2550.55566406 l 1
 1966.75097656 -2550.55566406 l 1
 1981.75097656 -2322.2265625 l 1xe4
2048 -3044 m 0
 1649 -3044 1323 -2718 1323 -2318 c 0
 1323 -1960 1587 -1661 1930 -1604 c 1
 1935 -1586 1950 -1561 1963 -1548 c 0
 2037 -1474 2028 -1460 2027 -1455 c 0
 2026 -1451 2003 -1418 1957 -1370 c 0
 1910 -1322 1840 -1255 1822 -1144 c 0
 1819 -1129 1818 -1113 1818 -1098 c 0xec
 1818 -1007 1862 -912 1941 -817 c 0
 1946 -811 1953 -802 1959 -796 c 0
 2032 -723 2023 -708 2022 -703 c 0
 2021 -699 1999 -666 1952 -618 c 0
 1906 -570 1836 -503 1817 -392 c 0
 1815 -377 1813 -362 1813 -347 c 0
 1813 -276 1840 -202 1889 -128 c 1
 0 -128 l 1
 0 128 l 1
 4096 128 l 5
 4096 -128 l 1
 2179 -128 l 1xf4
 2179 -156 2163 -195 2144 -216 c 0
 2066 -303 2067 -336 2070 -350 c 0
 2072 -364 2092 -394 2136 -440 c 0
 2180 -485 2249 -542 2272 -649 c 0
 2276 -666 2278 -683 2278 -700 c 0xec
 2278 -786 2234 -876 2157 -958 c 0
 2155 -961 2151 -965 2149 -968 c 0
 2070 -1055 2072 -1088 2074 -1102 c 0
 2077 -1116 2097 -1146 2141 -1192 c 0
 2184 -1237 2253 -1294 2277 -1401 c 0
 2292 -1471 2275 -1545 2232 -1618 c 1
 2542 -1700 2773 -1983 2773 -2318 c 0
 2773 -2718 2447 -3044 2048 -3044 c 0
2048 -2788 m 0
 2309 -2788 2517 -2579 2517 -2318 c 0
 2517 -2058 2309 -1849 2048 -1849 c 0
 1787 -1849 1579 -2058 1579 -2318 c 0
 1579 -2579 1787 -2788 2048 -2788 c 0
EndSplineSet
Validated: 1
EndChar

StartChar: uF0084
Encoding: 983172 983172 135
Width: 4096
VWidth: 0
Flags: W
HStem: -1723.43 256<743.947 2803.63 2804.12 2804.51 2804.99 3200 3456 3712 3968 4224 4480 4736> -128.182 256.161<0 126.869>
VStem: 3456 256<-1723.43 -1467.43> 3968 256<-1723.43 -1467.43> 4480 256<-1723.43 -1467.43>
CounterMasks: 1 38
LayerCount: 2
Fore
SplineSet
128 128 m 1
 128 127.697265625 l 2
 130.342773438 127.853515625 134.149414062 127.979492188 136.49609375 127.979492188 c 0
 137.180664062 127.979492188 138.291015625 127.96875 138.974609375 127.955078125 c 0
 141.448242188 127.890625 145.454101562 127.64453125 147.916015625 127.40625 c 2
 147.916015625 127.40625 734.990234375 79.1416015625 1325.75976562 -7.56640625 c 0
 1621.14453125 -50.919921875 1917.07910156 -103.483398438 2147.2578125 -166.75 c 0
 2262.34765625 -198.3828125 2360.54980469 -231.778320312 2440.18554688 -273.830078125 c 0
 2480.00390625 -294.85546875 2515.73828125 -317.702148438 2547.58984375 -350.283203125 c 0
 2579.44238281 -382.86328125 2610.11328125 -431.412109375 2611.93164062 -491.44140625 c 0
 2613.76953125 -552.09765625 2583.15429688 -605.646484375 2550.60644531 -639.013671875 c 0
 2518.05761719 -672.379882812 2481.9609375 -694.127929688 2442.17382812 -713.870117188 c 0
 2362.6015625 -753.35546875 2265.21972656 -783.045898438 2150.6171875 -811.640625 c 0
 1921.41308594 -868.829101562 1625.57910156 -917.385742188 1331.02734375 -967.716796875 c 0
 1036.4765625 -1018.046875 743.146484375 -1070.28320312 532.056640625 -1129.23046875 c 0
 426.512695312 -1158.703125 341.236328125 -1190.95019531 293.26171875 -1218.265625 c 0
 289.85546875 -1220.20507812 287.122070312 -1222.02050781 284.125 -1223.890625 c 1
 288.470703125 -1226.21386719 292.76171875 -1228.53808594 297.8515625 -1230.93554688 c 0
 354.123046875 -1257.43261719 451.923828125 -1286.53515625 572.005859375 -1311.00390625 c 0
 812.169921875 -1359.94140625 1143.6640625 -1394.71777344 1475.37109375 -1418.00585938 c 0
 2138.78613281 -1464.58105469 2804.99414062 -1466.95898438 2804.99414062 -1466.95898438 c 2
 2805.26757812 -1466.95605469 2805.7109375 -1466.95507812 2805.984375 -1466.95507812 c 0
 2809.03222656 -1466.95507812 2813.96972656 -1467.16699219 2817.00683594 -1467.4296875 c 2
 3200.00097656 -1467.4296875 l 1
 3200.00097656 -1723.4296875 l 1
 2807.47167969 -1723.4296875 l 1
 2807.47167969 -1723.3515625 l 2
 2806.54492188 -1723.37988281 2805.04199219 -1723.40625 2804.11523438 -1723.41015625 c 2
 2804.11523438 -1723.41015625 2132.15917969 -1721.203125 1457.41015625 -1673.83203125 c 0
 1120.03613281 -1650.14648438 782.446289062 -1615.61035156 520.798828125 -1562.29492188 c 0
 389.975585938 -1535.63769531 278.688476562 -1505.37792969 188.59765625 -1462.95507812 c 0
 143.552734375 -1441.74414062 103.005859375 -1417.83300781 67.380859375 -1382.02539062 c 0
 31.755859375 -1346.21777344 0 -1290.90625 0 -1228.5625 c 0
 0 -1170.87695312 25.8798828125 -1118.17773438 57.337890625 -1081.3984375 c 0
 88.796875 -1044.61914062 125.716796875 -1018.55175781 166.37109375 -995.404296875 c 0
 247.680664062 -949.109375 347.076171875 -914.618164062 463.078125 -882.224609375 c 0
 695.083007812 -817.4375 992.354492188 -765.416992188 1287.83203125 -714.927734375 c 0
 1583.31054688 -664.438476562 1876.93164062 -615.611328125 2088.53125 -562.814453125 c 0
 2180.23242188 -539.93359375 2256.85058594 -515.516601562 2306.91894531 -493.90625 c 1
 2255.75976562 -469.025390625 2175.87207031 -440.577148438 2079.29101562 -414.03125 c 0
 1868.66699219 -356.140625 1578.58203125 -303.873046875 1288.51953125 -261.30078125 c 0
 708.396484375 -176.155273438 126.869140625 -128.181640625 126.869140625 -128.181640625 c 2
 126.440429688 -128.133789062 125.745117188 -128.052734375 125.31640625 -128 c 2
 0 -128 l 1
 0 128 l 1
 128 128 l 1
4224.00097656 -1723.43164062 m 1
 3968.00097656 -1723.43164062 l 1
 3968.00097656 -1467.43164062 l 1
 4224.00097656 -1467.43164062 l 1
 4224.00097656 -1723.43164062 l 1
3712.00097656 -1723.43164062 m 1
 3456.00097656 -1723.43164062 l 1
 3456.00097656 -1467.43164062 l 1
 3712.00097656 -1467.43164062 l 1
 3712.00097656 -1723.43164062 l 1
4736.00097656 -1723.43164062 m 1
 4480.00097656 -1723.43164062 l 1
 4480.00097656 -1467.43164062 l 1
 4736.00097656 -1467.43164062 l 1
 4736.00097656 -1723.43164062 l 1
EndSplineSet
Validated: 1
EndChar

StartChar: uF0085
Encoding: 983173 983173 136
Width: 4096
VWidth: 0
Flags: W
HStem: -1381 256<2308.13 3246.81 3456 3712 3968 4224 4480 4736> -128 257.013<2488.48 4096>
VStem: 3456 256<-1381 -1125> 3968 256<-1381 -1125> 4480 256<-1381 -1125>
CounterMasks: 1 38
LayerCount: 2
Fore
SplineSet
4097 129 m 1
 4096 -128 l 1
 3497 -128 2700 -183 2257 -282 c 0
 2035 -332 1855 -391 1728 -452 c 0
 1601 -513 1531 -580 1515 -612 c 0
 1499 -645 1496 -647 1542 -697 c 0
 1588 -746 1695 -813 1855 -874 c 0
 2175 -995 2680 -1087 3260 -1125 c 1
 3243 -1381 l 1
 2646 -1342 2126 -1250 1764 -1114 c 0
 1584 -1046 1447 -971 1354 -871 c 0
 1292.91118958 -805.263127922 1256.07230257 -715.717240139 1256.07230257 -627.540263866 c 0
 1256.07230257 -582.922350831 1265.50453734 -538.654934127 1286 -498 c 0
 1347 -376 1463 -295 1617 -221 c 0
 1770 -147 1966 -85 2201 -32 c 0
 2666.94526029 72.094153894 3468.03221403 129.012937448 4081.0395716 129.012937448 c 0
 4086.37407222 129.012937448 4091.69432995 129.008627106 4097 129 c 1
3456 -1125 m 1
 3712 -1125 l 1
 3712 -1381 l 1
 3456 -1381 l 1
 3456 -1125 l 1
3968 -1381 m 1
 3968 -1125 l 1
 4224 -1125 l 1
 4224 -1381 l 1
 3968 -1381 l 1
4480 -1381 m 1
 4480 -1125 l 1
 4736 -1125 l 1
 4736 -1381 l 1
 4480 -1381 l 1
EndSplineSet
Validated: 1
EndChar

StartChar: uF0086
Encoding: 983174 983174 137
Width: 4096
VWidth: 0
Flags: W
HStem: -1382 256<-639 -383 -127 129 385 641 850.192 1788.87> -129 257<0 1608.12>
VStem: -639 256<-1382 -1126> -127 256<-1382 -1126> 385 256<-1382 -1126>
CounterMasks: 1 38
LayerCount: 2
Fore
SplineSet
0 128 m 1
 5 128 11 128 16 128 c 0
 629 128 1430 71 1896 -33 c 0
 2131 -86 2326 -148 2480 -222 c 0
 2633 -296 2750 -377 2811 -499 c 0
 2831 -540 2841 -584 2841 -628 c 0
 2841 -717 2804 -806 2742 -872 c 0
 2650 -972 2513 -1047 2332 -1115 c 0
 1971 -1251 1450 -1343 854 -1382 c 1
 837 -1126 l 1
 1417 -1088 1922 -996 2242 -875 c 0
 2402 -814 2509 -747 2555 -698 c 0
 2601 -648 2598 -646 2582 -613 c 0
 2565 -581 2496 -514 2369 -453 c 0
 2241 -392 2062 -333 1840 -283 c 0
 1396 -184 599 -129 0 -129 c 1
 0 128 l 1
641 -1126 m 1
 641 -1382 l 1
 385 -1382 l 1
 385 -1126 l 1
 641 -1126 l 1
129 -1382 m 1
 -127 -1382 l 1
 -127 -1126 l 1
 129 -1126 l 1
 129 -1382 l 1
-383 -1382 m 1
 -639 -1382 l 1
 -639 -1126 l 1
 -383 -1126 l 1
 -383 -1382 l 1
EndSplineSet
Validated: 1
EndChar

StartChar: uF0087
Encoding: 983175 983175 138
Width: 4096
VWidth: 0
Flags: W
HStem: -128 256<0 791.797 3305.41 4096>
VStem: 1920 256<-4096 -1257.41>
LayerCount: 2
Fore
SplineSet
2048 1280 m 4
 2686.43652344 1279.33203125 3256.40234375 763.236328125 3320.24609375 128 c 5
 4096 128 l 5
 4096 -128 l 5
 3321.57421875 -128 l 5
 3263.27148438 -701.987304688 2750.05371094 -1214.609375 2176 -1272.24609375 c 5
 2176 -4096 l 5
 1920 -4096 l 5
 1920 -1273.57421875 l 5
 1346.01269531 -1215.27148438 833.390625 -702.0546875 775.75390625 -128 c 5
 0 -128 l 5
 0 128 l 5
 774.42578125 128 l 5
 838.3359375 763.8984375 1408.89746094 1279.99511719 2048 1280 c 4
EndSplineSet
Validated: 1
EndChar

StartChar: uF0088
Encoding: 983176 983176 139
Width: 4096
VWidth: 0
Flags: W
HStem: -128 256<0 791.834 3305.71 4096>
VStem: 1920 256<1257.71 4096>
LayerCount: 2
Fore
SplineSet
2048 -1280 m 0
 1409 -1280 838 -764 774 -128 c 1
 0 -128 l 1
 0 128 l 1
 776 128 l 1
 833 702 1346 1215 1920 1274 c 1
 1920 4096 l 1
 2176 4096 l 1
 2176 1272 l 1
 2750 1215 3263 702 3322 128 c 1
 4096 128 l 1
 4096 -128 l 1
 3320 -128 l 1
 3256 -763 2686 -1279 2048 -1280 c 0
EndSplineSet
Validated: 1
EndChar

StartChar: uF0089
Encoding: 983177 983177 140
Width: 4096
VWidth: 0
Flags: W
HStem: -128 256<3305.71 4096>
VStem: 1920 256<-4096 -1257.71 1256.17 4096>
LayerCount: 2
Fore
SplineSet
2176 4096 m 1
 2176 1272 l 1
 2750 1215 3263 702 3322 128 c 1
 4096 128 l 1
 4096 -128 l 1
 3320 -128 l 1
 3263 -702 2750 -1215 2176 -1274 c 1
 2176 -4096 l 1
 1920 -4096 l 1
 1920 -1272 l 1
 1285 -1208 769 -638 768 0 c 0
 768 639 1284 1210 1920 1274 c 1
 1920 4096 l 1
 2176 4096 l 1
EndSplineSet
Validated: 1
EndChar

StartChar: uF008A
Encoding: 983178 983178 141
Width: 4096
VWidth: 0
Flags: W
HStem: -128 256<0 790.592>
VStem: 1920 256<-4096 -1257.41 1256.2 4096>
LayerCount: 2
Fore
SplineSet
1920 4095.99902344 m 5
 2176 4095.99902344 l 5
 2176 1273.57421875 l 5
 2811.89941406 1209.66308594 3327.99511719 639.102539062 3328 0 c 4
 3327.33203125 -638.436523438 2811.23632812 -1208.40332031 2176 -1272.24609375 c 5
 2176 -4096 l 5
 1920 -4096 l 5
 1920 -1273.57421875 l 5
 1346.01269531 -1215.27148438 833.390625 -702.0546875 775.75390625 -128 c 5
 0 -128 l 5
 0 128 l 5
 774.42578125 128 l 5
 832.728515625 701.986328125 1345.9453125 1214.60839844 1920 1272.24511719 c 5
 1920 4095.99902344 l 5
EndSplineSet
Validated: 1
EndChar

StartChar: uF008B
Encoding: 983179 983179 142
Width: 4096
VWidth: 0
Flags: MW
LayerCount: 2
Fore
SplineSet
2048 1280 m 4
 2687 1280 3258 764 3322 128 c 5
 4096 128 l 5
 4096 -128 l 5
 3320 -128 l 5
 3263 -702 2750 -1215 2176 -1274 c 5
 2176 -4096 l 5
 1920 -4096 l 5
 1920 -1272 l 5
 1346 -1215 833 -702 774 -128 c 5
 0 -128 l 5
 0 128 l 5
 776 128 l 5
 840 763 1410 1279 2048 1280 c 4
2048 1024 m 4
 1483 1024 1024 565 1024 0 c 4
 1024 -565 1483 -1024 2048 -1024 c 4
 2613 -1024 3072 -565 3072 0 c 4
 3072 565 2613 1024 2048 1024 c 4
2048 768 m 4
 2472 768 2816 424 2816 0 c 4
 2816 -424 2472 -768 2048 -768 c 4
 1624 -768 1280 -424 1280 0 c 4
 1280 424 1624 768 2048 768 c 4
2048 512 m 4
 1765 512 1536 283 1536 0 c 4
 1536 -283 1765 -512 2048 -512 c 4
 2331 -512 2560 -283 2560 0 c 4
 2560 283 2331 512 2048 512 c 4
EndSplineSet
Validated: 1
EndChar

StartChar: uF0092
Encoding: 983186 983186 143
Width: 4096
VWidth: 0
Flags: W
HStem: -1280 2560<768 1920 2176 3328> -128 256<0 768>
VStem: 768 2560<-1280 -128 128 1280> 1920 256<-4096 -1280 1280 4096>
LayerCount: 2
Fore
SplineSet
1920 4095.99902344 m 5x90
 2176 4095.99902344 l 5
 2176 1280 l 5x90
 3328 1280 l 5
 3328 -1280 l 5xa0
 2176 -1280 l 5
 2176 -4096 l 5
 1920 -4096 l 5
 1920 -1280 l 5x90
 768 -1280 l 5xa0
 768 -128 l 5
 0 -128 l 5
 0 128 l 5
 768 128 l 5x60
 768 1280 l 5xa0
 1920 1280 l 5
 1920 4095.99902344 l 5x90
EndSplineSet
Validated: 1
EndChar

StartChar: uF0091
Encoding: 983185 983185 144
Width: 4096
VWidth: 0
Flags: W
HStem: -1280 2560<768 1920 2176 3328> -128 256<3328 4096>
VStem: 768 2560<-1280 -128 128 1280> 1920 256<-4096 -1280 1280 4096>
LayerCount: 2
Fore
SplineSet
2176 4096 m 1x90
 2176 1280 l 1x90
 3328 1280 l 1xa0
 3328 128 l 1
 4096 128 l 1
 4096 -128 l 1
 3328 -128 l 1x60
 3328 -1280 l 1xa0
 2176 -1280 l 1
 2176 -4096 l 1
 1920 -4096 l 1
 1920 -1280 l 1x90
 768 -1280 l 1
 768 1280 l 1xa0
 1920 1280 l 1
 1920 4096 l 1
 2176 4096 l 1x90
EndSplineSet
Validated: 1
EndChar

StartChar: uF008F
Encoding: 983183 983183 145
Width: 4096
VWidth: 0
Flags: W
HStem: -1280 2560<768 1920 2176 3328> -128 256<0 768 3328 4096>
VStem: 768 2560<-1280 -128 128 1280> 1920 256<-4096 -1280>
LayerCount: 2
Fore
SplineSet
768 1280 m 5xa0
 3328 1280 l 5xa0
 3328 128 l 5
 4096 128 l 5
 4096 -128 l 5
 3328 -128 l 5x60
 3328 -1280 l 5xa0
 2176 -1280 l 5
 2176 -4096 l 5
 1920 -4096 l 5
 1920 -1280 l 5x90
 768 -1280 l 5xa0
 768 -128 l 5
 0 -128 l 5
 0 128 l 5
 768 128 l 5x60
 768 1280 l 5xa0
EndSplineSet
Validated: 1
EndChar

StartChar: uF0090
Encoding: 983184 983184 146
Width: 4096
VWidth: 0
Flags: W
HStem: -1280 2560<768 1920 2176 3328> -128 256<0 768 3328 4096>
VStem: 768 2560<-1280 -128 128 1280> 1920 256<1280 4096>
LayerCount: 2
Fore
SplineSet
768 -1280 m 1xa0
 768 -128 l 1
 0 -128 l 1
 0 128 l 1
 768 128 l 1x60
 768 1280 l 1xa0
 1920 1280 l 1
 1920 4096 l 1
 2176 4096 l 1
 2176 1280 l 1x90
 3328 1280 l 1xa0
 3328 128 l 1
 4096 128 l 1
 4096 -128 l 1
 3328 -128 l 1x60
 3328 -1280 l 1
 768 -1280 l 1xa0
EndSplineSet
Validated: 1
EndChar

StartChar: uF008C
Encoding: 983180 983180 147
Width: 4096
VWidth: 0
Flags: HMW
LayerCount: 2
Fore
SplineSet
2048 -1280 m 0
 1409 -1280 838 -764 774 -128 c 1
 0 -128 l 5
 0 128 l 1
 776 128 l 1
 833 702 1346 1215 1920 1274 c 1
 1920 4096 l 1
 2176 4096 l 1
 2176 1272 l 1
 2750 1215 3263 702 3322 128 c 1
 4096 128 l 1
 4096 -128 l 1
 3320 -128 l 1
 3256 -763 2686 -1279 2048 -1280 c 0
2048 -1024 m 0
 2613 -1024 3072 -565 3072 0 c 0
 3072 565 2613 1024 2048 1024 c 0
 1483 1024 1024 565 1024 0 c 0
 1024 -565 1483 -1024 2048 -1024 c 0
2048 -768 m 0
 1624 -768 1280 -424 1280 0 c 0
 1280 424 1624 768 2048 768 c 0
 2472 768 2816 424 2816 0 c 0
 2816 -424 2472 -768 2048 -768 c 0
2048 -512 m 0
 2331 -512 2560 -283 2560 0 c 0
 2560 283 2331 512 2048 512 c 0
 1765 512 1536 283 1536 0 c 0
 1536 -283 1765 -512 2048 -512 c 0
EndSplineSet
Validated: 1
EndChar

StartChar: uF008E
Encoding: 983182 983182 148
Width: 4096
VWidth: 0
Flags: W
HStem: -1272 248<1581.06 1920 2176 2518.48> -768 256<1713.97 2382.03> -128 256<0 790.287> 512 256<1713.97 2382.03> 1024 250<1581.08 1920 2176 2518.03>
VStem: 774 250<-466.92 -128 128 466.937> 1280 256<-334.026 334.026> 1920 256<-4096 -1256.17 1257.71 4096> 2560 256<-334.026 334.026> 3072 256<-487.221 486.832>
LayerCount: 2
Fore
SplineSet
1920 4096 m 5
 2176 4096 l 5
 2176 1272 l 5
 2811 1208 3327 638 3328 0 c 4
 3328 -639 2812 -1210 2176 -1274 c 5
 2176 -4096 l 5
 1920 -4096 l 5
 1920 -1272 l 5
 1346 -1215 833 -702 774 -128 c 5
 0 -128 l 5
 0 128 l 5
 776 128 l 5
 833 702 1346 1215 1920 1274 c 5
 1920 4096 l 5
2048 1024 m 4
 1483 1024 1024 565 1024 0 c 4
 1024 -565 1483 -1024 2048 -1024 c 4
 2613 -1024 3072 -565 3072 0 c 4
 3072 565 2613 1024 2048 1024 c 4
2048 768 m 4
 2472 768 2816 424 2816 0 c 4
 2816 -424 2472 -768 2048 -768 c 4
 1624 -768 1280 -424 1280 0 c 4
 1280 424 1624 768 2048 768 c 4
2048 512 m 4
 1765 512 1536 283 1536 0 c 4
 1536 -283 1765 -512 2048 -512 c 4
 2331 -512 2560 -283 2560 0 c 4
 2560 283 2331 512 2048 512 c 4
EndSplineSet
Validated: 1
EndChar

StartChar: uF008D
Encoding: 983181 983181 149
Width: 4096
VWidth: 0
Flags: HMW
LayerCount: 2
Fore
SplineSet
2176 -4096 m 1
 1920 -4096 l 1
 1920 -1272 l 1
 1285 -1208 769 -638 768 0 c 0
 768 639 1284 1210 1920 1274 c 1
 1920 4096 l 1
 2176 4096 l 1
 2176 1272 l 1
 2750 1215 3263 702 3322 128 c 1
 4096 128 l 1
 4096 -128 l 5
 3320 -128 l 1
 3263 -702 2750 -1215 2176 -1274 c 1
 2176 -4096 l 1
2048 -1024 m 0
 2613 -1024 3072 -565 3072 0 c 0
 3072 565 2613 1024 2048 1024 c 0
 1483 1024 1024 565 1024 0 c 0
 1024 -565 1483 -1024 2048 -1024 c 0
2048 -768 m 0
 1624 -768 1280 -424 1280 0 c 0
 1280 424 1624 768 2048 768 c 0
 2472 768 2816 424 2816 0 c 0
 2816 -424 2472 -768 2048 -768 c 0
2048 -512 m 0
 2331 -512 2560 -283 2560 0 c 0
 2560 283 2331 512 2048 512 c 0
 1765 512 1536 283 1536 0 c 0
 1536 -283 1765 -512 2048 -512 c 0
EndSplineSet
Validated: 1
EndChar
